<?xml version="1.0" encoding="UTF-8" standalone="no"?>
<!DOCTYPE svg PUBLIC "-//W3C//DTD SVG 1.1//EN" "http://www.w3.org/Graphics/SVG/1.1/DTD/svg11.dtd">
<svg width="100%" height="100%" viewBox="0 0 48 48" version="1.1" xmlns="http://www.w3.org/2000/svg" xmlns:xlink="http://www.w3.org/1999/xlink" xml:space="preserve" xmlns:serif="http://www.serif.com/" style="fill-rule:evenodd;clip-rule:evenodd;stroke-linejoin:round;stroke-miterlimit:2;">
    <g transform="matrix(-0.707107,0.707107,-0.707107,-0.707107,59.6482,23.2928)">
        <path d="M44,24C44,24.69 43.44,25.25 42.75,25.25L10.304,25.25L23.126,37.859C23.619,38.343 23.625,39.134 23.141,39.626C22.657,40.119 21.866,40.125 21.374,39.641L6.386,24.903C6.377,24.894 6.368,24.885 6.359,24.876C6.147,24.661 6.029,24.388 6.005,24.109C5.998,24.029 5.998,23.948 6.007,23.868C6.036,23.597 6.153,23.333 6.359,23.123C6.372,23.11 6.386,23.096 6.4,23.083L21.374,8.359C21.866,7.875 22.657,7.881 23.141,8.374C23.625,8.866 23.619,9.657 23.126,10.141L10.304,22.75L42.75,22.75C43.44,22.75 44,23.31 44,24Z" style="fill:rgb(33,33,33);fill-rule:nonzero;"/>
    </g>
</svg>
