<?xml version="1.0" standalone="no"?>
<!DOCTYPE svg PUBLIC "-//W3C//DTD SVG 20010904//EN"
 "http://www.w3.org/TR/2001/REC-SVG-20010904/DTD/svg10.dtd">
<svg version="1.0" xmlns="http://www.w3.org/2000/svg"
 width="700.000000pt" height="700.000000pt" viewBox="0 0 700.000000 700.000000"
 preserveAspectRatio="xMidYMid meet">
<metadata>
Created by potrace 1.14, written by Peter Selinger 2001-2017
</metadata>
<g transform="translate(0.000000,700.000000) scale(0.100000,-0.100000)"
fill="#000000" stroke="none">
<path d="M3094 6985 c-132 -17 -170 -24 -349 -59 -112 -22 -333 -88 -485 -146
-981 -370 -1759 -1178 -2087 -2170 -19 -58 -37 -112 -39 -120 -116 -451 -134
-591 -130 -1020 2 -173 6 -335 10 -360 4 -25 11 -79 17 -120 17 -122 66 -344
105 -474 253 -856 813 -1573 1588 -2033 104 -62 405 -213 423 -213 5 0 27 -9
49 -19 63 -30 357 -127 444 -145 14 -3 66 -15 115 -26 127 -28 114 -26 320
-55 143 -20 559 -27 730 -12 615 55 1224 280 1716 632 216 155 486 402 641
585 389 460 652 1002 767 1577 16 81 32 171 35 198 8 60 16 120 22 160 9 54
12 559 4 625 -5 36 -11 90 -14 120 -50 453 -216 957 -442 1337 -33 54 -61 103
-64 108 -14 29 -91 141 -153 225 -300 403 -668 729 -1097 972 -270 154 -605
288 -880 353 -110 26 -141 33 -185 40 -16 3 -43 7 -60 10 -16 3 -61 10 -100
16 -38 5 -83 13 -100 16 -67 12 -700 11 -801 -2z m686 -428 c14 -3 52 -8 85
-12 517 -52 1078 -283 1511 -621 129 -101 145 -115 280 -249 353 -351 605
-760 758 -1230 41 -128 87 -309 101 -405 3 -20 7 -45 9 -55 9 -46 28 -208 31
-266 5 -83 5 -360 0 -424 -8 -109 -19 -200 -30 -265 -3 -14 -7 -41 -10 -60
-19 -124 -61 -291 -112 -440 -285 -846 -929 -1533 -1753 -1867 -135 -55 -343
-122 -440 -142 -213 -44 -212 -44 -345 -60 -252 -32 -511 -31 -775 5 -130 17
-153 21 -178 28 -9 3 -33 7 -52 10 -51 8 -272 70 -370 104 -854 297 -1547 973
-1863 1818 -87 232 -151 496 -173 709 -3 33 -10 89 -14 125 -9 70 -5 470 5
560 6 54 48 302 59 350 4 14 8 34 10 45 6 34 27 104 63 220 211 668 653 1247
1250 1638 56 37 105 67 108 67 4 0 19 8 33 19 46 32 282 147 388 190 284 112
602 188 874 208 47 3 87 7 88 9 6 5 435 -4 462 -9z"/>
<path d="M3447 5904 c-1 -1 -49 -4 -107 -8 -107 -6 -129 -9 -235 -26 -265 -43
-562 -148 -790 -278 -82 -47 -225 -143 -225 -151 0 -3 17 -24 36 -46 65 -73
88 -99 163 -185 41 -47 78 -87 83 -88 7 -3 75 35 153 86 29 18 202 101 260
124 153 61 351 108 525 125 132 12 372 6 485 -12 273 -46 499 -129 724 -264
55 -34 102 -61 105 -61 2 0 60 64 128 142 67 78 131 150 141 161 9 11 17 21
17 23 0 9 -210 139 -300 186 -222 116 -521 214 -740 244 -30 4 -66 8 -80 10
-46 6 -339 22 -343 18z"/>
<path d="M1610 5223 c-173 -60 -276 -194 -295 -383 -6 -53 11 -153 31 -192 13
-26 12 -33 -27 -115 -63 -134 -137 -338 -154 -422 -2 -9 -10 -43 -18 -76 -9
-33 -18 -78 -22 -100 -3 -23 -7 -52 -10 -65 -6 -29 -14 -104 -20 -181 -5 -58
-5 -322 -1 -379 3 -35 17 -146 21 -165 1 -5 5 -32 9 -60 4 -27 21 -102 36
-165 93 -376 294 -752 550 -1033 l45 -49 35 39 c19 22 58 66 86 99 28 32 77
88 108 124 31 36 56 68 56 71 0 3 -10 17 -23 30 -114 119 -278 385 -354 574
-40 101 -93 290 -109 389 -3 21 -8 48 -10 60 -2 11 -7 62 -11 111 -20 264 6
510 77 740 27 88 92 257 109 284 5 7 30 15 57 17 379 35 547 479 280 745 -119
120 -286 158 -446 102z"/>
<path d="M5124 5024 c-65 -76 -129 -149 -141 -162 -28 -30 -28 -33 -5 -58 117
-130 228 -301 311 -482 40 -86 124 -322 116 -322 -3 0 -1 -10 4 -23 5 -13 12
-41 15 -63 4 -21 9 -47 12 -57 30 -95 38 -461 15 -617 -18 -117 -21 -131 -37
-195 -9 -33 -17 -69 -20 -79 -6 -32 -46 -149 -64 -191 -10 -22 -29 -65 -43
-95 l-24 -56 -67 -1 c-134 -2 -267 -76 -346 -192 -116 -168 -95 -401 47 -545
41 -42 143 -113 143 -100 0 4 6 2 13 -3 25 -21 119 -35 185 -30 89 8 126 20
197 62 168 102 246 296 195 490 -12 49 -12 53 20 115 108 217 207 535 234 750
35 280 21 622 -37 865 -3 11 -8 34 -12 50 -83 356 -303 766 -556 1038 l-36 39
-119 -138z"/>
<path d="M3370 4594 c-278 -43 -468 -138 -655 -328 -124 -126 -194 -240 -261
-421 -42 -117 -63 -365 -42 -510 51 -345 283 -658 603 -814 100 -49 201 -83
285 -96 25 -4 54 -9 65 -12 27 -6 234 -4 265 2 13 2 42 7 65 10 179 26 409
144 564 289 140 133 284 389 307 546 3 19 7 41 10 49 6 17 17 142 17 191 1 51
-12 201 -18 209 -2 4 -7 23 -10 42 -39 221 -225 499 -429 643 -125 88 -275
154 -426 186 -54 12 -291 21 -340 14z m343 -469 c122 -43 227 -119 304 -220
162 -213 183 -490 54 -722 -166 -299 -539 -421 -850 -277 -359 167 -492 609
-283 944 162 260 486 375 775 275z"/>
<path d="M2353 1866 c-4 -8 -28 -36 -53 -63 -25 -27 -67 -76 -95 -108 -27 -33
-65 -75 -82 -95 -18 -19 -33 -39 -33 -45 0 -11 138 -102 246 -163 278 -155
605 -256 934 -289 145 -15 428 -9 565 12 122 18 199 33 264 52 29 8 59 16 65
17 57 12 243 81 356 134 131 61 390 216 390 233 0 6 -182 218 -255 297 l-30
32 -70 -45 c-133 -86 -415 -211 -543 -240 -218 -50 -367 -67 -546 -64 -127 3
-174 7 -286 25 -19 3 -48 8 -65 10 -197 32 -511 161 -704 291 -39 27 -47 28
-58 9z"/>
</g>
</svg>
