<?xml version="1.0" standalone="no"?>
<!DOCTYPE svg PUBLIC "-//W3C//DTD SVG 20010904//EN"
 "http://www.w3.org/TR/2001/REC-SVG-20010904/DTD/svg10.dtd">
<svg version="1.0" xmlns="http://www.w3.org/2000/svg"
 width="2048.000000pt" height="2048.000000pt" viewBox="0 0 2048.000000 2048.000000"
 preserveAspectRatio="xMidYMid meet">
<metadata>
Created by potrace 1.14, written by Peter Selinger 2001-2017
</metadata>
<g transform="translate(0.000000,2048.000000) scale(0.100000,-0.100000)"
fill="#000000" stroke="none">
<path d="M9509 20476 c-2 -2 -47 -7 -99 -11 -93 -6 -115 -8 -235 -20 -114 -11
-176 -19 -255 -30 -14 -2 -47 -7 -75 -10 -236 -27 -634 -102 -1015 -190 -8 -2
-35 -8 -60 -14 -25 -7 -55 -14 -67 -16 -12 -3 -79 -21 -150 -41 -70 -19 -135
-37 -143 -39 -105 -25 -610 -192 -760 -250 -270 -105 -339 -132 -423 -170 -18
-8 -69 -29 -113 -48 -143 -62 -285 -130 -509 -243 -281 -142 -400 -209 -768
-428 -31 -19 -438 -289 -487 -323 -69 -49 -288 -209 -311 -227 -14 -12 -40
-32 -59 -46 -29 -22 -98 -76 -245 -193 -21 -18 -55 -46 -75 -63 -19 -17 -48
-42 -65 -56 -272 -230 -662 -603 -885 -848 -47 -52 -89 -98 -95 -104 -40 -44
-164 -187 -230 -266 -44 -52 -82 -97 -85 -100 -3 -3 -39 -48 -80 -100 -41 -52
-77 -97 -80 -100 -24 -21 -343 -463 -440 -610 -170 -255 -355 -564 -506 -842
-42 -78 -262 -521 -297 -598 -49 -110 -75 -169 -129 -300 -33 -80 -65 -156
-71 -170 -5 -14 -11 -29 -13 -35 -1 -5 -19 -53 -39 -105 -67 -171 -139 -377
-194 -560 -18 -58 -38 -123 -46 -145 -38 -112 -179 -675 -210 -836 -3 -13 -12
-58 -20 -99 -8 -41 -17 -86 -20 -100 -9 -45 -64 -384 -70 -430 -8 -58 -15
-109 -20 -140 -2 -14 -7 -56 -10 -93 -4 -37 -8 -78 -11 -90 -2 -12 -6 -51 -9
-87 -3 -36 -7 -78 -10 -95 -16 -124 -20 -321 -20 -960 0 -401 4 -768 8 -815 4
-47 10 -112 13 -145 2 -33 7 -80 10 -105 10 -71 12 -91 19 -160 3 -36 8 -72
10 -80 2 -8 6 -37 9 -65 10 -99 64 -436 91 -565 2 -14 10 -50 16 -80 21 -111
60 -279 104 -460 150 -610 371 -1237 638 -1815 70 -151 304 -613 328 -646 10
-15 19 -29 19 -32 0 -7 109 -197 130 -227 11 -16 20 -31 20 -34 0 -9 174 -287
227 -363 24 -35 43 -65 43 -67 0 -18 456 -645 517 -711 10 -11 34 -40 53 -65
31 -40 127 -157 140 -170 3 -3 48 -54 100 -115 52 -60 99 -115 105 -121 5 -6
53 -57 105 -114 318 -346 740 -739 1115 -1039 50 -40 97 -78 105 -84 93 -76
488 -361 615 -443 33 -21 62 -41 65 -45 12 -13 526 -329 535 -329 2 0 36 -19
77 -42 297 -170 733 -382 1068 -521 47 -20 112 -47 145 -60 326 -136 901 -321
1310 -423 17 -4 35 -8 40 -10 6 -1 21 -5 35 -8 14 -3 66 -15 115 -26 207 -49
585 -121 765 -146 19 -2 64 -9 100 -14 131 -19 146 -21 205 -26 33 -2 69 -6
80 -9 11 -2 49 -7 85 -10 36 -4 83 -8 105 -11 22 -2 78 -6 125 -10 47 -3 103
-7 125 -9 278 -27 1096 -26 1425 0 30 3 87 7 125 10 39 3 88 7 110 10 22 2 69
7 105 10 159 16 240 25 265 30 11 2 43 7 70 10 72 9 106 14 140 19 96 16 284
47 305 51 14 3 75 14 135 26 61 11 135 27 165 34 30 8 69 16 85 19 65 10 413
98 596 151 613 175 1178 395 1754 682 177 89 487 255 545 293 8 5 29 17 45 26
78 43 357 218 504 316 407 272 815 587 1167 903 378 339 783 764 1133 1190
306 373 705 956 939 1375 14 25 34 61 45 80 384 687 695 1438 912 2204 50 175
118 445 132 516 2 13 12 60 22 105 10 44 22 98 27 120 4 22 8 42 9 45 0 3 5
28 10 55 4 28 9 55 11 60 3 15 24 133 39 225 3 19 8 46 10 60 12 71 35 231 39
275 3 28 7 66 10 85 5 32 8 61 21 175 2 22 7 67 9 100 3 33 8 85 11 115 21
213 30 478 30 855 0 444 -11 675 -50 1058 -3 28 -8 75 -11 102 -2 28 -6 64 -9
80 -3 17 -7 53 -10 80 -3 28 -10 75 -15 105 -5 30 -12 75 -15 100 -16 120 -60
368 -90 515 -8 39 -17 82 -19 97 -3 15 -7 31 -9 35 -3 5 -8 26 -11 48 -28 177
-251 964 -321 1132 -8 18 -11 33 -8 33 3 0 1 6 -4 13 -6 6 -18 37 -27 67 -23
70 -168 439 -235 595 -123 286 -308 656 -486 975 -223 400 -634 1008 -909
1345 -31 39 -62 77 -69 85 -18 23 -111 134 -117 140 -3 3 -30 34 -60 70 -30
36 -59 70 -65 76 -5 6 -44 49 -85 95 -223 249 -546 571 -775 774 -43 39 -86
77 -95 85 -16 15 -128 112 -165 142 -11 9 -52 43 -91 75 -81 67 -99 81 -254
201 -94 73 -285 211 -485 352 -58 41 -256 170 -261 170 -2 0 -27 16 -54 35
-27 19 -53 35 -56 35 -3 0 -18 8 -32 19 -30 21 -263 159 -357 211 -453 251
-880 450 -1350 630 -60 23 -121 46 -135 52 -65 26 -513 172 -655 213 -129 37
-466 126 -535 140 -8 2 -80 18 -160 35 -137 30 -214 45 -270 55 -241 42 -323
55 -365 60 -27 4 -61 8 -75 11 -14 2 -45 6 -70 9 -25 3 -52 8 -60 10 -8 2 -44
7 -80 10 -36 3 -99 10 -140 15 -41 5 -111 12 -155 15 -44 4 -96 9 -115 12 -38
7 -1544 15 -1551 9z m1226 -1270 c22 -2 85 -7 140 -10 55 -4 114 -8 130 -10
17 -2 68 -7 115 -11 47 -4 93 -9 102 -10 9 -2 48 -7 85 -10 37 -4 75 -8 83
-10 8 -2 38 -7 65 -10 97 -12 318 -49 487 -80 555 -105 1290 -328 1763 -535
22 -10 94 -41 160 -70 280 -122 682 -331 960 -498 191 -114 577 -369 660 -434
6 -5 69 -52 140 -106 113 -84 270 -207 285 -222 3 -3 48 -41 100 -84 421 -352
873 -816 1215 -1246 55 -69 102 -127 105 -130 19 -16 270 -369 357 -500 56
-85 107 -160 113 -167 5 -7 10 -14 10 -17 0 -3 21 -38 47 -78 27 -40 53 -82
59 -93 6 -11 55 -96 109 -190 264 -459 516 -1015 698 -1545 40 -117 153 -485
161 -525 2 -11 14 -56 26 -100 12 -44 23 -87 25 -95 2 -8 15 -62 28 -120 53
-223 118 -564 142 -745 3 -27 8 -61 10 -75 16 -103 39 -307 51 -450 3 -41 7
-89 9 -105 19 -167 27 -899 12 -1150 -27 -467 -74 -848 -158 -1270 -40 -203
-135 -600 -170 -710 -10 -33 -33 -107 -50 -165 -171 -571 -454 -1236 -746
-1750 -33 -58 -72 -127 -88 -155 -91 -162 -347 -553 -477 -730 -74 -101 -229
-305 -243 -319 -6 -6 -35 -42 -65 -81 -30 -38 -57 -72 -60 -75 -3 -3 -32 -36
-64 -75 -304 -364 -804 -854 -1156 -1135 -24 -19 -58 -47 -75 -61 -62 -52
-255 -198 -391 -296 -1095 -786 -2397 -1329 -3714 -1547 -52 -9 -104 -18 -115
-20 -11 -2 -45 -7 -76 -10 -31 -4 -66 -8 -76 -10 -11 -3 -44 -7 -74 -11 -30
-4 -67 -9 -84 -11 -16 -2 -57 -6 -90 -9 -33 -3 -71 -8 -85 -10 -14 -2 -65 -7
-115 -10 -49 -4 -103 -9 -120 -11 -193 -25 -1051 -25 -1335 1 -19 2 -71 6
-115 10 -44 3 -93 8 -110 9 -131 14 -163 17 -185 21 -14 3 -45 7 -70 10 -174
20 -331 46 -625 101 -156 29 -591 137 -750 185 -274 84 -551 177 -650 219 -11
5 -72 29 -135 53 -393 152 -887 396 -1298 644 -155 93 -489 307 -502 322 -3 3
-27 21 -55 40 -114 78 -506 377 -525 400 -3 3 -30 26 -60 50 -61 50 -74 60
-110 93 -14 13 -78 69 -142 126 -189 166 -494 475 -725 731 -98 110 -279 331
-404 496 -71 94 -133 175 -137 180 -64 82 -295 431 -407 615 -92 151 -95 158
-220 385 -346 632 -639 1390 -815 2110 -33 133 -36 149 -45 198 -3 16 -14 66
-24 110 -11 45 -21 96 -24 112 -3 17 -12 68 -21 115 -8 47 -18 101 -21 120 -3
19 -7 46 -10 60 -2 14 -7 45 -11 70 -3 24 -7 47 -9 50 -2 3 -6 36 -10 74 -3
38 -8 72 -9 75 -2 3 -7 40 -10 81 -4 41 -9 84 -11 95 -5 19 -10 76 -21 215 -3
36 -7 88 -9 115 -26 327 -27 962 -1 1310 9 119 28 311 42 425 5 41 47 336 60
420 36 232 152 741 230 1005 109 369 283 844 418 1140 20 44 47 102 59 129
107 237 358 703 502 931 114 181 341 519 397 590 4 6 56 73 114 150 97 128
180 232 194 245 3 3 16 18 28 34 28 36 144 170 242 280 182 203 502 521 695
691 38 33 85 74 104 91 94 83 268 225 376 307 44 33 82 63 85 66 6 8 124 93
270 196 818 577 1788 1032 2760 1295 186 50 249 66 295 76 6 1 28 7 50 12 33
9 138 32 220 48 11 2 54 10 95 19 41 8 89 17 105 20 17 3 41 7 55 10 14 2 54
9 90 14 36 6 74 13 86 15 12 2 45 7 75 11 30 3 61 8 69 10 13 3 36 6 155 20
17 2 59 6 95 9 36 4 76 9 90 11 14 2 63 7 110 11 47 3 101 7 120 9 19 2 109 7
200 11 91 3 166 8 168 9 5 5 750 -4 797 -9z"/>
<path d="M6913 17276 c-8 -15 -73 -90 -168 -196 -27 -31 -75 -85 -105 -120
-47 -55 -109 -126 -145 -166 -5 -6 -35 -39 -65 -74 -104 -121 -283 -325 -312
-356 l-29 -31 113 -80 c826 -580 1769 -975 2763 -1158 148 -27 169 -31 245
-40 30 -4 64 -9 75 -11 64 -12 340 -41 495 -51 220 -15 952 -7 1070 12 14 2
61 6 104 10 43 4 86 8 95 10 9 1 43 6 76 9 69 9 106 14 190 26 33 5 78 12 100
15 22 4 47 8 57 11 9 3 40 9 70 14 395 69 899 214 1313 380 482 192 999 471
1413 763 124 87 118 75 67 133 -5 6 -35 39 -65 74 -30 36 -89 103 -130 150
-41 46 -86 98 -100 114 -14 16 -41 48 -61 70 -57 64 -198 226 -259 296 -30 35
-71 82 -91 104 -20 23 -49 56 -65 74 l-29 33 -112 -76 c-62 -41 -115 -75 -117
-75 -3 0 -43 -24 -88 -53 -46 -29 -96 -60 -113 -69 -16 -8 -77 -41 -135 -73
-566 -311 -1333 -561 -1935 -631 -27 -3 -56 -7 -63 -9 -7 -3 -47 -7 -90 -11
-42 -3 -88 -8 -102 -10 -149 -26 -889 -26 -1075 0 -16 2 -61 7 -100 10 -38 4
-81 9 -95 11 -14 3 -43 7 -65 10 -62 7 -115 15 -170 25 -27 6 -68 12 -90 16
-22 3 -48 7 -57 10 -10 3 -30 8 -45 10 -229 41 -602 149 -883 256 -112 42
-123 47 -185 73 -22 10 -53 23 -70 30 -282 121 -628 310 -892 487 -106 70
-126 78 -140 54z"/>
<path d="M4925 15344 c-545 -89 -967 -504 -1065 -1047 -22 -123 -20 -345 5
-462 18 -87 67 -240 95 -295 l18 -35 -72 -145 c-73 -147 -177 -380 -216 -480
-11 -30 -24 -64 -29 -75 -25 -58 -96 -259 -140 -395 -79 -247 -120 -402 -197
-745 -5 -26 -32 -171 -38 -210 -12 -71 -17 -101 -21 -115 -2 -8 -7 -40 -10
-70 -12 -104 -15 -125 -25 -200 -6 -41 -12 -104 -15 -140 -3 -36 -8 -87 -10
-115 -14 -175 -19 -291 -19 -535 -1 -274 10 -547 29 -725 11 -107 55 -440 60
-453 2 -7 11 -54 20 -105 17 -105 16 -102 45 -233 12 -55 23 -106 25 -114 1
-8 17 -71 34 -140 145 -573 378 -1159 666 -1675 31 -55 59 -108 62 -117 3 -10
9 -18 14 -18 5 0 9 -4 9 -10 0 -20 339 -542 385 -593 6 -7 46 -59 90 -117 70
-94 269 -335 342 -416 15 -17 59 -65 98 -108 l70 -76 34 37 c60 67 95 107 156
178 33 39 71 82 85 96 14 15 43 48 65 74 22 26 45 53 50 59 12 12 421 482 443
508 14 17 -2 40 -133 184 -5 6 -26 30 -45 54 -19 24 -50 62 -69 84 -118 141
-313 424 -456 660 -75 125 -242 446 -297 571 -15 33 -36 83 -49 110 -109 247
-289 810 -322 1010 -3 17 -10 50 -15 75 -12 52 -16 71 -37 195 -22 125 -30
176 -39 265 -2 19 -7 60 -11 90 -44 371 -40 933 10 1320 8 63 17 131 19 150 3
20 11 74 20 120 8 47 17 99 20 115 13 82 65 303 112 475 46 168 170 527 222
641 12 25 30 68 40 95 11 27 42 95 69 152 l50 102 114 4 c598 21 1102 461
1209 1058 22 123 20 347 -5 463 -85 407 -345 739 -715 914 -76 36 -226 85
-290 96 -25 4 -54 9 -65 12 -49 11 -306 9 -380 -3z"/>
<path d="M15223 14963 c-67 -76 -130 -147 -140 -159 -99 -115 -134 -155 -173
-199 -25 -28 -72 -82 -105 -120 -54 -62 -197 -224 -264 -300 -15 -16 -30 -36
-35 -43 -7 -11 38 -70 127 -167 31 -33 221 -276 263 -335 21 -30 41 -57 45
-60 11 -9 196 -295 261 -405 263 -444 477 -957 607 -1458 53 -205 102 -435
117 -555 2 -20 6 -44 9 -52 2 -8 7 -40 11 -70 3 -30 7 -66 9 -80 2 -14 6 -52
9 -85 3 -33 8 -78 11 -100 26 -210 26 -861 0 -1060 -2 -16 -7 -57 -10 -90 -13
-118 -21 -183 -40 -295 -8 -47 -17 -103 -21 -125 -5 -31 -39 -193 -69 -325
-29 -128 -134 -478 -175 -585 -6 -16 -12 -32 -12 -35 -1 -3 -12 -29 -25 -58
-12 -29 -23 -57 -23 -62 0 -5 -11 -33 -24 -62 -13 -29 -41 -93 -62 -143 -21
-49 -57 -128 -80 -175 l-41 -84 -149 -2 c-131 -1 -237 -9 -255 -20 -3 -2 -21
-6 -40 -9 -61 -11 -182 -56 -281 -106 -356 -176 -613 -523 -684 -921 -16 -94
-22 -299 -10 -373 16 -96 19 -113 33 -165 60 -226 164 -409 323 -571 74 -75
227 -199 245 -199 4 0 19 -9 34 -19 75 -54 306 -135 441 -156 83 -13 304 -13
380 1 129 22 141 25 229 56 305 107 556 319 711 602 60 108 117 275 134 391 3
17 8 50 12 75 7 52 8 230 0 275 -2 17 -7 50 -11 75 -9 60 -39 173 -61 233 -16
41 -17 50 -5 70 29 46 190 376 241 492 28 66 58 134 65 150 57 122 224 605
270 780 9 33 28 103 42 155 14 52 27 106 29 120 3 14 9 41 14 60 5 19 11 46
14 60 2 14 11 54 19 90 8 36 18 83 21 105 4 22 16 92 27 155 22 123 25 147 34
225 3 28 10 84 16 125 16 121 24 212 36 415 9 138 9 687 0 820 -10 159 -25
325 -31 365 -3 14 -7 52 -11 85 -8 73 -14 120 -20 154 -2 14 -7 46 -10 71 -3
25 -8 52 -10 60 -2 8 -7 31 -10 50 -19 118 -29 171 -61 315 -20 88 -37 169
-40 179 -2 10 -8 33 -14 51 -6 18 -12 41 -14 51 -13 62 -52 195 -131 442 -24
76 -114 321 -134 367 -5 11 -33 76 -61 145 -290 692 -739 1399 -1240 1950 -42
47 -90 100 -106 118 l-29 33 -122 -138z"/>
<path d="M10048 13455 c-2 -1 -39 -5 -83 -9 -106 -8 -168 -15 -240 -27 -33 -6
-73 -13 -90 -16 -74 -11 -284 -66 -401 -104 -192 -62 -442 -172 -584 -257 -19
-12 -48 -29 -65 -38 -95 -52 -296 -196 -440 -314 -82 -68 -351 -348 -427 -445
-73 -94 -238 -330 -238 -341 0 -2 -14 -27 -31 -56 -202 -341 -338 -747 -403
-1199 -26 -178 -27 -662 -2 -780 3 -13 8 -48 11 -78 8 -80 53 -292 85 -406
143 -509 407 -970 770 -1349 123 -128 271 -261 385 -345 33 -25 76 -56 95 -71
31 -23 155 -101 250 -158 123 -72 383 -192 525 -240 201 -68 446 -129 595
-147 25 -3 56 -8 70 -10 112 -20 506 -26 690 -12 58 5 107 10 110 12 3 1 30 5
60 9 266 30 630 140 915 276 155 74 398 217 496 291 214 164 310 249 470 415
115 121 293 347 364 465 6 9 31 52 58 95 60 100 165 312 212 429 67 166 145
425 169 560 3 17 8 41 11 55 3 14 10 57 16 95 5 39 12 84 14 100 27 176 27
621 1 785 -3 14 -7 48 -10 77 -3 28 -8 57 -10 65 -3 7 -8 31 -11 53 -3 22 -12
67 -20 101 -8 34 -16 73 -19 85 -2 13 -16 65 -31 114 -175 603 -511 1127 -990
1545 -158 138 -411 310 -615 418 -191 101 -552 237 -711 267 -12 2 -28 6 -37
9 -9 3 -35 8 -57 12 -22 3 -43 8 -46 10 -4 2 -24 6 -45 9 -22 3 -50 8 -64 11
-14 2 -35 6 -47 8 -12 3 -53 8 -90 11 -37 4 -79 9 -93 11 -28 6 -467 14 -472
9z m437 -1294 c28 -5 68 -12 90 -15 22 -3 65 -12 97 -20 31 -9 67 -17 80 -20
164 -34 457 -179 643 -320 93 -70 289 -264 356 -351 165 -214 282 -456 349
-717 28 -110 32 -134 47 -268 10 -84 10 -336 0 -419 -17 -146 -59 -318 -116
-470 -55 -147 -182 -376 -267 -481 -62 -77 -152 -177 -191 -213 -94 -87 -110
-101 -183 -156 -269 -204 -581 -330 -940 -378 -112 -15 -467 -7 -523 12 -7 2
-28 6 -49 9 -173 25 -440 126 -644 244 -171 98 -423 329 -552 505 -40 53 -72
99 -72 102 0 2 -15 28 -34 57 -48 76 -114 210 -149 303 -34 93 -92 309 -101
381 -3 27 -10 76 -15 109 -9 63 -8 395 1 411 3 5 9 36 13 69 3 33 11 80 17
105 5 25 12 56 14 69 3 14 7 28 10 33 3 5 8 21 10 36 8 44 84 241 127 326 158
318 415 599 718 787 88 55 231 127 300 152 24 9 62 22 84 31 103 37 319 83
470 99 63 7 362 -2 410 -12z"/>
<path d="M10187 5514 c-1 -1 -87 -4 -192 -8 -255 -8 -328 -13 -580 -42 -71 -8
-126 -15 -155 -19 -95 -15 -160 -25 -190 -29 -241 -33 -720 -153 -1060 -266
-644 -214 -1232 -510 -1818 -917 l-92 -65 97 -111 c53 -62 100 -114 103 -117
4 -4 52 -59 160 -183 14 -16 34 -39 45 -51 11 -12 43 -48 70 -80 28 -32 59
-68 70 -80 11 -13 47 -53 80 -91 33 -38 65 -73 70 -79 6 -6 23 -27 39 -46 15
-19 48 -56 72 -82 l44 -47 78 53 c314 216 777 457 1137 592 50 19 99 38 110
43 20 9 44 17 215 72 154 49 332 98 495 134 116 26 120 26 255 50 47 9 95 17
105 19 18 3 84 13 145 20 14 2 52 7 85 10 33 4 74 8 90 11 28 4 91 9 265 20
92 7 552 7 630 0 36 -3 99 -8 140 -11 41 -4 93 -8 115 -9 22 -2 81 -8 130 -15
50 -6 108 -14 130 -16 34 -4 206 -34 281 -48 82 -16 234 -51 314 -72 52 -14
103 -27 113 -29 31 -7 188 -55 312 -97 169 -57 271 -96 465 -180 125 -55 473
-230 550 -278 8 -5 57 -34 107 -64 51 -31 141 -88 200 -127 l107 -71 29 33
c17 19 43 49 59 67 17 19 60 68 96 110 37 43 69 79 72 82 3 3 34 39 69 80 36
41 70 80 75 85 6 6 36 39 66 75 30 35 62 71 70 80 8 9 40 45 70 80 30 35 64
74 75 86 18 19 40 45 142 163 12 14 19 28 15 31 -113 93 -493 334 -732 465
-225 123 -736 365 -771 365 -5 0 -32 11 -61 24 -29 13 -114 45 -188 70 -74 25
-144 50 -155 55 -49 22 -512 152 -595 167 -14 3 -41 9 -60 14 -19 5 -46 11
-60 14 -14 2 -70 13 -125 24 -55 11 -117 23 -137 26 -21 3 -57 10 -80 15 -24
5 -70 12 -103 16 -33 4 -69 9 -80 11 -51 7 -287 35 -350 40 -38 3 -88 7 -110
9 -58 6 -563 23 -568 19z"/>
</g>
</svg>
