<?xml version="1.0" encoding="UTF-8" standalone="no"?>
<!DOCTYPE svg PUBLIC "-//W3C//DTD SVG 1.1//EN" "http://www.w3.org/Graphics/SVG/1.1/DTD/svg11.dtd">
<svg width="100%" height="100%" viewBox="0 0 32 32" version="1.1" xmlns="http://www.w3.org/2000/svg" xmlns:xlink="http://www.w3.org/1999/xlink" xml:space="preserve" xmlns:serif="http://www.serif.com/" style="fill-rule:evenodd;clip-rule:evenodd;stroke-linejoin:round;stroke-miterlimit:2;">
    <path d="M15.985,-0.03C24.824,-0.03 32,7.146 32,15.985C32,24.823 24.824,32 15.985,32C7.147,32 -0.029,24.823 -0.029,15.985C-0.029,7.146 7.147,-0.03 15.985,-0.03ZM15.985,1.971C23.721,1.971 29.999,8.251 29.999,15.985C29.999,23.72 23.721,30 15.985,30C8.25,30 1.97,23.72 1.97,15.985C1.97,8.251 8.25,1.971 15.985,1.971ZM22.472,24.911C20.655,26.232 18.419,27.012 16.003,27.012C13.578,27.012 11.336,26.227 9.516,24.897L10.839,23.385C12.302,24.41 14.083,25.012 16.003,25.012C17.915,25.012 19.689,24.415 21.148,23.398L22.472,24.911ZM24.051,20.013C24.658,18.801 25,17.433 25,15.985C25,13.65 24.11,11.52 22.65,9.918L23.974,8.405C25.849,10.38 27,13.049 27,15.985C27,17.886 26.517,19.676 25.668,21.237C25.765,21.472 25.819,21.73 25.819,22C25.819,23.104 24.922,24 23.819,24C22.715,24 21.819,23.104 21.819,22C21.819,20.896 22.715,20 23.819,20C23.897,20 23.975,20.005 24.051,20.013ZM6.214,10.9C6.077,10.629 6,10.324 6,10C6,8.896 6.896,8 8,8C9.104,8 10,8.896 10,10C10,11.104 9.104,12 8,12C7.966,12 7.933,11.999 7.899,11.997C7.304,13.2 6.97,14.554 6.97,15.985C6.97,18.336 7.872,20.478 9.348,22.083L8.025,23.596C6.133,21.617 4.97,18.936 4.97,15.985C4.97,14.152 5.419,12.422 6.214,10.9ZM15.985,10.97C18.753,10.97 21,13.217 21,15.985C21,18.753 18.753,21 15.985,21C13.217,21 10.97,18.753 10.97,15.985C10.97,13.217 13.217,10.97 15.985,10.97ZM15.985,12.97C17.649,12.97 19,14.321 19,15.985C19,17.649 17.649,19 15.985,19C14.321,19 12.97,17.649 12.97,15.985C12.97,14.321 14.321,12.97 15.985,12.97ZM10.855,8.628L9.532,7.116C11.349,5.793 13.586,5.013 16.003,5.013C18.412,5.013 20.642,5.788 22.456,7.103L21.132,8.615C19.676,7.605 17.908,7.013 16.003,7.013C14.09,7.013 12.315,7.61 10.855,8.628Z"/>
</svg>
