<?xml version="1.0" encoding="UTF-8" standalone="no"?>
<!DOCTYPE svg PUBLIC "-//W3C//DTD SVG 1.1//EN" "http://www.w3.org/Graphics/SVG/1.1/DTD/svg11.dtd">
<svg width="100%" height="100%" viewBox="0 0 848 214" version="1.1" xmlns="http://www.w3.org/2000/svg" xmlns:xlink="http://www.w3.org/1999/xlink" xml:space="preserve" xmlns:serif="http://www.serif.com/" style="fill-rule:evenodd;clip-rule:evenodd;stroke-linejoin:round;stroke-miterlimit:2;">
    <g transform="matrix(1,0,0,1.01423,0,0)">
        <rect x="0" y="0" width="848" height="210.997" style="fill:rgb(247,250,252);"/>
    </g>
    <g>
        <g transform="matrix(0.707107,-0.707107,0.707107,0.707107,-330.618,364.775)">
            <g transform="matrix(1.0468,0,0,0.973318,-22.9022,1.20079)">
                <rect x="190.197" y="7.525" width="343.904" height="2.055" style="fill:rgb(237,242,247);"/>
            </g>
            <path d="M230,8.525L228,8.525L228,10.525L230,10.525L230,8.525ZM270,8.525L268,8.525L268,10.525L270,10.525L270,8.525ZM310,8.525L308,8.525L308,10.525L310,10.525L310,8.525ZM350,8.525L348,8.525L348,10.525L350,10.525L350,8.525ZM390,8.525L388,8.525L388,10.525L390,10.525L390,8.525ZM430,8.525L428,8.525L428,10.525L430,10.525L430,8.525ZM470,8.525L468,8.525L468,10.525L470,10.525L470,8.525Z" style="fill:rgb(189,199,213);"/>
        </g>
        <g transform="matrix(0.707107,-0.707107,0.707107,0.707107,-274.618,364.775)">
            <g transform="matrix(1.0468,0,0,0.973318,-22.9022,1.20079)">
                <rect x="190.197" y="7.525" width="343.904" height="2.055" style="fill:rgb(237,242,247);"/>
            </g>
            <path d="M230,8.525L228,8.525L228,10.525L230,10.525L230,8.525ZM270,8.525L268,8.525L268,10.525L270,10.525L270,8.525ZM310,8.525L308,8.525L308,10.525L310,10.525L310,8.525ZM350,8.525L348,8.525L348,10.525L350,10.525L350,8.525ZM390,8.525L388,8.525L388,10.525L390,10.525L390,8.525ZM430,8.525L428,8.525L428,10.525L430,10.525L430,8.525ZM470,8.525L468,8.525L468,10.525L470,10.525L470,8.525Z" style="fill:rgb(189,199,213);"/>
        </g>
        <g transform="matrix(0.707107,-0.707107,0.707107,0.707107,-218.618,364.775)">
            <g transform="matrix(1.0468,0,0,0.973318,-22.9022,1.20079)">
                <rect x="190.197" y="7.525" width="343.904" height="2.055" style="fill:rgb(237,242,247);"/>
            </g>
            <path d="M230,8.525L228,8.525L228,10.525L230,10.525L230,8.525ZM270,8.525L268,8.525L268,10.525L270,10.525L270,8.525ZM310,8.525L308,8.525L308,10.525L310,10.525L310,8.525ZM350,8.525L348,8.525L348,10.525L350,10.525L350,8.525ZM390,8.525L388,8.525L388,10.525L390,10.525L390,8.525ZM430,8.525L428,8.525L428,10.525L430,10.525L430,8.525ZM470,8.525L468,8.525L468,10.525L470,10.525L470,8.525Z" style="fill:rgb(189,199,213);"/>
        </g>
        <g transform="matrix(0.707107,-0.707107,0.707107,0.707107,-162.618,364.775)">
            <g transform="matrix(1.0468,0,0,0.973318,-22.9022,1.20079)">
                <rect x="190.197" y="7.525" width="343.904" height="2.055" style="fill:rgb(237,242,247);"/>
            </g>
            <path d="M230,8.525L228,8.525L228,10.525L230,10.525L230,8.525ZM270,8.525L268,8.525L268,10.525L270,10.525L270,8.525ZM310,8.525L308,8.525L308,10.525L310,10.525L310,8.525ZM350,8.525L348,8.525L348,10.525L350,10.525L350,8.525ZM390,8.525L388,8.525L388,10.525L390,10.525L390,8.525ZM430,8.525L428,8.525L428,10.525L430,10.525L430,8.525ZM470,8.525L468,8.525L468,10.525L470,10.525L470,8.525Z" style="fill:rgb(189,199,213);"/>
        </g>
        <g transform="matrix(0.707107,-0.707107,0.707107,0.707107,-106.618,364.775)">
            <g transform="matrix(1.0468,0,0,0.973318,-22.9022,1.20079)">
                <rect x="190.197" y="7.525" width="343.904" height="2.055" style="fill:rgb(237,242,247);"/>
            </g>
            <path d="M230,8.525L228,8.525L228,10.525L230,10.525L230,8.525ZM270,8.525L268,8.525L268,10.525L270,10.525L270,8.525ZM310,8.525L308,8.525L308,10.525L310,10.525L310,8.525ZM350,8.525L348,8.525L348,10.525L350,10.525L350,8.525ZM390,8.525L388,8.525L388,10.525L390,10.525L390,8.525ZM430,8.525L428,8.525L428,10.525L430,10.525L430,8.525ZM470,8.525L468,8.525L468,10.525L470,10.525L470,8.525Z" style="fill:rgb(189,199,213);"/>
        </g>
        <g transform="matrix(0.707107,-0.707107,0.707107,0.707107,-50.6183,364.775)">
            <g transform="matrix(1.0468,0,0,0.973318,-22.9022,1.20079)">
                <rect x="190.197" y="7.525" width="343.904" height="2.055" style="fill:rgb(237,242,247);"/>
            </g>
            <path d="M230,8.525L228,8.525L228,10.525L230,10.525L230,8.525ZM270,8.525L268,8.525L268,10.525L270,10.525L270,8.525ZM310,8.525L308,8.525L308,10.525L310,10.525L310,8.525ZM350,8.525L348,8.525L348,10.525L350,10.525L350,8.525ZM390,8.525L388,8.525L388,10.525L390,10.525L390,8.525ZM430,8.525L428,8.525L428,10.525L430,10.525L430,8.525ZM470,8.525L468,8.525L468,10.525L470,10.525L470,8.525Z" style="fill:rgb(189,199,213);"/>
        </g>
        <g transform="matrix(0.707107,-0.707107,0.707107,0.707107,5.38166,364.775)">
            <g transform="matrix(1.0468,0,0,0.973318,-22.9022,1.20079)">
                <rect x="190.197" y="7.525" width="343.904" height="2.055" style="fill:rgb(237,242,247);"/>
            </g>
            <path d="M230,8.525L228,8.525L228,10.525L230,10.525L230,8.525ZM270,8.525L268,8.525L268,10.525L270,10.525L270,8.525ZM310,8.525L308,8.525L308,10.525L310,10.525L310,8.525ZM350,8.525L348,8.525L348,10.525L350,10.525L350,8.525ZM390,8.525L388,8.525L388,10.525L390,10.525L390,8.525ZM430,8.525L428,8.525L428,10.525L430,10.525L430,8.525ZM470,8.525L468,8.525L468,10.525L470,10.525L470,8.525Z" style="fill:rgb(189,199,213);"/>
        </g>
        <g transform="matrix(0.707107,-0.707107,0.707107,0.707107,61.3817,364.775)">
            <g transform="matrix(1.0468,0,0,0.973318,-22.9022,1.20079)">
                <rect x="190.197" y="7.525" width="343.904" height="2.055" style="fill:rgb(237,242,247);"/>
            </g>
            <path d="M230,8.525L228,8.525L228,10.525L230,10.525L230,8.525ZM270,8.525L268,8.525L268,10.525L270,10.525L270,8.525ZM310,8.525L308,8.525L308,10.525L310,10.525L310,8.525ZM350,8.525L348,8.525L348,10.525L350,10.525L350,8.525ZM390,8.525L388,8.525L388,10.525L390,10.525L390,8.525ZM430,8.525L428,8.525L428,10.525L430,10.525L430,8.525ZM470,8.525L468,8.525L468,10.525L470,10.525L470,8.525Z" style="fill:rgb(189,199,213);"/>
        </g>
        <g transform="matrix(0.707107,-0.707107,0.707107,0.707107,117.382,364.775)">
            <g transform="matrix(1.0468,0,0,0.973318,-22.9022,1.20079)">
                <rect x="190.197" y="7.525" width="343.904" height="2.055" style="fill:rgb(237,242,247);"/>
            </g>
            <path d="M230,8.525L228,8.525L228,10.525L230,10.525L230,8.525ZM270,8.525L268,8.525L268,10.525L270,10.525L270,8.525ZM310,8.525L308,8.525L308,10.525L310,10.525L310,8.525ZM350,8.525L348,8.525L348,10.525L350,10.525L350,8.525ZM390,8.525L388,8.525L388,10.525L390,10.525L390,8.525ZM430,8.525L428,8.525L428,10.525L430,10.525L430,8.525ZM470,8.525L468,8.525L468,10.525L470,10.525L470,8.525Z" style="fill:rgb(189,199,213);"/>
        </g>
        <g transform="matrix(0.707107,-0.707107,0.707107,0.707107,173.382,364.775)">
            <g transform="matrix(1.0468,0,0,0.973318,-22.9022,1.20079)">
                <rect x="190.197" y="7.525" width="343.904" height="2.055" style="fill:rgb(237,242,247);"/>
            </g>
            <path d="M230,8.525L228,8.525L228,10.525L230,10.525L230,8.525ZM270,8.525L268,8.525L268,10.525L270,10.525L270,8.525ZM310,8.525L308,8.525L308,10.525L310,10.525L310,8.525ZM350,8.525L348,8.525L348,10.525L350,10.525L350,8.525ZM390,8.525L388,8.525L388,10.525L390,10.525L390,8.525ZM430,8.525L428,8.525L428,10.525L430,10.525L430,8.525ZM470,8.525L468,8.525L468,10.525L470,10.525L470,8.525Z" style="fill:rgb(189,199,213);"/>
        </g>
        <g transform="matrix(0.707107,-0.707107,0.707107,0.707107,229.382,364.775)">
            <g transform="matrix(1.0468,0,0,0.973318,-22.9022,1.20079)">
                <rect x="190.197" y="7.525" width="343.904" height="2.055" style="fill:rgb(237,242,247);"/>
            </g>
            <path d="M230,8.525L228,8.525L228,10.525L230,10.525L230,8.525ZM270,8.525L268,8.525L268,10.525L270,10.525L270,8.525ZM310,8.525L308,8.525L308,10.525L310,10.525L310,8.525ZM350,8.525L348,8.525L348,10.525L350,10.525L350,8.525ZM390,8.525L388,8.525L388,10.525L390,10.525L390,8.525ZM430,8.525L428,8.525L428,10.525L430,10.525L430,8.525ZM470,8.525L468,8.525L468,10.525L470,10.525L470,8.525Z" style="fill:rgb(189,199,213);"/>
        </g>
        <g transform="matrix(0.707107,-0.707107,0.707107,0.707107,285.382,364.775)">
            <g transform="matrix(1.0468,0,0,0.973318,-22.9022,1.20079)">
                <rect x="190.197" y="7.525" width="343.904" height="2.055" style="fill:rgb(237,242,247);"/>
            </g>
            <path d="M230,8.525L228,8.525L228,10.525L230,10.525L230,8.525ZM270,8.525L268,8.525L268,10.525L270,10.525L270,8.525ZM310,8.525L308,8.525L308,10.525L310,10.525L310,8.525ZM350,8.525L348,8.525L348,10.525L350,10.525L350,8.525ZM390,8.525L388,8.525L388,10.525L390,10.525L390,8.525ZM430,8.525L428,8.525L428,10.525L430,10.525L430,8.525ZM470,8.525L468,8.525L468,10.525L470,10.525L470,8.525Z" style="fill:rgb(189,199,213);"/>
        </g>
        <g transform="matrix(0.707107,-0.707107,0.707107,0.707107,341.382,364.775)">
            <g transform="matrix(1.0468,0,0,0.973318,-22.9022,1.20079)">
                <rect x="190.197" y="7.525" width="343.904" height="2.055" style="fill:rgb(237,242,247);"/>
            </g>
            <path d="M230,8.525L228,8.525L228,10.525L230,10.525L230,8.525ZM270,8.525L268,8.525L268,10.525L270,10.525L270,8.525ZM310,8.525L308,8.525L308,10.525L310,10.525L310,8.525ZM350,8.525L348,8.525L348,10.525L350,10.525L350,8.525ZM390,8.525L388,8.525L388,10.525L390,10.525L390,8.525ZM430,8.525L428,8.525L428,10.525L430,10.525L430,8.525ZM470,8.525L468,8.525L468,10.525L470,10.525L470,8.525Z" style="fill:rgb(189,199,213);"/>
        </g>
        <g transform="matrix(0.707107,-0.707107,0.707107,0.707107,397.382,364.775)">
            <g transform="matrix(1.0468,0,0,0.973318,-22.9022,1.20079)">
                <rect x="190.197" y="7.525" width="343.904" height="2.055" style="fill:rgb(237,242,247);"/>
            </g>
            <path d="M230,8.525L228,8.525L228,10.525L230,10.525L230,8.525ZM270,8.525L268,8.525L268,10.525L270,10.525L270,8.525ZM310,8.525L308,8.525L308,10.525L310,10.525L310,8.525ZM350,8.525L348,8.525L348,10.525L350,10.525L350,8.525ZM390,8.525L388,8.525L388,10.525L390,10.525L390,8.525ZM430,8.525L428,8.525L428,10.525L430,10.525L430,8.525ZM470,8.525L468,8.525L468,10.525L470,10.525L470,8.525Z" style="fill:rgb(189,199,213);"/>
        </g>
        <g transform="matrix(0.707107,-0.707107,0.707107,0.707107,453.382,364.775)">
            <g transform="matrix(1.0468,0,0,0.973318,-22.9022,1.20079)">
                <rect x="190.197" y="7.525" width="343.904" height="2.055" style="fill:rgb(237,242,247);"/>
            </g>
            <path d="M230,8.525L228,8.525L228,10.525L230,10.525L230,8.525ZM270,8.525L268,8.525L268,10.525L270,10.525L270,8.525ZM310,8.525L308,8.525L308,10.525L310,10.525L310,8.525ZM350,8.525L348,8.525L348,10.525L350,10.525L350,8.525ZM390,8.525L388,8.525L388,10.525L390,10.525L390,8.525ZM430,8.525L428,8.525L428,10.525L430,10.525L430,8.525ZM470,8.525L468,8.525L468,10.525L470,10.525L470,8.525Z" style="fill:rgb(189,199,213);"/>
        </g>
        <g transform="matrix(0.707107,-0.707107,0.707107,0.707107,509.382,364.775)">
            <g transform="matrix(1.0468,0,0,0.973318,-22.9022,1.20079)">
                <rect x="190.197" y="7.525" width="343.904" height="2.055" style="fill:rgb(237,242,247);"/>
            </g>
            <path d="M230,8.525L228,8.525L228,10.525L230,10.525L230,8.525ZM270,8.525L268,8.525L268,10.525L270,10.525L270,8.525ZM310,8.525L308,8.525L308,10.525L310,10.525L310,8.525ZM350,8.525L348,8.525L348,10.525L350,10.525L350,8.525ZM390,8.525L388,8.525L388,10.525L390,10.525L390,8.525ZM430,8.525L428,8.525L428,10.525L430,10.525L430,8.525ZM470,8.525L468,8.525L468,10.525L470,10.525L470,8.525Z" style="fill:rgb(189,199,213);"/>
        </g>
        <g transform="matrix(0.707107,-0.707107,0.707107,0.707107,565.382,364.775)">
            <g transform="matrix(1.0468,0,0,0.973318,-22.9022,1.20079)">
                <rect x="190.197" y="7.525" width="343.904" height="2.055" style="fill:rgb(237,242,247);"/>
            </g>
            <path d="M230,8.525L228,8.525L228,10.525L230,10.525L230,8.525ZM270,8.525L268,8.525L268,10.525L270,10.525L270,8.525ZM310,8.525L308,8.525L308,10.525L310,10.525L310,8.525ZM350,8.525L348,8.525L348,10.525L350,10.525L350,8.525ZM390,8.525L388,8.525L388,10.525L390,10.525L390,8.525ZM430,8.525L428,8.525L428,10.525L430,10.525L430,8.525ZM470,8.525L468,8.525L468,10.525L470,10.525L470,8.525Z" style="fill:rgb(189,199,213);"/>
        </g>
        <g transform="matrix(0.707107,-0.707107,0.707107,0.707107,621.382,364.775)">
            <g transform="matrix(1.0468,0,0,0.973318,-22.9022,1.20079)">
                <rect x="190.197" y="7.525" width="343.904" height="2.055" style="fill:rgb(237,242,247);"/>
            </g>
            <path d="M230,8.525L228,8.525L228,10.525L230,10.525L230,8.525ZM270,8.525L268,8.525L268,10.525L270,10.525L270,8.525ZM310,8.525L308,8.525L308,10.525L310,10.525L310,8.525ZM350,8.525L348,8.525L348,10.525L350,10.525L350,8.525ZM390,8.525L388,8.525L388,10.525L390,10.525L390,8.525ZM430,8.525L428,8.525L428,10.525L430,10.525L430,8.525ZM470,8.525L468,8.525L468,10.525L470,10.525L470,8.525Z" style="fill:rgb(189,199,213);"/>
        </g>
        <g transform="matrix(0.707107,-0.707107,0.707107,0.707107,677.382,364.775)">
            <g transform="matrix(1.0468,0,0,0.973318,-22.9022,1.20079)">
                <rect x="190.197" y="7.525" width="343.904" height="2.055" style="fill:rgb(237,242,247);"/>
            </g>
            <path d="M230,8.525L228,8.525L228,10.525L230,10.525L230,8.525ZM270,8.525L268,8.525L268,10.525L270,10.525L270,8.525ZM310,8.525L308,8.525L308,10.525L310,10.525L310,8.525ZM350,8.525L348,8.525L348,10.525L350,10.525L350,8.525ZM390,8.525L388,8.525L388,10.525L390,10.525L390,8.525ZM430,8.525L428,8.525L428,10.525L430,10.525L430,8.525ZM470,8.525L468,8.525L468,10.525L470,10.525L470,8.525Z" style="fill:rgb(189,199,213);"/>
        </g>
    </g>
    <g transform="matrix(2.97065,0,0,2.97065,263.12,59.5142)">
        <path d="M15.985,-0.03C24.824,-0.03 32,7.146 32,15.985C32,24.823 24.824,32 15.985,32C7.147,32 -0.029,24.823 -0.029,15.985C-0.029,7.146 7.147,-0.03 15.985,-0.03ZM15.985,1.971C23.721,1.971 29.999,8.251 29.999,15.985C29.999,23.72 23.721,30 15.985,30C8.25,30 1.97,23.72 1.97,15.985C1.97,8.251 8.25,1.971 15.985,1.971ZM22.472,24.911C20.655,26.232 18.419,27.012 16.003,27.012C13.578,27.012 11.336,26.227 9.516,24.897L10.839,23.385C12.302,24.41 14.083,25.012 16.003,25.012C17.915,25.012 19.689,24.415 21.148,23.398L22.472,24.911ZM24.051,20.013C24.658,18.801 25,17.433 25,15.985C25,13.65 24.11,11.52 22.65,9.918L23.974,8.405C25.849,10.38 27,13.049 27,15.985C27,17.886 26.517,19.676 25.668,21.237C25.765,21.472 25.819,21.73 25.819,22C25.819,23.104 24.922,24 23.819,24C22.715,24 21.819,23.104 21.819,22C21.819,20.896 22.715,20 23.819,20C23.897,20 23.975,20.005 24.051,20.013ZM6.214,10.9C6.077,10.629 6,10.324 6,10C6,8.896 6.896,8 8,8C9.104,8 10,8.896 10,10C10,11.104 9.104,12 8,12C7.966,12 7.933,11.999 7.899,11.997C7.304,13.2 6.97,14.554 6.97,15.985C6.97,18.336 7.872,20.478 9.348,22.083L8.025,23.596C6.133,21.617 4.97,18.936 4.97,15.985C4.97,14.152 5.419,12.422 6.214,10.9ZM15.985,10.97C18.753,10.97 21,13.217 21,15.985C21,18.753 18.753,21 15.985,21C13.217,21 10.97,18.753 10.97,15.985C10.97,13.217 13.217,10.97 15.985,10.97ZM15.985,12.97C17.649,12.97 19,14.321 19,15.985C19,17.649 17.649,19 15.985,19C14.321,19 12.97,17.649 12.97,15.985C12.97,14.321 14.321,12.97 15.985,12.97ZM10.855,8.628L9.532,7.116C11.349,5.793 13.586,5.013 16.003,5.013C18.412,5.013 20.642,5.788 22.456,7.103L21.132,8.615C19.676,7.605 17.908,7.013 16.003,7.013C14.09,7.013 12.315,7.61 10.855,8.628Z" style="fill:rgb(38,38,38);"/>
    </g>
    <path d="M518.366,108.312C517.816,108.539 517.154,108.797 516.378,109.088C515.603,109.379 514.771,109.613 513.882,109.791C512.993,109.968 512.097,110.057 511.192,110.057C509.996,110.057 508.898,109.849 507.896,109.433C506.894,109.017 506.094,108.352 505.496,107.44C504.899,106.527 504.6,105.335 504.6,103.863L504.6,89.408L501.255,89.408L501.255,84.416L504.6,84.416L504.6,76.175L511.095,76.175L511.095,84.416L516.427,84.416L516.427,89.408L511.095,89.408L511.095,101.656C511.127,102.517 511.37,103.138 511.822,103.521C512.274,103.904 512.84,104.095 513.519,104.095C514.197,104.095 514.86,103.982 515.506,103.756C516.152,103.53 516.669,103.336 517.057,103.174L518.366,108.312ZM460.054,110.057C457.986,110.057 456.128,109.714 454.48,109.027C452.832,108.339 451.426,107.381 450.263,106.15C449.099,104.92 448.203,103.522 447.572,101.956C446.942,100.39 446.627,98.744 446.627,97.018C446.627,94.654 447.169,92.489 448.251,90.523C449.334,88.558 450.877,86.984 452.88,85.802C454.884,84.619 457.259,84.028 460.006,84.028C462.752,84.028 465.111,84.626 467.082,85.821C469.054,87.017 470.524,88.584 471.493,90.523L465.144,92.462C464.594,91.525 463.867,90.806 462.962,90.305C462.058,89.804 461.056,89.554 459.957,89.554C458.729,89.554 457.606,89.863 456.588,90.481C455.57,91.099 454.771,91.97 454.189,93.096C453.607,94.221 453.316,95.529 453.316,97.019C453.316,98.477 453.615,99.769 454.213,100.894C454.811,102.019 455.611,102.907 456.613,103.557C457.614,104.207 458.729,104.531 459.957,104.531C460.733,104.531 461.468,104.402 462.163,104.144C462.857,103.885 463.479,103.53 464.029,103.077C464.578,102.625 464.982,102.108 465.24,101.526L471.59,103.465C471.009,104.725 470.16,105.856 469.046,106.858C467.931,107.86 466.622,108.644 465.119,109.209C463.617,109.775 461.928,110.057 460.054,110.057ZM473.82,102.155C473.82,100.527 474.281,99.098 475.201,97.868C476.122,96.639 477.407,95.689 479.055,95.019C480.703,94.348 482.593,94.013 484.726,94.013C485.793,94.013 486.875,94.094 487.974,94.255C489.073,94.417 490.026,94.676 490.834,95.031L490.834,93.68C490.834,92.093 490.357,90.872 489.404,90.015C488.45,89.158 487.037,88.73 485.162,88.73C483.773,88.73 482.448,88.972 481.188,89.457C479.927,89.941 478.603,90.652 477.213,91.589L475.129,87.324C476.809,86.225 478.53,85.401 480.291,84.852C482.052,84.303 483.902,84.028 485.841,84.028C489.46,84.028 492.28,84.92 494.299,86.704C496.319,88.488 497.329,91.037 497.329,94.349L497.329,102.33C497.329,102.999 497.45,103.477 497.692,103.764C497.935,104.05 498.331,104.226 498.88,104.289L498.88,109.573C498.298,109.67 497.773,109.75 497.305,109.815C496.836,109.88 496.44,109.912 496.117,109.912C494.825,109.912 493.847,109.621 493.185,109.039C492.522,108.458 492.11,107.747 491.949,106.907L491.803,105.598C490.704,107.02 489.331,108.118 487.683,108.894C486.035,109.67 484.355,110.057 482.642,110.057C480.962,110.057 479.451,109.714 478.11,109.028C476.769,108.341 475.719,107.399 474.959,106.202C474.2,105.004 473.82,103.655 473.82,102.155ZM430.971,110.057C428.935,110.057 427.093,109.714 425.445,109.027C423.797,108.34 422.391,107.397 421.228,106.199C420.065,105 419.168,103.626 418.538,102.076C417.908,100.527 417.593,98.889 417.593,97.164C417.593,94.767 418.134,92.578 419.216,90.596C420.299,88.614 421.85,87.024 423.87,85.826C425.889,84.627 428.273,84.028 431.019,84.028C433.798,84.028 436.174,84.628 438.145,85.828C440.116,87.028 441.627,88.613 442.677,90.581C443.727,92.549 444.252,94.67 444.252,96.943C444.252,97.326 444.236,97.718 444.204,98.118C444.171,98.519 444.139,98.847 444.107,99.103L424.476,99.103C424.605,100.365 424.985,101.47 425.615,102.418C426.245,103.365 427.053,104.083 428.038,104.573C429.024,105.062 430.082,105.307 431.213,105.307C432.506,105.307 433.726,104.992 434.873,104.362C436.02,103.732 436.804,102.9 437.224,101.866L442.798,103.417C442.184,104.709 441.303,105.856 440.156,106.858C439.009,107.86 437.66,108.644 436.109,109.209C434.558,109.775 432.845,110.057 430.971,110.057ZM571.685,110.057C569.649,110.057 567.807,109.714 566.159,109.027C564.511,108.34 563.105,107.397 561.942,106.199C560.779,105 559.882,103.626 559.252,102.076C558.622,100.527 558.307,98.889 558.307,97.164C558.307,94.767 558.848,92.578 559.93,90.596C561.013,88.614 562.564,87.024 564.584,85.826C566.603,84.627 568.987,84.028 571.733,84.028C574.512,84.028 576.887,84.628 578.859,85.828C580.83,87.028 582.341,88.613 583.391,90.581C584.441,92.549 584.966,94.67 584.966,96.943C584.966,97.326 584.95,97.718 584.918,98.118C584.885,98.519 584.853,98.847 584.821,99.103L565.19,99.103C565.319,100.365 565.699,101.47 566.329,102.418C566.959,103.365 567.767,104.083 568.752,104.573C569.738,105.062 570.796,105.307 571.927,105.307C573.22,105.307 574.44,104.992 575.587,104.362C576.734,103.732 577.518,102.9 577.938,101.866L583.512,103.417C582.898,104.709 582.017,105.856 580.87,106.858C579.723,107.86 578.374,108.644 576.823,109.209C575.272,109.775 573.559,110.057 571.685,110.057ZM388.461,109.573L388.461,75.158L403.681,75.158C405.265,75.158 406.727,75.481 408.068,76.127C409.409,76.773 410.572,77.646 411.558,78.744C412.543,79.843 413.303,81.071 413.836,82.428C414.369,83.786 414.636,85.175 414.636,86.597C414.636,88.051 414.385,89.449 413.885,90.79C413.384,92.131 412.665,93.302 411.728,94.304C410.79,95.306 409.692,96.081 408.431,96.631L416.284,109.573L408.916,109.573L401.839,98.036L395.15,98.036L395.15,109.573L388.461,109.573ZM521.759,109.573L521.759,84.173L528.254,84.173L528.254,109.573L521.759,109.573ZM540.954,109.573L531.599,84.416L538.336,84.416L544.734,103.716L551.181,84.416L557.337,84.416L548.031,109.573L540.954,109.573ZM489.622,103.417C489.977,103.038 490.268,102.66 490.494,102.282C490.721,101.905 490.834,101.558 490.834,101.243L490.834,98.738C490.058,98.423 489.218,98.178 488.313,98.005C487.408,97.832 486.552,97.745 485.744,97.745C484.064,97.745 482.682,98.1 481.6,98.809C480.517,99.518 479.976,100.455 479.976,101.621C479.976,102.251 480.154,102.85 480.509,103.417C480.865,103.984 481.382,104.44 482.06,104.787C482.739,105.134 483.547,105.307 484.484,105.307C485.453,105.307 486.407,105.126 487.344,104.764C488.281,104.401 489.04,103.952 489.622,103.417ZM424.33,94.983L437.612,94.983C437.482,93.719 437.119,92.622 436.521,91.69C435.923,90.759 435.139,90.032 434.17,89.511C433.201,88.99 432.118,88.73 430.922,88.73C429.759,88.73 428.701,88.99 427.747,89.511C426.794,90.032 426.019,90.759 425.421,91.69C424.823,92.622 424.459,93.719 424.33,94.983ZM565.044,94.983L578.325,94.983C578.196,93.719 577.833,92.622 577.235,91.69C576.637,90.759 575.853,90.032 574.884,89.511C573.914,88.99 572.832,88.73 571.636,88.73C570.473,88.73 569.415,88.99 568.461,89.511C567.508,90.032 566.733,90.759 566.135,91.69C565.537,92.622 565.173,93.719 565.044,94.983ZM395.15,92.171L403.536,92.171C404.376,92.171 405.119,91.921 405.765,91.42C406.412,90.919 406.929,90.248 407.317,89.408C407.704,88.568 407.898,87.631 407.898,86.597C407.898,85.498 407.672,84.537 407.22,83.713C406.767,82.889 406.194,82.234 405.499,81.75C404.804,81.265 404.053,81.023 403.245,81.023L395.15,81.023L395.15,92.171ZM521.759,80.635L521.759,74.188L528.254,74.188L528.254,80.635L521.759,80.635Z" style="fill:rgb(38,38,38);fill-rule:nonzero;"/>
    <path d="M503.927,128.037L505.009,128.037L505.009,137.833C505.009,138.249 505.083,138.521 505.231,138.649C505.38,138.777 505.56,138.841 505.772,138.841C505.963,138.841 506.154,138.82 506.345,138.778C506.536,138.735 506.701,138.693 506.839,138.65L507.03,139.525C506.828,139.61 506.581,139.679 506.29,139.732C505.998,139.785 505.746,139.812 505.534,139.812C505.046,139.812 504.656,139.668 504.364,139.38C504.072,139.092 503.927,138.697 503.927,138.196L503.927,128.037ZM456.491,139.812C455.897,139.812 455.346,139.698 454.836,139.471C454.327,139.244 453.887,138.932 453.516,138.536C453.144,138.139 452.855,137.682 452.648,137.164C452.442,136.646 452.338,136.092 452.338,135.5C452.338,134.731 452.516,134.026 452.871,133.383C453.227,132.741 453.717,132.228 454.343,131.843C454.969,131.459 455.68,131.267 456.475,131.267C457.292,131.267 458.006,131.462 458.616,131.852C459.226,132.242 459.706,132.755 460.056,133.393C460.406,134.03 460.581,134.728 460.581,135.487L460.581,135.732C460.581,135.811 460.576,135.871 460.565,135.913L453.468,135.913C453.521,136.504 453.688,137.03 453.969,137.489C454.25,137.948 454.616,138.312 455.067,138.581C455.518,138.85 456.009,138.984 456.539,138.984C457.08,138.984 457.592,138.847 458.075,138.571C458.557,138.295 458.894,137.934 459.085,137.489L460.024,137.743C459.854,138.136 459.594,138.491 459.244,138.809C458.894,139.128 458.483,139.374 458.011,139.549C457.539,139.724 457.032,139.812 456.491,139.812ZM408.244,139.812C407.65,139.812 407.099,139.698 406.59,139.471C406.08,139.244 405.64,138.932 405.269,138.536C404.898,138.139 404.608,137.682 404.402,137.164C404.195,136.646 404.091,136.092 404.091,135.5C404.091,134.731 404.269,134.026 404.624,133.383C404.98,132.741 405.47,132.228 406.096,131.843C406.722,131.459 407.433,131.267 408.229,131.267C409.045,131.267 409.759,131.462 410.369,131.852C410.979,132.242 411.459,132.755 411.809,133.393C412.159,134.03 412.334,134.728 412.334,135.487L412.334,135.732C412.334,135.811 412.329,135.871 412.318,135.913L405.221,135.913C405.274,136.504 405.441,137.03 405.722,137.489C406.003,137.948 406.369,138.312 406.82,138.581C407.271,138.85 407.762,138.984 408.292,138.984C408.833,138.984 409.345,138.847 409.828,138.571C410.31,138.295 410.647,137.934 410.838,137.489L411.777,137.743C411.607,138.136 411.347,138.491 410.997,138.809C410.647,139.128 410.236,139.374 409.764,139.549C409.292,139.724 408.785,139.812 408.244,139.812ZM461.583,137.282C461.583,136.765 461.732,136.32 462.029,135.946C462.326,135.571 462.737,135.281 463.262,135.076C463.787,134.87 464.395,134.768 465.084,134.768C465.487,134.768 465.906,134.799 466.341,134.863C466.776,134.927 467.163,135.022 467.503,135.15L467.503,134.451C467.503,133.756 467.296,133.202 466.882,132.791C466.468,132.38 465.896,132.174 465.164,132.174C464.718,132.174 464.281,132.256 463.851,132.421C463.421,132.585 462.973,132.826 462.506,133.145L462.093,132.381C462.634,132.009 463.164,131.731 463.684,131.545C464.204,131.36 464.734,131.267 465.275,131.267C466.293,131.267 467.1,131.557 467.694,132.137C468.288,132.716 468.585,133.518 468.585,134.54L468.585,138.351C468.585,138.498 468.617,138.606 468.68,138.675C468.744,138.743 468.845,138.783 468.983,138.794L468.983,139.653C468.866,139.663 468.765,139.674 468.68,139.685C468.595,139.695 468.532,139.695 468.489,139.685C468.224,139.674 468.023,139.589 467.885,139.43C467.747,139.271 467.673,139.101 467.662,138.921L467.646,138.316C467.275,138.794 466.792,139.162 466.198,139.422C465.604,139.682 464.999,139.812 464.384,139.812C463.854,139.812 463.373,139.699 462.944,139.472C462.514,139.245 462.18,138.94 461.941,138.555C461.703,138.17 461.583,137.746 461.583,137.282ZM484.354,139.319C484.269,139.35 484.137,139.409 483.956,139.494C483.776,139.579 483.559,139.653 483.304,139.716C483.049,139.78 482.774,139.812 482.477,139.812C482.169,139.812 481.88,139.753 481.609,139.636C481.339,139.519 481.124,139.341 480.965,139.101C480.806,138.861 480.726,138.566 480.726,138.214L480.726,132.253L479.58,132.253L479.58,131.394L480.726,131.394L480.726,128.594L481.808,128.594L481.808,131.394L483.718,131.394L483.718,132.253L481.808,132.253L481.808,137.914C481.829,138.212 481.938,138.436 482.134,138.586C482.331,138.735 482.556,138.809 482.811,138.809C483.108,138.809 483.378,138.759 483.622,138.658C483.866,138.557 484.015,138.486 484.068,138.443L484.354,139.319ZM494.347,136.245L494.347,131.394L495.429,131.394L495.429,136.053C495.429,136.993 495.591,137.695 495.915,138.16C496.238,138.625 496.718,138.857 497.355,138.857C497.779,138.857 498.19,138.765 498.588,138.58C498.986,138.396 499.338,138.132 499.646,137.789C499.954,137.446 500.187,137.048 500.346,136.594L500.346,131.394L501.428,131.394L501.428,138.35C501.428,138.498 501.46,138.606 501.524,138.675C501.587,138.743 501.683,138.783 501.81,138.794L501.81,139.653C501.683,139.663 501.582,139.671 501.508,139.677C501.434,139.682 501.365,139.685 501.301,139.685C501.089,139.663 500.906,139.579 500.752,139.431C500.598,139.283 500.516,139.103 500.505,138.892L500.474,137.783C500.113,138.417 499.622,138.914 499.002,139.273C498.381,139.632 497.71,139.812 496.989,139.812C496.119,139.812 495.461,139.511 495.016,138.908C494.57,138.306 494.347,137.418 494.347,136.245ZM434.071,139.812C433.392,139.812 432.76,139.701 432.177,139.478C431.593,139.255 431.09,138.916 430.665,138.459L431.111,137.696C431.578,138.13 432.047,138.446 432.519,138.642C432.991,138.839 433.492,138.937 434.023,138.937C434.67,138.937 435.195,138.808 435.598,138.55C436.001,138.293 436.203,137.922 436.203,137.438C436.203,137.111 436.105,136.861 435.908,136.687C435.712,136.513 435.431,136.37 435.065,136.259C434.699,136.149 434.261,136.03 433.752,135.903C433.179,135.745 432.699,135.579 432.312,135.405C431.925,135.231 431.633,135.009 431.437,134.74C431.241,134.471 431.143,134.121 431.143,133.688C431.143,133.15 431.278,132.704 431.548,132.351C431.819,131.998 432.19,131.729 432.662,131.544C433.134,131.359 433.662,131.267 434.246,131.267C434.882,131.267 435.444,131.368 435.932,131.569C436.42,131.771 436.818,132.052 437.126,132.413L436.601,133.145C436.304,132.805 435.951,132.553 435.542,132.389C435.134,132.224 434.681,132.142 434.182,132.142C433.842,132.142 433.519,132.187 433.211,132.276C432.904,132.366 432.652,132.514 432.455,132.719C432.259,132.925 432.161,133.207 432.161,133.565C432.161,133.86 432.235,134.09 432.384,134.253C432.532,134.417 432.755,134.554 433.052,134.664C433.349,134.775 433.715,134.894 434.15,135.02C434.776,135.189 435.322,135.36 435.789,135.534C436.256,135.708 436.617,135.932 436.871,136.206C437.126,136.48 437.253,136.865 437.253,137.361C437.253,138.13 436.961,138.731 436.378,139.163C435.794,139.596 435.025,139.812 434.071,139.812ZM470.844,136.245L470.844,131.394L471.926,131.394L471.926,136.053C471.926,136.993 472.088,137.695 472.412,138.16C472.735,138.625 473.215,138.857 473.852,138.857C474.276,138.857 474.687,138.765 475.085,138.58C475.483,138.396 475.836,138.132 476.143,137.789C476.451,137.446 476.684,137.048 476.843,136.594L476.843,131.394L477.926,131.394L477.926,138.35C477.926,138.498 477.957,138.606 478.021,138.675C478.085,138.743 478.18,138.783 478.307,138.794L478.307,139.653C478.18,139.663 478.079,139.671 478.005,139.677C477.931,139.682 477.862,139.685 477.798,139.685C477.586,139.663 477.403,139.579 477.249,139.431C477.095,139.283 477.013,139.103 477.003,138.892L476.971,137.783C476.61,138.417 476.119,138.914 475.499,139.273C474.878,139.632 474.207,139.812 473.486,139.812C472.616,139.812 471.958,139.511 471.513,138.908C471.067,138.306 470.844,137.418 470.844,136.245ZM418.063,139.812C417.415,139.812 416.816,139.645 416.264,139.311C415.713,138.977 415.283,138.555 414.975,138.046L414.975,139.653L414.005,139.653L414.005,128.037L415.087,128.037L415.087,133.145C415.458,132.582 415.904,132.129 416.424,131.784C416.943,131.439 417.548,131.267 418.238,131.267C418.821,131.267 419.343,131.388 419.805,131.631C420.266,131.874 420.662,132.198 420.99,132.604C421.319,133.01 421.569,133.469 421.738,133.981C421.908,134.492 421.993,135.017 421.993,135.555C421.993,136.135 421.895,136.679 421.699,137.185C421.502,137.691 421.224,138.142 420.863,138.538C420.502,138.934 420.086,139.245 419.614,139.472C419.142,139.698 418.625,139.812 418.063,139.812ZM447.151,139.812C446.504,139.812 445.904,139.645 445.353,139.311C444.801,138.977 444.371,138.555 444.064,138.046L444.064,139.653L443.093,139.653L443.093,128.037L444.175,128.037L444.175,133.145C444.546,132.582 444.992,132.129 445.512,131.784C446.031,131.439 446.636,131.267 447.326,131.267C447.909,131.267 448.432,131.388 448.893,131.631C449.355,131.874 449.75,132.198 450.079,132.604C450.407,133.01 450.657,133.469 450.826,133.981C450.996,134.492 451.081,135.017 451.081,135.555C451.081,136.135 450.983,136.679 450.787,137.185C450.59,137.691 450.312,138.142 449.951,138.538C449.591,138.934 449.174,139.245 448.702,139.472C448.23,139.698 447.713,139.812 447.151,139.812ZM393.557,128.434L394.607,128.434L396.199,132.444L397.806,128.434L398.872,128.434L396.899,133.256L399.063,138.364L403.152,128.355L404.362,128.355L399.572,139.653L398.586,139.653L396.215,134.067L393.828,139.653L392.857,139.653L388.083,128.355L389.277,128.355L393.382,138.364L395.53,133.256L393.557,128.434ZM427.881,139.653L427.881,131.362L428.963,131.362L428.963,139.653L427.881,139.653ZM485.707,139.653L485.707,131.362L486.789,131.362L486.789,139.653L485.707,139.653ZM489.573,139.653L489.573,132.222L488.428,132.222L488.428,131.362L489.573,131.362L489.573,131.14C489.573,130.461 489.672,129.877 489.868,129.389C490.064,128.901 490.345,128.527 490.711,128.267C491.077,128.007 491.51,127.878 492.008,127.878C492.337,127.878 492.655,127.925 492.963,128.021C493.271,128.116 493.536,128.243 493.758,128.403L493.424,129.182C493.286,129.066 493.106,128.975 492.883,128.912C492.661,128.848 492.438,128.816 492.215,128.816C491.716,128.816 491.332,129.013 491.061,129.405C490.791,129.798 490.656,130.365 490.656,131.108L490.656,131.362L492.947,131.362L492.947,132.222L490.656,132.222L490.656,139.653L489.573,139.653ZM467.137,137.912C467.253,137.765 467.344,137.623 467.407,137.486C467.471,137.35 467.503,137.229 467.503,137.124L467.503,135.925C467.142,135.789 466.768,135.684 466.381,135.61C465.994,135.536 465.604,135.5 465.211,135.5C464.437,135.5 463.811,135.652 463.334,135.957C462.856,136.262 462.618,136.677 462.618,137.203C462.618,137.507 462.697,137.794 462.856,138.062C463.015,138.33 463.249,138.551 463.556,138.724C463.864,138.898 464.225,138.984 464.639,138.984C465.158,138.984 465.644,138.885 466.095,138.685C466.545,138.485 466.893,138.228 467.137,137.912ZM446.896,138.857C447.342,138.857 447.755,138.768 448.137,138.589C448.519,138.41 448.848,138.162 449.124,137.846C449.4,137.53 449.612,137.175 449.76,136.78C449.909,136.385 449.983,135.976 449.983,135.555C449.983,134.976 449.858,134.431 449.609,133.92C449.36,133.409 449.015,132.998 448.575,132.688C448.135,132.377 447.617,132.222 447.023,132.222C446.599,132.222 446.204,132.316 445.838,132.506C445.472,132.696 445.148,132.946 444.867,133.257C444.586,133.567 444.355,133.907 444.175,134.276L444.175,136.835C444.217,137.119 444.329,137.385 444.509,137.633C444.69,137.88 444.915,138.094 445.185,138.273C445.456,138.452 445.74,138.594 446.037,138.699C446.334,138.804 446.62,138.857 446.896,138.857ZM417.808,138.857C418.253,138.857 418.667,138.768 419.049,138.589C419.431,138.41 419.76,138.162 420.036,137.846C420.311,137.53 420.524,137.175 420.672,136.78C420.821,136.385 420.895,135.976 420.895,135.555C420.895,134.976 420.77,134.431 420.521,133.92C420.272,133.409 419.927,132.998 419.487,132.688C419.046,132.377 418.529,132.222 417.935,132.222C417.511,132.222 417.116,132.316 416.75,132.506C416.384,132.696 416.06,132.946 415.779,133.257C415.498,133.567 415.267,133.907 415.087,134.276L415.087,136.835C415.129,137.119 415.241,137.385 415.421,137.633C415.601,137.88 415.827,138.094 416.097,138.273C416.368,138.452 416.652,138.594 416.949,138.699C417.246,138.804 417.532,138.857 417.808,138.857ZM405.189,135.134L411.316,135.134C411.273,134.535 411.111,134.01 410.83,133.559C410.549,133.107 410.183,132.753 409.732,132.496C409.281,132.239 408.785,132.11 408.244,132.11C407.703,132.11 407.21,132.239 406.765,132.496C406.319,132.753 405.956,133.11 405.675,133.567C405.393,134.023 405.232,134.546 405.189,135.134ZM453.436,135.134L459.562,135.134C459.52,134.535 459.358,134.01 459.077,133.559C458.796,133.107 458.43,132.753 457.979,132.496C457.528,132.239 457.032,132.11 456.491,132.11C455.95,132.11 455.457,132.239 455.011,132.496C454.566,132.753 454.203,133.11 453.921,133.567C453.64,134.023 453.479,134.546 453.436,135.134ZM485.707,129.628L485.707,128.037L486.789,128.037L486.789,129.628L485.707,129.628ZM427.881,129.628L427.881,128.037L428.963,128.037L428.963,129.628L427.881,129.628Z" style="fill:rgb(38,38,38);fill-rule:nonzero;"/>
</svg>
