<?xml version="1.0" encoding="UTF-8" standalone="no"?>
<!DOCTYPE svg PUBLIC "-//W3C//DTD SVG 1.1//EN" "http://www.w3.org/Graphics/SVG/1.1/DTD/svg11.dtd">
<svg width="100%" height="100%" viewBox="0 0 960 200" version="1.1" xmlns="http://www.w3.org/2000/svg" xmlns:xlink="http://www.w3.org/1999/xlink" xml:space="preserve" xmlns:serif="http://www.serif.com/" style="fill-rule:evenodd;clip-rule:evenodd;stroke-linejoin:round;stroke-miterlimit:2;">
    <g transform="matrix(5.61991,0,0,5.61973,10.163,10.1686)">
        <path d="M15.985,-0.03C24.824,-0.03 32,7.146 32,15.985C32,24.823 24.824,32 15.985,32C7.147,32 -0.029,24.823 -0.029,15.985C-0.029,7.146 7.147,-0.03 15.985,-0.03ZM15.985,1.971C23.721,1.971 29.999,8.251 29.999,15.985C29.999,23.72 23.721,30 15.985,30C8.25,30 1.97,23.72 1.97,15.985C1.97,8.251 8.25,1.971 15.985,1.971ZM22.472,24.911C20.655,26.232 18.419,27.012 16.003,27.012C13.578,27.012 11.336,26.227 9.516,24.897L10.839,23.385C12.302,24.41 14.083,25.012 16.003,25.012C17.915,25.012 19.689,24.415 21.148,23.398L22.472,24.911ZM24.051,20.013C24.658,18.801 25,17.433 25,15.985C25,13.65 24.11,11.52 22.65,9.918L23.974,8.405C25.849,10.38 27,13.049 27,15.985C27,17.886 26.517,19.676 25.668,21.237C25.765,21.472 25.819,21.73 25.819,22C25.819,23.104 24.922,24 23.819,24C22.715,24 21.819,23.104 21.819,22C21.819,20.896 22.715,20 23.819,20C23.897,20 23.975,20.005 24.051,20.013ZM6.214,10.9C6.077,10.629 6,10.324 6,10C6,8.896 6.896,8 8,8C9.104,8 10,8.896 10,10C10,11.104 9.104,12 8,12C7.966,12 7.933,11.999 7.899,11.997C7.304,13.2 6.97,14.554 6.97,15.985C6.97,18.336 7.872,20.478 9.348,22.083L8.025,23.596C6.133,21.617 4.97,18.936 4.97,15.985C4.97,14.152 5.419,12.422 6.214,10.9ZM15.985,10.97C18.753,10.97 21,13.217 21,15.985C21,18.753 18.753,21 15.985,21C13.217,21 10.97,18.753 10.97,15.985C10.97,13.217 13.217,10.97 15.985,10.97ZM15.985,12.97C17.649,12.97 19,14.321 19,15.985C19,17.649 17.649,19 15.985,19C14.321,19 12.97,17.649 12.97,15.985C12.97,14.321 14.321,12.97 15.985,12.97ZM10.855,8.628L9.532,7.116C11.349,5.793 13.586,5.013 16.003,5.013C18.412,5.013 20.642,5.788 22.456,7.103L21.132,8.615C19.676,7.605 17.908,7.013 16.003,7.013C14.09,7.013 12.315,7.61 10.855,8.628Z" style="fill:rgb(38,38,38);"/>
    </g>
    <g transform="matrix(1.13789,0,0,1.13789,-0.757399,14.4642)">
        <path d="M223.887,121.362L223.887,30.263L264.175,30.263C268.367,30.263 272.237,31.118 275.787,32.829C279.337,34.54 282.416,36.849 285.025,39.758C287.634,42.666 289.644,45.917 291.056,49.509C292.467,53.102 293.173,56.78 293.173,60.544C293.173,64.393 292.51,68.092 291.184,71.642C289.858,75.192 287.955,78.293 285.474,80.945C282.994,83.596 280.085,85.649 276.749,87.103L297.535,121.362L278.033,121.362L259.3,90.824L241.593,90.824L241.593,121.362L223.887,121.362ZM241.593,75.299L263.79,75.299C266.014,75.299 267.982,74.636 269.693,73.31C271.403,71.985 272.772,70.21 273.798,67.986C274.825,65.762 275.338,63.281 275.338,60.544C275.338,57.635 274.739,55.091 273.542,52.909C272.344,50.728 270.826,48.996 268.987,47.713C267.148,46.43 265.159,45.788 263.02,45.788L241.593,45.788L241.593,75.299Z" style="fill:rgb(38,38,38);fill-rule:nonzero;"/>
        <path d="M336.413,122.645C331.024,122.645 326.148,121.736 321.786,119.917C317.423,118.099 313.702,115.604 310.623,112.431C307.543,109.259 305.17,105.622 303.502,101.519C301.834,97.417 301,93.082 301,88.515C301,82.17 302.432,76.375 305.298,71.129C308.164,65.883 312.269,61.674 317.616,58.502C322.962,55.33 329.27,53.743 336.541,53.743C343.897,53.743 350.184,55.332 355.402,58.509C360.62,61.686 364.619,65.88 367.399,71.09C370.179,76.301 371.569,81.914 371.569,87.929C371.569,88.945 371.526,89.983 371.441,91.042C371.355,92.101 371.27,92.97 371.184,93.647L319.219,93.647C319.562,96.99 320.567,99.915 322.235,102.422C323.903,104.93 326.041,106.831 328.65,108.127C331.259,109.423 334.06,110.071 337.054,110.071C340.476,110.071 343.705,109.237 346.742,107.569C349.778,105.901 351.852,103.698 352.964,100.961L367.72,105.067C366.095,108.488 363.764,111.525 360.727,114.176C357.69,116.828 354.119,118.902 350.013,120.399C345.908,121.896 341.374,122.645 336.413,122.645ZM318.835,82.741L353.991,82.741C353.649,79.397 352.686,76.492 351.104,74.026C349.522,71.56 347.447,69.638 344.881,68.258C342.315,66.879 339.449,66.189 336.284,66.189C333.205,66.189 330.404,66.879 327.88,68.258C325.357,69.638 323.304,71.56 321.721,74.026C320.139,76.492 319.177,79.397 318.835,82.741Z" style="fill:rgb(38,38,38);fill-rule:nonzero;"/>
        <path d="M413.398,122.645C407.923,122.645 403.005,121.735 398.642,119.916C394.28,118.097 390.559,115.559 387.479,112.303C384.4,109.046 382.026,105.346 380.358,101.2C378.69,97.055 377.856,92.698 377.856,88.13C377.856,81.871 379.289,76.14 382.155,70.938C385.02,65.735 389.105,61.569 394.408,58.439C399.711,55.308 405.998,53.743 413.269,53.743C420.54,53.743 426.784,55.326 432.002,58.491C437.22,61.656 441.112,65.804 443.678,70.937L426.87,76.069C425.416,73.588 423.491,71.685 421.096,70.359C418.701,69.033 416.049,68.37 413.141,68.37C409.89,68.37 406.918,69.188 404.224,70.824C401.529,72.46 399.412,74.768 397.872,77.747C396.333,80.726 395.563,84.188 395.563,88.132C395.563,91.992 396.354,95.411 397.936,98.39C399.519,101.368 401.636,103.717 404.288,105.437C406.939,107.158 409.89,108.018 413.141,108.018C415.194,108.018 417.14,107.676 418.979,106.991C420.818,106.307 422.465,105.366 423.919,104.168C425.373,102.971 426.442,101.602 427.127,100.063L443.935,105.195C442.395,108.531 440.15,111.525 437.199,114.176C434.248,116.828 430.783,118.902 426.806,120.399C422.828,121.896 418.359,122.645 413.398,122.645Z" style="fill:rgb(38,38,38);fill-rule:nonzero;"/>
        <path d="M449.837,101.727C449.837,97.416 451.056,93.634 453.494,90.38C455.932,87.127 459.332,84.612 463.694,82.837C468.057,81.062 473.061,80.175 478.706,80.175C481.529,80.175 484.395,80.389 487.303,80.816C490.211,81.244 492.735,81.928 494.873,82.869L494.873,79.293C494.873,75.093 493.612,71.86 491.088,69.591C488.565,67.323 484.822,66.189 479.861,66.189C476.183,66.189 472.676,66.831 469.34,68.114C466.004,69.397 462.497,71.279 458.819,73.759L453.301,62.468C457.749,59.56 462.304,57.379 466.966,55.925C471.628,54.47 476.525,53.743 481.657,53.743C491.238,53.743 498.701,56.105 504.047,60.827C509.393,65.55 512.066,72.296 512.066,81.065L512.066,102.19C512.066,103.961 512.387,105.226 513.029,105.985C513.67,106.744 514.718,107.208 516.172,107.376L516.172,121.362C514.633,121.618 513.243,121.832 512.002,122.003C510.762,122.174 509.714,122.26 508.859,122.26C505.437,122.26 502.85,121.49 501.096,119.95C499.343,118.411 498.252,116.529 497.824,114.305L497.439,110.84C494.531,114.604 490.896,117.512 486.533,119.565C482.171,121.618 477.723,122.645 473.189,122.645C468.741,122.645 464.742,121.736 461.192,119.919C457.642,118.102 454.862,115.609 452.852,112.439C450.842,109.27 449.837,105.699 449.837,101.727ZM491.666,105.067C492.606,104.066 493.376,103.065 493.975,102.064C494.574,101.064 494.873,100.147 494.873,99.313L494.873,92.681C492.82,91.847 490.596,91.201 488.201,90.742C485.806,90.284 483.539,90.055 481.401,90.055C476.953,90.055 473.296,90.993 470.431,92.869C467.565,94.746 466.132,97.227 466.132,100.313C466.132,101.981 466.603,103.566 467.544,105.067C468.485,106.568 469.853,107.777 471.649,108.694C473.446,109.612 475.584,110.071 478.065,110.071C480.631,110.071 483.154,109.591 485.635,108.632C488.116,107.673 490.126,106.485 491.666,105.067Z" style="fill:rgb(38,38,38);fill-rule:nonzero;"/>
        <path d="M567.752,118.026C566.298,118.624 564.544,119.309 562.492,120.079C560.439,120.848 558.236,121.469 555.884,121.939C553.531,122.41 551.158,122.645 548.763,122.645C545.598,122.645 542.689,122.094 540.038,120.992C537.386,119.89 535.269,118.131 533.686,115.716C532.104,113.301 531.313,110.145 531.313,106.247L531.313,67.986L522.459,67.986L522.459,54.77L531.313,54.77L531.313,32.957L548.506,32.957L548.506,54.77L562.62,54.77L562.62,67.986L548.506,67.986L548.506,100.405C548.592,102.684 549.233,104.33 550.431,105.343C551.628,106.356 553.125,106.863 554.921,106.863C556.718,106.863 558.471,106.564 560.182,105.965C561.893,105.366 563.261,104.853 564.288,104.425L567.752,118.026Z" style="fill:rgb(38,38,38);fill-rule:nonzero;"/>
        <path d="M576.734,121.362L576.734,54.128L593.927,54.128L593.927,121.362L576.734,121.362ZM576.734,44.762L576.734,27.697L593.927,27.697L593.927,44.762L576.734,44.762Z" style="fill:rgb(38,38,38);fill-rule:nonzero;"/>
        <path d="M627.544,121.362L602.78,54.77L620.615,54.77L637.552,105.859L654.617,54.77L670.912,54.77L646.277,121.362L627.544,121.362Z" style="fill:rgb(38,38,38);fill-rule:nonzero;"/>
        <path d="M708.891,122.645C703.502,122.645 698.626,121.736 694.264,119.917C689.901,118.099 686.181,115.604 683.101,112.431C680.022,109.259 677.648,105.622 675.98,101.519C674.312,97.417 673.478,93.082 673.478,88.515C673.478,82.17 674.911,76.375 677.776,71.129C680.642,65.883 684.748,61.674 690.094,58.502C695.44,55.33 701.749,53.743 709.019,53.743C716.376,53.743 722.663,55.332 727.881,58.509C733.099,61.686 737.097,65.88 739.877,71.09C742.657,76.301 744.048,81.914 744.048,87.929C744.048,88.945 744.005,89.983 743.919,91.042C743.834,92.101 743.748,92.97 743.663,93.647L691.698,93.647C692.04,96.99 693.045,99.915 694.713,102.422C696.381,104.93 698.52,106.831 701.128,108.127C703.737,109.423 706.539,110.071 709.533,110.071C712.954,110.071 716.183,109.237 719.22,107.569C722.257,105.901 724.331,103.698 725.443,100.961L740.198,105.067C738.573,108.488 736.242,111.525 733.205,114.176C730.169,116.828 726.598,118.902 722.492,120.399C718.386,121.896 713.852,122.645 708.891,122.645ZM691.313,82.741L726.469,82.741C726.127,79.397 725.165,76.492 723.582,74.026C722,71.56 719.926,69.638 717.359,68.258C714.793,66.879 711.928,66.189 708.763,66.189C705.683,66.189 702.882,66.879 700.359,68.258C697.835,69.638 695.782,71.56 694.2,74.026C692.617,76.492 691.655,79.397 691.313,82.741Z" style="fill:rgb(38,38,38);fill-rule:nonzero;"/>
    </g>
</svg>
