<?xml version="1.0" encoding="UTF-8" standalone="no"?>
<!DOCTYPE svg PUBLIC "-//W3C//DTD SVG 1.1//EN" "http://www.w3.org/Graphics/SVG/1.1/DTD/svg11.dtd">
<svg width="100%" height="100%" viewBox="0 0 2732 2732" version="1.1" xmlns="http://www.w3.org/2000/svg" xmlns:xlink="http://www.w3.org/1999/xlink" xml:space="preserve" xmlns:serif="http://www.serif.com/" style="fill-rule:evenodd;clip-rule:evenodd;stroke-linejoin:round;stroke-miterlimit:2;">
    <g transform="matrix(0.995851,0,0,0.995802,5.66691,5.73473)">
        <g transform="matrix(37.6224,0,0,37.6224,764.592,764.599)">
            <path d="M8.012,8.389L9.335,9.901C7.867,11.505 6.97,13.641 6.97,15.985C6.97,18.336 7.872,20.478 9.348,22.083L8.025,23.596C6.133,21.617 4.97,18.936 4.97,15.985C4.97,13.042 6.127,10.366 8.012,8.389Z" style="fill:white;"/>
        </g>
        <g transform="matrix(37.6224,0,0,37.6224,764.592,764.599)">
            <path d="M23.974,8.405C25.849,10.38 27,13.049 27,15.985C27,18.928 25.843,21.603 23.961,23.579L22.637,22.067C24.104,20.463 25,18.328 25,15.985C25,13.65 24.11,11.52 22.65,9.918L23.974,8.405Z" style="fill:white;"/>
        </g>
        <g transform="matrix(37.6224,-2.1765e-19,-2.41724e-19,37.6224,764.607,1479.43)">
            <path d="M9.516,7.071C11.333,5.75 13.569,4.97 15.985,4.97C18.41,4.97 20.652,5.755 22.472,7.085L21.149,8.597C19.686,7.572 17.905,6.97 15.985,6.97C14.073,6.97 12.299,7.567 10.84,8.584L9.516,7.071Z" style="fill:white;"/>
        </g>
        <g transform="matrix(37.6224,2.1765e-19,2.41724e-19,37.6224,764.607,49.7634)">
            <path d="M21.133,23.385L22.456,24.897C20.639,26.22 18.402,27 15.985,27C13.576,27 11.346,26.225 9.532,24.91L10.856,23.398C12.312,24.408 14.08,25 15.985,25C17.898,25 19.673,24.403 21.133,23.385Z" style="fill:white;"/>
        </g>
        <g transform="matrix(60.0727,0,0,60.0727,399.039,404.055)">
            <path d="M16.096,5.983C21.632,5.983 26.126,10.477 26.126,16.013C26.126,21.548 21.632,26.043 16.096,26.043C10.561,26.043 6.067,21.548 6.067,16.013C6.067,10.477 10.561,5.983 16.096,5.983ZM16.096,7.236C20.941,7.236 24.873,11.169 24.873,16.013C24.873,20.857 20.941,24.79 16.096,24.79C11.252,24.79 7.319,20.857 7.319,16.013C7.319,11.169 11.252,7.236 16.096,7.236Z" style="fill:white;"/>
        </g>
        <g transform="matrix(18.8112,0,0,18.8112,1063.2,1064.78)">
            <path d="M16.096,5.983C21.632,5.983 26.126,10.477 26.126,16.013C26.126,21.548 21.632,26.043 16.096,26.043C10.561,26.043 6.067,21.548 6.067,16.013C6.067,10.477 10.561,5.983 16.096,5.983ZM16.096,9.983C19.424,9.983 22.126,12.685 22.126,16.013C22.126,19.341 19.424,22.043 16.096,22.043C12.768,22.043 10.067,19.341 10.067,16.013C10.067,12.685 12.768,9.983 16.096,9.983Z" style="fill:white;"/>
        </g>
        <g transform="matrix(37.6224,0,0,37.6224,764.592,764.599)">
            <circle cx="8" cy="10" r="2" style="fill:white;"/>
        </g>
        <g transform="matrix(37.5,0,0,37.6224,1360.46,1216.07)">
            <circle cx="8" cy="10" r="2" style="fill:white;"/>
        </g>
    </g>
</svg>
