<?xml version="1.0" encoding="UTF-8" standalone="no"?>
<!DOCTYPE svg PUBLIC "-//W3C//DTD SVG 1.1//EN" "http://www.w3.org/Graphics/SVG/1.1/DTD/svg11.dtd">
<svg width="100%" height="100%" viewBox="0 0 812 811" version="1.1" xmlns="http://www.w3.org/2000/svg" xmlns:xlink="http://www.w3.org/1999/xlink" xml:space="preserve" xmlns:serif="http://www.serif.com/" style="fill-rule:evenodd;clip-rule:evenodd;stroke-miterlimit:8;">
    <g transform="matrix(1,0,0,1,547.783,359.62)">
        <g transform="matrix(0.0336985,0,0,0.0336347,-552.366,-297.194)">
            <path d="M136,20344L6201,13336L24232,13336L18168,20344L136,20344Z" style="fill:white;fill-opacity:0.51;stroke:rgb(61,75,95);stroke-width:133.13px;"/>
        </g>
        <g transform="matrix(1,0,0,1,-617.188,-344.023)">
            <path d="M344.909,584L349.773,584L368.333,629.44L362.189,629.44L357.092,616.128L337.547,616.128L332.429,629.44L326.285,629.44L344.909,584ZM355.378,611.648L347.341,590.656L339.269,611.648L355.378,611.648Z" style="fill:rgb(38,50,56);fill-rule:nonzero;"/>
            <path d="M387.277,630.08C384.76,630.08 382.466,629.625 380.397,628.714C378.328,627.804 376.536,626.544 375.021,624.934C373.506,623.325 372.333,621.483 371.501,619.408C370.669,617.333 370.253,615.131 370.253,612.801C370.253,609.667 370.957,606.809 372.365,604.225C373.773,601.641 375.757,599.577 378.317,598.031C380.877,596.485 383.842,595.712 387.213,595.712C390.498,595.712 393.368,596.448 395.821,597.92C398.274,599.392 400.098,601.366 401.293,603.84L395.789,605.568C394.936,603.99 393.741,602.763 392.205,601.888C390.669,601.014 388.962,600.576 387.085,600.576C385.037,600.576 383.17,601.104 381.485,602.16C379.8,603.216 378.466,604.662 377.485,606.499C376.504,608.336 376.013,610.437 376.013,612.801C376.013,615.124 376.514,617.225 377.517,619.104C378.52,620.983 379.864,622.471 381.549,623.569C383.234,624.667 385.101,625.216 387.149,625.216C388.472,625.216 389.741,624.982 390.957,624.512C392.173,624.043 393.24,623.414 394.157,622.624C395.074,621.835 395.704,620.971 396.045,620.032L401.549,621.696C400.866,623.318 399.832,624.758 398.445,626.016C397.058,627.275 395.416,628.267 393.517,628.992C391.618,629.718 389.538,630.08 387.277,630.08Z" style="fill:rgb(38,50,56);fill-rule:nonzero;"/>
            <path d="M425.229,627.968C424.76,628.182 424.12,628.459 423.309,628.8C422.498,629.142 421.56,629.44 420.493,629.696C419.426,629.952 418.296,630.08 417.101,630.08C415.736,630.08 414.477,629.835 413.325,629.344C412.173,628.854 411.256,628.086 410.573,627.04C409.89,625.995 409.549,624.683 409.549,623.104L409.549,600.64L405.005,600.64L405.005,596.224L409.549,596.224L409.549,585.088L415.181,585.088L415.181,596.224L422.669,596.224L422.669,600.64L415.181,600.64L415.181,621.376C415.266,622.571 415.672,623.456 416.397,624.032C417.122,624.608 417.976,624.896 418.957,624.896C420.066,624.896 421.09,624.704 422.029,624.32C422.968,623.936 423.586,623.659 423.885,623.488L425.229,627.968Z" style="fill:rgb(38,50,56);fill-rule:nonzero;"/>
            <path d="M447.565,629.44L447.565,584L466.509,584C468.514,584 470.349,584.416 472.013,585.248C473.677,586.08 475.128,587.19 476.365,588.576C477.602,589.963 478.562,591.52 479.245,593.248C479.928,594.976 480.269,596.736 480.269,598.528C480.269,601.003 479.714,603.36 478.605,605.6C477.496,607.84 475.938,609.654 473.933,611.04C471.928,612.427 469.581,613.12 466.893,613.12L453.325,613.12L453.325,629.44L447.565,629.44ZM453.325,608L466.573,608C468.152,608 469.528,607.574 470.701,606.72C471.874,605.867 472.792,604.715 473.453,603.264C474.114,601.814 474.445,600.235 474.445,598.528C474.445,596.736 474.061,595.126 473.293,593.696C472.525,592.267 471.522,591.147 470.285,590.336C469.048,589.526 467.682,589.12 466.189,589.12L453.325,589.12L453.325,608Z" style="fill:rgb(38,50,56);fill-rule:nonzero;"/>
            <path d="M486.669,582.72L492.301,582.72L492.301,620.974C492.301,622.817 492.557,623.953 493.069,624.381C493.581,624.81 494.2,625.024 494.925,625.024C495.821,625.024 496.674,624.928 497.485,624.736C498.296,624.544 498.978,624.342 499.533,624.128L500.429,628.736C499.49,629.12 498.381,629.44 497.101,629.696C495.821,629.952 494.69,630.08 493.709,630.08C491.533,630.08 489.816,629.459 488.557,628.217C487.298,626.975 486.669,625.239 486.669,623.011L486.669,582.72Z" style="fill:rgb(38,50,56);fill-rule:nonzero;"/>
            <path d="M502.221,619.84C502.221,617.72 502.829,615.886 504.045,614.338C505.261,612.79 506.936,611.592 509.069,610.744C511.202,609.896 513.677,609.472 516.493,609.472C517.986,609.472 519.565,609.59 521.229,609.824C522.893,610.059 524.365,610.411 525.645,610.88L525.645,608.462C525.645,605.938 524.877,603.95 523.341,602.498C521.805,601.046 519.629,600.32 516.813,600.32C514.978,600.32 513.218,600.651 511.533,601.312C509.848,601.974 508.066,602.923 506.189,604.16L504.141,600.192C506.317,598.699 508.493,597.579 510.669,596.832C512.845,596.086 515.106,595.712 517.453,595.712C521.72,595.712 525.09,596.886 527.565,599.234C530.04,601.582 531.277,604.849 531.277,609.036L531.277,623.058C531.277,623.735 531.416,624.232 531.693,624.549C531.97,624.867 532.429,625.046 533.069,625.088L533.069,629.44C532.514,629.526 532.034,629.59 531.629,629.632C531.224,629.675 530.893,629.696 530.637,629.696C529.314,629.696 528.322,629.334 527.661,628.608C527,627.883 526.626,627.115 526.541,626.304L526.413,624.192C524.962,626.07 523.064,627.52 520.717,628.544C518.37,629.568 516.045,630.08 513.741,630.08C511.522,630.08 509.538,629.625 507.789,628.713C506.04,627.801 504.674,626.572 503.693,625.024C502.712,623.476 502.221,621.748 502.221,619.84ZM523.981,622.181C524.493,621.59 524.898,620.988 525.197,620.375C525.496,619.763 525.645,619.245 525.645,618.823L525.645,614.704C524.322,614.198 522.936,613.807 521.485,613.532C520.034,613.258 518.605,613.12 517.197,613.12C514.338,613.12 512.024,613.68 510.253,614.799C508.482,615.919 507.597,617.45 507.597,619.393C507.597,620.449 507.885,621.474 508.461,622.466C509.037,623.459 509.89,624.272 511.021,624.906C512.152,625.54 513.549,625.856 515.213,625.856C516.962,625.856 518.626,625.508 520.205,624.811C521.784,624.114 523.042,623.237 523.981,622.181Z" style="fill:rgb(38,50,56);fill-rule:nonzero;"/>
            <path d="M540.749,638.528C541.304,638.571 541.858,638.624 542.413,638.688C542.968,638.752 543.394,638.784 543.693,638.784C544.376,638.784 544.973,638.551 545.485,638.084C545.997,637.617 546.562,636.716 547.181,635.38C547.8,634.045 548.6,632.084 549.581,629.497L535.437,596.224L541.389,596.224L552.653,623.824L562.829,596.224L568.397,596.224L552.141,638.229C551.757,639.207 551.192,640.132 550.445,641.003C549.698,641.874 548.749,642.565 547.597,643.075C546.445,643.585 545.058,643.84 543.437,643.84C543.053,643.84 542.658,643.819 542.253,643.776C541.848,643.734 541.346,643.648 540.749,643.52L540.749,638.528Z" style="fill:rgb(38,50,56);fill-rule:nonzero;"/>
            <path d="M587.661,630.08C585.144,630.08 582.85,629.625 580.781,628.714C578.712,627.804 576.92,626.554 575.405,624.966C573.89,623.378 572.717,621.547 571.885,619.471C571.053,617.396 570.637,615.194 570.637,612.864C570.637,609.73 571.362,606.872 572.813,604.288C574.264,601.705 576.28,599.63 578.861,598.063C581.442,596.496 584.397,595.712 587.725,595.712C591.096,595.712 594.029,596.507 596.525,598.096C599.021,599.686 600.962,601.762 602.349,604.326C603.736,606.89 604.429,609.656 604.429,612.623C604.429,613.047 604.418,613.46 604.397,613.862C604.376,614.265 604.344,614.572 604.301,614.784L576.589,614.784C576.76,616.936 577.368,618.844 578.413,620.51C579.458,622.176 580.813,623.484 582.477,624.433C584.141,625.382 585.933,625.856 587.853,625.856C589.901,625.856 591.832,625.344 593.645,624.32C595.458,623.296 596.706,621.952 597.389,620.288L602.253,621.632C601.528,623.254 600.45,624.704 599.021,625.984C597.592,627.264 595.906,628.267 593.965,628.992C592.024,629.718 589.922,630.08 587.661,630.08ZM576.397,610.88L599.181,610.88C599.01,608.73 598.392,606.832 597.325,605.187C596.258,603.542 594.893,602.256 593.229,601.328C591.565,600.4 589.73,599.936 587.725,599.936C585.762,599.936 583.949,600.4 582.285,601.328C580.621,602.256 579.266,603.542 578.221,605.187C577.176,606.832 576.568,608.73 576.397,610.88Z" style="fill:rgb(38,50,56);fill-rule:nonzero;"/>
            <path d="M628.365,600.96C625.549,601.003 623.064,601.718 620.909,603.104C618.754,604.491 617.229,606.4 616.333,608.832L616.333,629.44L610.701,629.44L610.701,596.224L615.949,596.224L615.949,603.776C617.101,601.472 618.626,599.606 620.525,598.176C622.424,596.747 624.418,595.947 626.509,595.776L627.597,595.776C627.896,595.776 628.152,595.798 628.365,595.84L628.365,600.96Z" style="fill:rgb(38,50,56);fill-rule:nonzero;"/>
        </g>
        <g transform="matrix(0.0336985,0,0,0.0336347,-552.366,-275.963)">
            <path d="M136,13704L6201,6696L24232,6696L18168,13704L136,13704Z" style="fill:white;fill-opacity:0.51;stroke:rgb(61,75,95);stroke-width:133.13px;"/>
        </g>
        <g transform="matrix(1,0,0,1,-531.684,-539.609)">
            <path d="M357.645,594.688C357.218,594.219 356.6,593.718 355.789,593.184C354.978,592.651 354.018,592.15 352.909,591.68C351.8,591.211 350.605,590.827 349.325,590.528C348.045,590.23 346.722,590.08 345.357,590.08C342.37,590.08 340.152,590.633 338.701,591.739C337.25,592.845 336.525,594.376 336.525,596.332C336.525,597.778 336.93,598.916 337.741,599.745C338.552,600.575 339.789,601.266 341.453,601.818C343.117,602.371 345.208,602.966 347.725,603.604C350.797,604.328 353.464,605.189 355.725,606.188C357.986,607.188 359.714,608.517 360.909,610.175C362.104,611.834 362.701,614.024 362.701,616.746C362.701,619.043 362.274,621.021 361.421,622.679C360.568,624.338 359.373,625.688 357.837,626.73C356.301,627.772 354.53,628.538 352.525,629.027C350.52,629.516 348.365,629.76 346.061,629.76C343.8,629.76 341.549,629.526 339.309,629.056C337.069,628.587 334.936,627.894 332.909,626.976C330.882,626.059 329.016,624.939 327.309,623.616L330.573,617.472C331.128,618.027 331.928,618.635 332.973,619.296C334.018,619.958 335.234,620.587 336.621,621.184C338.008,621.782 339.522,622.283 341.165,622.688C342.808,623.094 344.482,623.296 346.189,623.296C349.048,623.296 351.234,622.798 352.749,621.801C354.264,620.805 355.021,619.373 355.021,617.506C355.021,615.974 354.53,614.751 353.549,613.836C352.568,612.922 351.138,612.145 349.261,611.507C347.384,610.869 345.144,610.23 342.541,609.592C339.554,608.784 337.058,607.902 335.053,606.944C333.048,605.987 331.544,604.753 330.541,603.242C329.538,601.732 329.037,599.806 329.037,597.466C329.037,594.488 329.762,591.967 331.213,589.903C332.664,587.839 334.637,586.286 337.133,585.244C339.629,584.202 342.434,583.68 345.549,583.68C347.597,583.68 349.538,583.904 351.373,584.352C353.208,584.8 354.925,585.408 356.525,586.176C358.125,586.944 359.586,587.819 360.909,588.8L357.645,594.688Z" style="fill:rgb(38,50,56);fill-rule:nonzero;"/>
            <path d="M369.869,629.44L369.869,584L385.997,584C390.904,584 395,585.014 398.285,587.04C401.57,589.067 404.034,591.798 405.677,595.232C407.32,598.667 408.141,602.475 408.141,606.656C408.141,611.264 407.234,615.275 405.421,618.688C403.608,622.102 401.037,624.747 397.709,626.624C394.381,628.502 390.477,629.44 385.997,629.44L369.869,629.44ZM400.845,606.656C400.845,603.456 400.258,600.63 399.085,598.176C397.912,595.723 396.226,593.803 394.029,592.416C391.832,591.03 389.154,590.336 385.997,590.336L377.037,590.336L377.037,623.104L385.997,623.104C389.197,623.104 391.896,622.379 394.093,620.928C396.29,619.478 397.965,617.515 399.117,615.04C400.269,612.566 400.845,609.771 400.845,606.656Z" style="fill:rgb(38,50,56);fill-rule:nonzero;"/>
            <path d="M415.693,629.44L415.693,584L422.861,584L422.861,607.393L444.237,583.936L452.173,583.936L434.253,604.06L453.197,629.44L445.069,629.44L429.709,608.611L422.861,615.725L422.861,629.44L415.693,629.44Z" style="fill:rgb(38,50,56);fill-rule:nonzero;"/>
        </g>
        <g transform="matrix(0.0336985,0,0,0.0336347,-552.366,-254.194)">
            <path d="M136,7048L6187,56L24232,56L18182,7048L136,7048Z" style="fill:white;fill-opacity:0.51;stroke:rgb(61,75,95);stroke-width:133.13px;"/>
        </g>
        <g transform="matrix(1,0,0,1,-546.564,-741.124)">
            <path d="M357.453,595.904C357.154,595.606 356.61,595.2 355.821,594.688C355.032,594.176 354.072,593.686 352.941,593.216C351.81,592.747 350.584,592.331 349.261,591.968C347.938,591.606 346.594,591.424 345.229,591.424C342.84,591.424 341.037,591.87 339.821,592.762C338.605,593.654 337.997,594.906 337.997,596.518C337.997,597.75 338.381,598.726 339.149,599.448C339.917,600.17 341.069,600.785 342.605,601.295C344.141,601.805 346.061,602.356 348.365,602.95C351.352,603.672 353.944,604.553 356.141,605.593C358.338,606.633 360.024,607.992 361.197,609.669C362.37,611.346 362.957,613.564 362.957,616.323C362.957,618.743 362.509,620.813 361.613,622.532C360.717,624.252 359.48,625.642 357.901,626.703C356.322,627.765 354.53,628.54 352.525,629.028C350.52,629.516 348.386,629.76 346.125,629.76C343.864,629.76 341.602,629.526 339.341,629.056C337.08,628.587 334.904,627.915 332.813,627.04C330.722,626.166 328.802,625.11 327.053,623.872L330.957,616.256C331.341,616.64 332.024,617.142 333.005,617.76C333.986,618.379 335.181,618.998 336.589,619.616C337.997,620.235 339.533,620.758 341.197,621.184C342.861,621.611 344.546,621.824 346.253,621.824C348.642,621.824 350.456,621.424 351.693,620.622C352.93,619.82 353.549,618.681 353.549,617.204C353.549,615.845 353.058,614.783 352.077,614.018C351.096,613.253 349.73,612.584 347.981,612.01C346.232,611.436 344.162,610.81 341.773,610.13C338.914,609.323 336.525,608.42 334.605,607.421C332.685,606.423 331.256,605.159 330.317,603.629C329.378,602.1 328.909,600.188 328.909,597.893C328.909,594.791 329.645,592.189 331.117,590.086C332.589,587.983 334.584,586.39 337.101,585.306C339.618,584.222 342.413,583.68 345.485,583.68C347.618,583.68 349.634,583.915 351.533,584.384C353.432,584.854 355.213,585.472 356.877,586.24C358.541,587.008 360.034,587.84 361.357,588.736L357.453,595.904Z" style="fill:rgb(38,50,56);fill-rule:nonzero;"/>
            <path d="M399.821,629.44L391.245,629.44L391.245,610.896C391.245,608.331 390.744,606.418 389.741,605.156C388.738,603.895 387.362,603.264 385.613,603.264C384.589,603.264 383.501,603.556 382.349,604.139C381.197,604.723 380.162,605.525 379.245,606.545C378.328,607.566 377.656,608.743 377.229,610.076L377.229,629.44L368.653,629.44L368.653,582.72L377.229,582.72L377.229,602.42C378.466,600.311 380.152,598.666 382.285,597.484C384.418,596.303 386.744,595.712 389.261,595.712C391.437,595.712 393.208,596.082 394.573,596.82C395.938,597.558 397.005,598.55 397.773,599.794C398.541,601.038 399.074,602.43 399.373,603.97C399.672,605.51 399.821,607.103 399.821,608.748L399.821,629.44Z" style="fill:rgb(38,50,56);fill-rule:nonzero;"/>
            <path d="M422.861,630.08C420.173,630.08 417.741,629.627 415.565,628.72C413.389,627.813 411.533,626.568 409.997,624.986C408.461,623.404 407.277,621.589 406.445,619.543C405.613,617.497 405.197,615.334 405.197,613.056C405.197,609.892 405.912,607.001 407.341,604.384C408.77,601.768 410.818,599.668 413.485,598.086C416.152,596.504 419.298,595.712 422.925,595.712C426.594,595.712 429.73,596.505 432.333,598.089C434.936,599.674 436.93,601.766 438.317,604.365C439.704,606.964 440.397,609.764 440.397,612.764C440.397,613.271 440.376,613.789 440.333,614.317C440.29,614.845 440.248,615.278 440.205,615.616L414.285,615.616C414.456,617.284 414.957,618.743 415.789,619.993C416.621,621.244 417.688,622.193 418.989,622.839C420.29,623.485 421.688,623.808 423.181,623.808C424.888,623.808 426.498,623.392 428.013,622.56C429.528,621.728 430.562,620.63 431.117,619.264L438.477,621.312C437.666,623.019 436.504,624.534 434.989,625.856C433.474,627.179 431.693,628.214 429.645,628.96C427.597,629.707 425.336,630.08 422.861,630.08ZM414.093,610.176L431.629,610.176C431.458,608.508 430.978,607.059 430.189,605.829C429.4,604.599 428.365,603.64 427.085,602.952C425.805,602.264 424.376,601.92 422.797,601.92C421.261,601.92 419.864,602.264 418.605,602.952C417.346,603.64 416.322,604.599 415.533,605.829C414.744,607.059 414.264,608.508 414.093,610.176Z" style="fill:rgb(38,50,56);fill-rule:nonzero;"/>
            <path d="M445.581,582.72L454.157,582.72L454.157,618.803C454.157,620.345 454.413,621.383 454.925,621.918C455.437,622.453 456.141,622.72 457.037,622.72C457.72,622.72 458.424,622.635 459.149,622.464C459.874,622.294 460.514,622.08 461.069,621.824L462.221,628.352C461.069,628.907 459.725,629.334 458.189,629.632C456.653,629.931 455.266,630.08 454.029,630.08C451.341,630.08 449.261,629.364 447.789,627.93C446.317,626.497 445.581,624.454 445.581,621.802L445.581,582.72Z" style="fill:rgb(38,50,56);fill-rule:nonzero;"/>
            <path d="M465.869,582.72L474.445,582.72L474.445,618.803C474.445,620.345 474.701,621.383 475.213,621.918C475.725,622.453 476.429,622.72 477.325,622.72C478.008,622.72 478.712,622.635 479.437,622.464C480.162,622.294 480.802,622.08 481.357,621.824L482.509,628.352C481.357,628.907 480.013,629.334 478.477,629.632C476.941,629.931 475.554,630.08 474.317,630.08C471.629,630.08 469.549,629.364 468.077,627.93C466.605,626.497 465.869,624.454 465.869,621.802L465.869,582.72Z" style="fill:rgb(38,50,56);fill-rule:nonzero;"/>
        </g>
    </g>
</svg>
