<?xml version="1.0" encoding="UTF-8" standalone="no"?>
<!DOCTYPE svg PUBLIC "-//W3C//DTD SVG 1.1//EN" "http://www.w3.org/Graphics/SVG/1.1/DTD/svg11.dtd">
<svg width="100%" height="100%" viewBox="0 0 812 811" version="1.1" xmlns="http://www.w3.org/2000/svg" xmlns:xlink="http://www.w3.org/1999/xlink" xml:space="preserve" xmlns:serif="http://www.serif.com/" style="fill-rule:evenodd;clip-rule:evenodd;stroke-linejoin:round;stroke-miterlimit:2;">
    <g transform="matrix(1,0,0,1,-422,-594)">
        <path d="M422.208,999.5C422.208,1223.34 603.887,1404.79 828,1404.79C1052.12,1404.79 1233.79,1223.34 1233.79,999.5C1233.79,775.664 1052.12,594.208 828,594.208C603.887,594.208 422.208,775.664 422.208,999.5ZM426.792,999.5C426.792,778.194 606.419,598.792 828,598.792C1049.58,598.792 1229.21,778.194 1229.21,999.5C1229.21,1220.81 1049.58,1400.21 828,1400.21C606.419,1400.21 426.792,1220.81 426.792,999.5Z" style="fill:rgb(28,30,33);"/>
        <g transform="matrix(1,0,0,1,729.617,732.059)">
            <path d="M31.808,-33.536C31.509,-33.835 30.965,-34.24 30.176,-34.752C29.387,-35.264 28.427,-35.755 27.296,-36.224C26.165,-36.693 24.939,-37.109 23.616,-37.472C22.293,-37.835 20.949,-38.016 19.584,-38.016C17.195,-38.016 15.392,-37.57 14.176,-36.679C12.96,-35.787 12.352,-34.535 12.352,-32.922C12.352,-31.691 12.736,-30.714 13.504,-29.993C14.272,-29.271 15.424,-28.655 16.96,-28.145C18.496,-27.636 20.416,-27.084 22.72,-26.49C25.707,-25.768 28.299,-24.887 30.496,-23.847C32.693,-22.807 34.379,-21.449 35.552,-19.772C36.725,-18.095 37.312,-15.876 37.312,-13.117C37.312,-10.697 36.864,-8.627 35.968,-6.908C35.072,-5.189 33.835,-3.798 32.256,-2.737C30.677,-1.676 28.885,-0.901 26.88,-0.412C24.875,0.076 22.741,0.32 20.48,0.32C18.219,0.32 15.957,0.085 13.696,-0.384C11.435,-0.853 9.259,-1.525 7.168,-2.4C5.077,-3.275 3.157,-4.331 1.408,-5.568L5.312,-13.184C5.696,-12.8 6.379,-12.299 7.36,-11.68C8.341,-11.061 9.536,-10.443 10.944,-9.824C12.352,-9.205 13.888,-8.683 15.552,-8.256C17.216,-7.829 18.901,-7.616 20.608,-7.616C22.997,-7.616 24.811,-8.017 26.048,-8.819C27.285,-9.62 27.904,-10.759 27.904,-12.236C27.904,-13.595 27.413,-14.658 26.432,-15.423C25.451,-16.188 24.085,-16.857 22.336,-17.431C20.587,-18.004 18.517,-18.631 16.128,-19.31C13.269,-20.117 10.88,-21.02 8.96,-22.019C7.04,-23.018 5.611,-24.282 4.672,-25.811C3.733,-27.34 3.264,-29.252 3.264,-31.547C3.264,-34.649 4,-37.252 5.472,-39.355C6.944,-41.458 8.939,-43.051 11.456,-44.135C13.973,-45.218 16.768,-45.76 19.84,-45.76C21.973,-45.76 23.989,-45.525 25.888,-45.056C27.787,-44.587 29.568,-43.968 31.232,-43.2C32.896,-42.432 34.389,-41.6 35.712,-40.704L31.808,-33.536Z" style="fill:rgb(38,50,56);fill-rule:nonzero;"/>
            <path d="M58.688,0.64C56,0.64 53.568,0.186 51.392,-0.721C49.216,-1.628 47.36,-2.872 45.824,-4.455C44.288,-6.037 43.104,-7.851 42.272,-9.898C41.44,-11.944 41.024,-14.106 41.024,-16.384C41.024,-19.549 41.739,-22.439 43.168,-25.056C44.597,-27.673 46.645,-29.772 49.312,-31.355C51.979,-32.937 55.125,-33.728 58.752,-33.728C62.421,-33.728 65.557,-32.936 68.16,-31.351C70.763,-29.766 72.757,-27.674 74.144,-25.076C75.531,-22.477 76.224,-19.677 76.224,-16.676C76.224,-16.169 76.203,-15.652 76.16,-15.124C76.117,-14.595 76.075,-14.162 76.032,-13.824L50.112,-13.824C50.283,-12.157 50.784,-10.698 51.616,-9.447C52.448,-8.196 53.515,-7.248 54.816,-6.602C56.117,-5.955 57.515,-5.632 59.008,-5.632C60.715,-5.632 62.325,-6.048 63.84,-6.88C65.355,-7.712 66.389,-8.811 66.944,-10.176L74.304,-8.128C73.493,-6.421 72.331,-4.907 70.816,-3.584C69.301,-2.261 67.52,-1.227 65.472,-0.48C63.424,0.267 61.163,0.64 58.688,0.64ZM49.92,-19.264L67.456,-19.264C67.285,-20.932 66.805,-22.381 66.016,-23.611C65.227,-24.841 64.192,-25.8 62.912,-26.488C61.632,-27.176 60.203,-27.52 58.624,-27.52C57.088,-27.52 55.691,-27.176 54.432,-26.488C53.173,-25.8 52.149,-24.841 51.36,-23.611C50.571,-22.381 50.091,-20.932 49.92,-19.264Z" style="fill:rgb(38,50,56);fill-rule:nonzero;"/>
            <path d="M101.44,-26.112C98.837,-26.112 96.512,-25.611 94.464,-24.608C92.416,-23.605 90.944,-22.165 90.048,-20.288L90.048,0L81.472,0L81.472,-33.216L89.344,-33.216L89.344,-26.368C90.539,-28.672 92.053,-30.485 93.888,-31.808C95.723,-33.131 97.664,-33.856 99.712,-33.984L100.8,-33.984C101.056,-33.984 101.269,-33.963 101.44,-33.92L101.44,-26.112Z" style="fill:rgb(38,50,56);fill-rule:nonzero;"/>
            <path d="M106.24,0L106.24,-33.536L114.816,-33.536L114.816,0L106.24,0ZM106.24,-38.208L106.24,-46.72L114.816,-46.72L114.816,-38.208L106.24,-38.208Z" style="fill:rgb(38,50,56);fill-rule:nonzero;"/>
            <path d="M138.112,0.64C135.424,0.64 132.992,0.186 130.816,-0.721C128.64,-1.628 126.784,-2.872 125.248,-4.455C123.712,-6.037 122.528,-7.851 121.696,-9.898C120.864,-11.944 120.448,-14.106 120.448,-16.384C120.448,-19.549 121.163,-22.439 122.592,-25.056C124.021,-27.673 126.069,-29.772 128.736,-31.355C131.403,-32.937 134.549,-33.728 138.176,-33.728C141.845,-33.728 144.981,-32.936 147.584,-31.351C150.187,-29.766 152.181,-27.674 153.568,-25.076C154.955,-22.477 155.648,-19.677 155.648,-16.676C155.648,-16.169 155.627,-15.652 155.584,-15.124C155.541,-14.595 155.499,-14.162 155.456,-13.824L129.536,-13.824C129.707,-12.157 130.208,-10.698 131.04,-9.447C131.872,-8.196 132.939,-7.248 134.24,-6.602C135.541,-5.955 136.939,-5.632 138.432,-5.632C140.139,-5.632 141.749,-6.048 143.264,-6.88C144.779,-7.712 145.813,-8.811 146.368,-10.176L153.728,-8.128C152.917,-6.421 151.755,-4.907 150.24,-3.584C148.725,-2.261 146.944,-1.227 144.896,-0.48C142.848,0.267 140.587,0.64 138.112,0.64ZM129.344,-19.264L146.88,-19.264C146.709,-20.932 146.229,-22.381 145.44,-23.611C144.651,-24.841 143.616,-25.8 142.336,-26.488C141.056,-27.176 139.627,-27.52 138.048,-27.52C136.512,-27.52 135.115,-27.176 133.856,-26.488C132.597,-25.8 131.573,-24.841 130.784,-23.611C129.995,-22.381 129.515,-20.932 129.344,-19.264Z" style="fill:rgb(38,50,56);fill-rule:nonzero;"/>
            <path d="M173.248,0.64C170.389,0.64 167.659,0.171 165.056,-0.768C162.453,-1.707 160.213,-3.093 158.336,-4.928L161.408,-10.496C163.413,-8.875 165.387,-7.68 167.328,-6.912C169.269,-6.144 171.136,-5.76 172.928,-5.76C174.592,-5.76 175.925,-6.048 176.928,-6.624C177.931,-7.2 178.432,-8.064 178.432,-9.216C178.432,-10.016 178.155,-10.637 177.6,-11.08C177.045,-11.522 176.245,-11.912 175.2,-12.249C174.155,-12.586 172.885,-12.964 171.392,-13.385C168.917,-14.186 166.848,-14.965 165.184,-15.723C163.52,-16.481 162.272,-17.439 161.44,-18.598C160.608,-19.756 160.192,-21.24 160.192,-23.051C160.192,-25.241 160.757,-27.126 161.888,-28.706C163.019,-30.285 164.597,-31.517 166.624,-32.401C168.651,-33.286 171.029,-33.728 173.76,-33.728C176.149,-33.728 178.411,-33.355 180.544,-32.608C182.677,-31.861 184.619,-30.656 186.368,-28.992L182.912,-23.552C181.205,-24.875 179.584,-25.845 178.048,-26.464C176.512,-27.083 174.955,-27.392 173.376,-27.392C172.48,-27.392 171.637,-27.287 170.848,-27.077C170.059,-26.867 169.419,-26.52 168.928,-26.038C168.437,-25.555 168.192,-24.872 168.192,-23.99C168.192,-23.192 168.416,-22.573 168.864,-22.132C169.312,-21.691 169.995,-21.303 170.912,-20.967C171.829,-20.631 172.949,-20.253 174.272,-19.833C176.96,-19.077 179.232,-18.3 181.088,-17.502C182.944,-16.704 184.341,-15.728 185.28,-14.573C186.219,-13.418 186.688,-11.833 186.688,-9.817C186.688,-6.541 185.472,-3.979 183.04,-2.132C180.608,-0.284 177.344,0.64 173.248,0.64Z" style="fill:rgb(38,50,56);fill-rule:nonzero;"/>
        </g>
        <path d="M527.208,1103C527.208,1269.67 662.548,1404.79 829.5,1404.79C996.453,1404.79 1131.79,1269.67 1131.79,1103C1131.79,936.326 996.453,801.208 829.5,801.208C662.548,801.208 527.208,936.326 527.208,1103ZM531.792,1103C531.792,938.856 665.082,805.792 829.5,805.792C993.919,805.792 1127.21,938.856 1127.21,1103C1127.21,1267.14 993.919,1400.21 829.5,1400.21C665.082,1400.21 531.792,1267.14 531.792,1103Z" style="fill:rgb(28,30,33);"/>
        <g transform="matrix(1,0,0,1,706.3,965.059)">
            <path d="M36.288,-6.336L36.288,0L5.12,0L5.12,-45.44L35.712,-45.44L35.712,-39.104L12.288,-39.104L12.288,-26.176L32.576,-26.176L32.576,-20.224L12.288,-20.224L12.288,-6.336L36.288,-6.336Z" style="fill:rgb(38,50,56);fill-rule:nonzero;"/>
            <path d="M61.568,0.64C58.88,0.64 56.512,0.006 54.464,-1.262C52.416,-2.53 50.795,-4.179 49.6,-6.208L49.6,13.632L42.56,13.632L42.56,-33.216L48.768,-33.216L48.768,-27.197C50.048,-29.184 51.712,-30.769 53.76,-31.953C55.808,-33.136 58.091,-33.728 60.608,-33.728C62.912,-33.728 65.024,-33.274 66.944,-32.365C68.864,-31.456 70.528,-30.198 71.936,-28.592C73.344,-26.985 74.443,-25.157 75.232,-23.107C76.021,-21.057 76.416,-18.89 76.416,-16.607C76.416,-13.437 75.787,-10.541 74.528,-7.92C73.269,-5.3 71.52,-3.217 69.28,-1.675C67.04,-0.132 64.469,0.64 61.568,0.64ZM59.264,-5.376C60.757,-5.376 62.112,-5.691 63.328,-6.323C64.544,-6.954 65.589,-7.795 66.464,-8.847C67.339,-9.898 68.011,-11.097 68.48,-12.443C68.949,-13.789 69.184,-15.177 69.184,-16.607C69.184,-18.122 68.928,-19.552 68.416,-20.898C67.904,-22.244 67.168,-23.422 66.208,-24.431C65.248,-25.44 64.139,-26.24 62.88,-26.828C61.621,-27.418 60.245,-27.712 58.752,-27.712C57.856,-27.712 56.917,-27.544 55.936,-27.209C54.955,-26.874 54.037,-26.413 53.184,-25.826C52.331,-25.239 51.584,-24.548 50.944,-23.751C50.304,-22.954 49.856,-22.116 49.6,-21.236L49.6,-12.549C50.197,-11.207 50.987,-10.001 51.968,-8.932C52.949,-7.862 54.08,-7.002 55.36,-6.352C56.64,-5.701 57.941,-5.376 59.264,-5.376Z" style="fill:rgb(38,50,56);fill-rule:nonzero;"/>
            <path d="M82.752,0L82.752,-33.472L89.792,-33.472L89.792,0L82.752,0ZM82.752,-38.976L82.752,-46.72L89.792,-46.72L89.792,-38.976L82.752,-38.976Z" style="fill:rgb(38,50,56);fill-rule:nonzero;"/>
            <path d="M110.144,0.64C107.328,0.64 104.661,0.181 102.144,-0.736C99.627,-1.653 97.472,-3.029 95.68,-4.864L98.304,-9.6C100.224,-7.893 102.155,-6.656 104.096,-5.888C106.037,-5.12 107.968,-4.736 109.888,-4.736C111.851,-4.736 113.451,-5.102 114.688,-5.833C115.925,-6.564 116.544,-7.641 116.544,-9.062C116.544,-10.119 116.224,-10.901 115.584,-11.408C114.944,-11.915 114.016,-12.359 112.8,-12.74C111.584,-13.12 110.123,-13.543 108.416,-14.008C106.027,-14.727 104.021,-15.477 102.4,-16.259C100.779,-17.041 99.563,-18.003 98.752,-19.144C97.941,-20.285 97.536,-21.744 97.536,-23.519C97.536,-25.675 98.091,-27.514 99.2,-29.036C100.309,-30.557 101.856,-31.72 103.84,-32.523C105.824,-33.326 108.117,-33.728 110.72,-33.728C113.152,-33.728 115.403,-33.355 117.472,-32.608C119.541,-31.861 121.365,-30.699 122.944,-29.12L119.936,-24.448C118.443,-25.813 116.917,-26.816 115.36,-27.456C113.803,-28.096 112.128,-28.416 110.336,-28.416C109.312,-28.416 108.331,-28.3 107.392,-28.068C106.453,-27.836 105.675,-27.414 105.056,-26.802C104.437,-26.19 104.128,-25.335 104.128,-24.238C104.128,-23.352 104.384,-22.635 104.896,-22.086C105.408,-21.537 106.176,-21.073 107.2,-20.693C108.224,-20.313 109.483,-19.891 110.976,-19.427C113.579,-18.668 115.797,-17.919 117.632,-17.18C119.467,-16.441 120.885,-15.492 121.888,-14.331C122.891,-13.17 123.392,-11.577 123.392,-9.552C123.392,-6.345 122.187,-3.844 119.776,-2.051C117.365,-0.257 114.155,0.64 110.144,0.64Z" style="fill:rgb(38,50,56);fill-rule:nonzero;"/>
            <path d="M144.704,0.64C142.059,0.64 139.691,0.185 137.6,-0.724C135.509,-1.633 133.707,-2.89 132.192,-4.497C130.677,-6.103 129.515,-7.931 128.704,-9.981C127.893,-12.031 127.488,-14.219 127.488,-16.544C127.488,-18.869 127.893,-21.068 128.704,-23.139C129.515,-25.21 130.677,-27.039 132.192,-28.624C133.707,-30.209 135.52,-31.456 137.632,-32.365C139.744,-33.274 142.101,-33.728 144.704,-33.728C147.307,-33.728 149.664,-33.274 151.776,-32.365C153.888,-31.456 155.701,-30.209 157.216,-28.624C158.731,-27.039 159.893,-25.21 160.704,-23.139C161.515,-21.068 161.92,-18.869 161.92,-16.544C161.92,-14.219 161.515,-12.031 160.704,-9.981C159.893,-7.931 158.731,-6.103 157.216,-4.497C155.701,-2.89 153.888,-1.633 151.776,-0.724C149.664,0.185 147.307,0.64 144.704,0.64ZM134.72,-16.481C134.72,-14.378 135.168,-12.485 136.064,-10.802C136.96,-9.119 138.155,-7.794 139.648,-6.827C141.141,-5.86 142.827,-5.376 144.704,-5.376C146.539,-5.376 148.213,-5.87 149.728,-6.859C151.243,-7.848 152.448,-9.194 153.344,-10.897C154.24,-12.6 154.688,-14.483 154.688,-16.544C154.688,-18.647 154.24,-20.54 153.344,-22.223C152.448,-23.905 151.243,-25.24 149.728,-26.229C148.213,-27.218 146.539,-27.712 144.704,-27.712C142.827,-27.712 141.141,-27.207 139.648,-26.198C138.155,-25.188 136.96,-23.852 136.064,-22.191C135.168,-20.53 134.72,-18.626 134.72,-16.481Z" style="fill:rgb(38,50,56);fill-rule:nonzero;"/>
            <path d="M166.08,-16.544C166.08,-19.715 166.731,-22.6 168.032,-25.2C169.333,-27.799 171.115,-29.871 173.376,-31.414C175.637,-32.957 178.24,-33.728 181.184,-33.728C183.744,-33.728 186.059,-33.067 188.128,-31.744C190.197,-30.421 191.808,-28.779 192.96,-26.816L192.96,-46.72L200,-46.72L200,-7.936C200,-7.125 200.149,-6.549 200.448,-6.208C200.747,-5.867 201.237,-5.675 201.92,-5.632L201.92,0C200.597,0.213 199.573,0.32 198.848,0.32C197.525,0.32 196.405,-0.064 195.488,-0.832C194.571,-1.6 194.091,-2.517 194.048,-3.584L193.984,-6.08C192.704,-3.947 190.976,-2.293 188.8,-1.12C186.624,0.053 184.363,0.64 182.016,0.64C179.712,0.64 177.589,0.196 175.648,-0.692C173.707,-1.579 172.021,-2.826 170.592,-4.433C169.163,-6.039 168.053,-7.878 167.264,-9.949C166.475,-12.02 166.08,-14.219 166.08,-16.544ZM192.96,-11.938L192.96,-20.582C192.491,-21.928 191.733,-23.137 190.688,-24.21C189.643,-25.283 188.469,-26.135 187.168,-26.766C185.867,-27.397 184.576,-27.712 183.296,-27.712C181.803,-27.712 180.448,-27.397 179.232,-26.766C178.016,-26.135 176.971,-25.293 176.096,-24.241C175.221,-23.19 174.549,-21.991 174.08,-20.645C173.611,-19.299 173.376,-17.89 173.376,-16.418C173.376,-14.903 173.632,-13.484 174.144,-12.159C174.656,-10.834 175.392,-9.656 176.352,-8.626C177.312,-7.595 178.421,-6.796 179.68,-6.228C180.939,-5.66 182.315,-5.376 183.808,-5.376C184.747,-5.376 185.696,-5.544 186.656,-5.881C187.616,-6.218 188.533,-6.68 189.408,-7.269C190.283,-7.858 191.029,-8.552 191.648,-9.351C192.267,-10.15 192.704,-11.013 192.96,-11.938Z" style="fill:rgb(38,50,56);fill-rule:nonzero;"/>
            <path d="M224.128,0.64C221.525,0.64 219.168,0.185 217.056,-0.726C214.944,-1.637 213.12,-2.886 211.584,-4.474C210.048,-6.062 208.864,-7.883 208.032,-9.937C207.2,-11.991 206.784,-14.183 206.784,-16.512C206.784,-19.635 207.509,-22.494 208.96,-25.089C210.411,-27.683 212.437,-29.772 215.04,-31.355C217.643,-32.937 220.693,-33.728 224.192,-33.728C227.691,-33.728 230.709,-32.936 233.248,-31.352C235.787,-29.767 237.76,-27.686 239.168,-25.109C240.576,-22.532 241.28,-19.764 241.28,-16.807C241.28,-16.3 241.259,-15.824 241.216,-15.381C241.173,-14.938 241.131,-14.568 241.088,-14.272L214.272,-14.272C214.4,-12.335 214.944,-10.64 215.904,-9.187C216.864,-7.734 218.091,-6.597 219.584,-5.776C221.077,-4.955 222.677,-4.544 224.384,-4.544C226.261,-4.544 228.043,-5.013 229.728,-5.952C231.413,-6.891 232.555,-8.128 233.152,-9.664L239.168,-7.936C238.443,-6.315 237.344,-4.853 235.872,-3.552C234.4,-2.251 232.661,-1.227 230.656,-0.48C228.651,0.267 226.475,0.64 224.128,0.64ZM214.08,-18.944L234.304,-18.944C234.176,-20.827 233.632,-22.49 232.672,-23.933C231.712,-25.376 230.496,-26.505 229.024,-27.321C227.552,-28.136 225.92,-28.544 224.128,-28.544C222.379,-28.544 220.768,-28.136 219.296,-27.321C217.824,-26.505 216.619,-25.376 215.68,-23.933C214.741,-22.49 214.208,-20.827 214.08,-18.944Z" style="fill:rgb(38,50,56);fill-rule:nonzero;"/>
        </g>
        <path d="M654.208,1230C654.208,1326.53 732.688,1404.79 829.5,1404.79C926.312,1404.79 1004.79,1326.53 1004.79,1230C1004.79,1133.47 926.312,1055.21 829.5,1055.21C732.688,1055.21 654.208,1133.47 654.208,1230ZM658.792,1230C658.792,1135.99 735.222,1059.79 829.5,1059.79C923.778,1059.79 1000.21,1135.99 1000.21,1230C1000.21,1324.01 923.778,1400.21 829.5,1400.21C735.222,1400.21 658.792,1324.01 658.792,1230Z" style="fill:rgb(28,30,33);"/>
        <g transform="matrix(1,0,0,1,747.772,1252.4)">
            <path d="M19.776,-45.44L23.552,-45.44L42.432,0L37.696,0L32.018,-14.208L11.247,-14.208L5.568,0L0.768,0L19.776,-45.44ZM30.61,-17.728L21.632,-40.192L12.654,-17.728L30.61,-17.728Z" style="fill:rgb(38,50,56);fill-rule:nonzero;"/>
            <path d="M58.56,0.64C55.829,0.64 53.291,0.192 50.944,-0.704C48.597,-1.6 46.571,-2.965 44.864,-4.8L46.656,-7.872C48.533,-6.123 50.421,-4.853 52.32,-4.064C54.219,-3.275 56.235,-2.88 58.368,-2.88C60.971,-2.88 63.083,-3.398 64.704,-4.435C66.325,-5.471 67.136,-6.962 67.136,-8.907C67.136,-10.222 66.741,-11.23 65.952,-11.93C65.163,-12.63 64.032,-13.203 62.56,-13.649C61.088,-14.094 59.328,-14.571 57.28,-15.08C54.976,-15.717 53.045,-16.385 51.488,-17.085C49.931,-17.785 48.757,-18.676 47.968,-19.758C47.179,-20.84 46.784,-22.251 46.784,-23.99C46.784,-26.154 47.328,-27.947 48.416,-29.368C49.504,-30.789 50.997,-31.871 52.896,-32.614C54.795,-33.357 56.917,-33.728 59.264,-33.728C61.824,-33.728 64.085,-33.323 66.048,-32.512C68.011,-31.701 69.611,-30.571 70.848,-29.12L68.736,-26.176C67.541,-27.541 66.123,-28.555 64.48,-29.216C62.837,-29.877 61.013,-30.208 59.008,-30.208C57.643,-30.208 56.341,-30.028 55.104,-29.668C53.867,-29.307 52.853,-28.714 52.064,-27.887C51.275,-27.06 50.88,-25.925 50.88,-24.484C50.88,-23.297 51.179,-22.374 51.776,-21.717C52.373,-21.06 53.269,-20.508 54.464,-20.063C55.659,-19.618 57.131,-19.141 58.88,-18.632C61.397,-17.953 63.595,-17.264 65.472,-16.565C67.349,-15.865 68.8,-14.964 69.824,-13.862C70.848,-12.759 71.36,-11.212 71.36,-9.219C71.36,-6.124 70.187,-3.707 67.84,-1.968C65.493,-0.229 62.4,0.64 58.56,0.64Z" style="fill:rgb(38,50,56);fill-rule:nonzero;"/>
            <path d="M89.472,0.64C86.741,0.64 84.203,0.192 81.856,-0.704C79.509,-1.6 77.483,-2.965 75.776,-4.8L77.568,-7.872C79.445,-6.123 81.333,-4.853 83.232,-4.064C85.131,-3.275 87.147,-2.88 89.28,-2.88C91.883,-2.88 93.995,-3.398 95.616,-4.435C97.237,-5.471 98.048,-6.962 98.048,-8.907C98.048,-10.222 97.653,-11.23 96.864,-11.93C96.075,-12.63 94.944,-13.203 93.472,-13.649C92,-14.094 90.24,-14.571 88.192,-15.08C85.888,-15.717 83.957,-16.385 82.4,-17.085C80.843,-17.785 79.669,-18.676 78.88,-19.758C78.091,-20.84 77.696,-22.251 77.696,-23.99C77.696,-26.154 78.24,-27.947 79.328,-29.368C80.416,-30.789 81.909,-31.871 83.808,-32.614C85.707,-33.357 87.829,-33.728 90.176,-33.728C92.736,-33.728 94.997,-33.323 96.96,-32.512C98.923,-31.701 100.523,-30.571 101.76,-29.12L99.648,-26.176C98.453,-27.541 97.035,-28.555 95.392,-29.216C93.749,-29.877 91.925,-30.208 89.92,-30.208C88.555,-30.208 87.253,-30.028 86.016,-29.668C84.779,-29.307 83.765,-28.714 82.976,-27.887C82.187,-27.06 81.792,-25.925 81.792,-24.484C81.792,-23.297 82.091,-22.374 82.688,-21.717C83.285,-21.06 84.181,-20.508 85.376,-20.063C86.571,-19.618 88.043,-19.141 89.792,-18.632C92.309,-17.953 94.507,-17.264 96.384,-16.565C98.261,-15.865 99.712,-14.964 100.736,-13.862C101.76,-12.759 102.272,-11.212 102.272,-9.219C102.272,-6.124 101.099,-3.707 98.752,-1.968C96.405,-0.229 93.312,0.64 89.472,0.64Z" style="fill:rgb(38,50,56);fill-rule:nonzero;"/>
            <path d="M123.84,0.64C121.451,0.64 119.232,0.183 117.184,-0.731C115.136,-1.645 113.365,-2.899 111.872,-4.493C110.379,-6.087 109.216,-7.926 108.384,-10.009C107.552,-12.092 107.136,-14.323 107.136,-16.704C107.136,-19.795 107.851,-22.633 109.28,-25.216C110.709,-27.799 112.683,-29.864 115.2,-31.41C117.717,-32.955 120.576,-33.728 123.776,-33.728C127.061,-33.728 129.931,-32.944 132.384,-31.376C134.837,-29.808 136.768,-27.742 138.176,-25.179C139.584,-22.615 140.288,-19.807 140.288,-16.756L140.288,-15.771C140.288,-15.453 140.267,-15.209 140.224,-15.04L111.68,-15.04C111.893,-12.663 112.565,-10.551 113.696,-8.705C114.827,-6.858 116.299,-5.394 118.112,-4.312C119.925,-3.229 121.899,-2.688 124.032,-2.688C126.208,-2.688 128.267,-3.243 130.208,-4.352C132.149,-5.461 133.504,-6.912 134.272,-8.704L138.048,-7.68C137.365,-6.101 136.32,-4.672 134.912,-3.392C133.504,-2.112 131.851,-1.12 129.952,-0.416C128.053,0.288 126.016,0.64 123.84,0.64ZM111.552,-18.176L136.192,-18.176C136.021,-20.583 135.371,-22.694 134.24,-24.51C133.109,-26.325 131.637,-27.75 129.824,-28.785C128.011,-29.819 126.016,-30.336 123.84,-30.336C121.664,-30.336 119.68,-29.819 117.888,-28.785C116.096,-27.75 114.635,-26.315 113.504,-24.478C112.373,-22.641 111.723,-20.541 111.552,-18.176Z" style="fill:rgb(38,50,56);fill-rule:nonzero;"/>
            <path d="M162.688,-1.344C162.347,-1.216 161.813,-0.981 161.088,-0.64C160.363,-0.299 159.488,-0 158.464,0.256C157.44,0.512 156.331,0.64 155.136,0.64C153.899,0.64 152.736,0.404 151.648,-0.067C150.56,-0.538 149.696,-1.256 149.056,-2.22C148.416,-3.184 148.096,-4.373 148.096,-5.787L148.096,-29.76L143.488,-29.76L143.488,-33.216L148.096,-33.216L148.096,-44.48L152.448,-44.48L152.448,-33.216L160.128,-33.216L160.128,-29.76L152.448,-29.76L152.448,-6.993C152.533,-5.793 152.971,-4.893 153.76,-4.293C154.549,-3.692 155.456,-3.392 156.48,-3.392C157.675,-3.392 158.763,-3.595 159.744,-4C160.725,-4.405 161.323,-4.693 161.536,-4.864L162.688,-1.344Z" style="fill:rgb(38,50,56);fill-rule:nonzero;"/>
        </g>
    </g>
</svg>
