<?xml version="1.0" encoding="UTF-8" standalone="no"?>
<!DOCTYPE svg PUBLIC "-//W3C//DTD SVG 1.1//EN" "http://www.w3.org/Graphics/SVG/1.1/DTD/svg11.dtd">
<svg width="100%" height="100%" viewBox="0 0 812 811" version="1.1" xmlns="http://www.w3.org/2000/svg" xmlns:xlink="http://www.w3.org/1999/xlink" xml:space="preserve" xmlns:serif="http://www.serif.com/" style="fill-rule:evenodd;clip-rule:evenodd;stroke-miterlimit:8;">
    <g transform="matrix(1,0,0,1,547.783,257.31)">
        <g transform="matrix(1,0,0,1,-5.68434e-13,164.119)">
            <g transform="matrix(0.0336985,0,0,0.0336347,-552.366,-297.194)">
                <path d="M136,20344L6201,13336L24232,13336L18168,20344L136,20344Z" style="fill:white;fill-opacity:0.51;stroke:rgb(61,75,95);stroke-width:133.13px;"/>
            </g>
            <g transform="matrix(1,0,0,1,-585.604,-337.186)">
                <path d="M327.565,619.84C327.565,617.72 328.173,615.886 329.389,614.338C330.605,612.79 332.28,611.592 334.413,610.744C336.546,609.896 339.021,609.472 341.837,609.472C343.33,609.472 344.909,609.59 346.573,609.824C348.237,610.059 349.709,610.411 350.989,610.88L350.989,608.462C350.989,605.938 350.221,603.95 348.685,602.498C347.149,601.046 344.973,600.32 342.157,600.32C340.322,600.32 338.562,600.651 336.877,601.312C335.192,601.974 333.41,602.923 331.533,604.16L329.485,600.192C331.661,598.699 333.837,597.579 336.013,596.832C338.189,596.086 340.45,595.712 342.797,595.712C347.064,595.712 350.434,596.886 352.909,599.234C355.384,601.582 356.621,604.849 356.621,609.036L356.621,623.058C356.621,623.735 356.76,624.232 357.037,624.549C357.314,624.867 357.773,625.046 358.413,625.088L358.413,629.44C357.858,629.526 357.378,629.59 356.973,629.632C356.568,629.675 356.237,629.696 355.981,629.696C354.658,629.696 353.666,629.334 353.005,628.608C352.344,627.883 351.97,627.115 351.885,626.304L351.757,624.192C350.306,626.07 348.408,627.52 346.061,628.544C343.714,629.568 341.389,630.08 339.085,630.08C336.866,630.08 334.882,629.625 333.133,628.713C331.384,627.801 330.018,626.572 329.037,625.024C328.056,623.476 327.565,621.748 327.565,619.84ZM349.325,622.181C349.837,621.59 350.242,620.988 350.541,620.375C350.84,619.763 350.989,619.245 350.989,618.823L350.989,614.704C349.666,614.198 348.28,613.807 346.829,613.532C345.378,613.258 343.949,613.12 342.541,613.12C339.682,613.12 337.368,613.68 335.597,614.799C333.826,615.919 332.941,617.45 332.941,619.393C332.941,620.449 333.229,621.474 333.805,622.466C334.381,623.459 335.234,624.272 336.365,624.906C337.496,625.54 338.893,625.856 340.557,625.856C342.306,625.856 343.97,625.508 345.549,624.811C347.128,624.114 348.386,623.237 349.325,622.181Z" style="fill:rgb(38,50,56);fill-rule:nonzero;"/>
                <path d="M383.629,630.08C380.898,630.08 378.466,629.403 376.333,628.047C374.2,626.692 372.514,624.977 371.277,622.901L371.277,643.072L365.645,643.072L365.645,596.224L370.637,596.224L370.637,602.509C371.96,600.477 373.688,598.836 375.821,597.586C377.954,596.337 380.28,595.712 382.797,595.712C385.101,595.712 387.213,596.178 389.133,597.11C391.053,598.042 392.717,599.312 394.125,600.921C395.533,602.531 396.632,604.362 397.421,606.416C398.21,608.47 398.605,610.62 398.605,612.864C398.605,615.998 397.976,618.878 396.717,621.504C395.458,624.13 393.698,626.216 391.437,627.762C389.176,629.308 386.573,630.08 383.629,630.08ZM381.901,625.216C383.565,625.216 385.069,624.868 386.413,624.171C387.757,623.475 388.909,622.546 389.869,621.384C390.829,620.223 391.565,618.903 392.077,617.425C392.589,615.947 392.845,614.427 392.845,612.864C392.845,611.218 392.557,609.655 391.981,608.177C391.405,606.699 390.594,605.39 389.549,604.25C388.504,603.11 387.288,602.213 385.901,601.558C384.514,600.904 383.01,600.576 381.389,600.576C380.365,600.576 379.309,600.766 378.221,601.145C377.133,601.525 376.098,602.062 375.117,602.757C374.136,603.453 373.304,604.243 372.621,605.128C371.938,606.014 371.49,606.962 371.277,607.973L371.277,617.438C371.917,618.872 372.77,620.179 373.837,621.359C374.904,622.539 376.141,623.477 377.549,624.173C378.957,624.869 380.408,625.216 381.901,625.216Z" style="fill:rgb(38,50,56);fill-rule:nonzero;"/>
                <rect x="405.069" y="609.408" width="18.88" height="5.12" style="fill:rgb(38,50,56);fill-rule:nonzero;"/>
                <path d="M447.373,630.08C444.856,630.08 442.562,629.625 440.493,628.714C438.424,627.804 436.632,626.544 435.117,624.934C433.602,623.325 432.429,621.483 431.597,619.408C430.765,617.333 430.349,615.131 430.349,612.801C430.349,609.667 431.053,606.809 432.461,604.225C433.869,601.641 435.853,599.577 438.413,598.031C440.973,596.485 443.938,595.712 447.309,595.712C450.594,595.712 453.464,596.448 455.917,597.92C458.37,599.392 460.194,601.366 461.389,603.84L455.885,605.568C455.032,603.99 453.837,602.763 452.301,601.888C450.765,601.014 449.058,600.576 447.181,600.576C445.133,600.576 443.266,601.104 441.581,602.16C439.896,603.216 438.562,604.662 437.581,606.499C436.6,608.336 436.109,610.437 436.109,612.801C436.109,615.124 436.61,617.225 437.613,619.104C438.616,620.983 439.96,622.471 441.645,623.569C443.33,624.667 445.197,625.216 447.245,625.216C448.568,625.216 449.837,624.982 451.053,624.512C452.269,624.043 453.336,623.414 454.253,622.624C455.17,621.835 455.8,620.971 456.141,620.032L461.645,621.696C460.962,623.318 459.928,624.758 458.541,626.016C457.154,627.275 455.512,628.267 453.613,628.992C451.714,629.718 449.634,630.08 447.373,630.08Z" style="fill:rgb(38,50,56);fill-rule:nonzero;"/>
                <path d="M482.317,630.08C479.8,630.08 477.517,629.625 475.469,628.714C473.421,627.804 471.65,626.554 470.157,624.966C468.664,623.378 467.512,621.547 466.701,619.471C465.89,617.396 465.485,615.215 465.485,612.928C465.485,610.599 465.89,608.397 466.701,606.321C467.512,604.246 468.664,602.414 470.157,600.826C471.65,599.238 473.432,597.989 475.501,597.078C477.57,596.168 479.864,595.712 482.381,595.712C484.856,595.712 487.117,596.168 489.165,597.078C491.213,597.989 492.994,599.238 494.509,600.826C496.024,602.414 497.186,604.246 497.997,606.321C498.808,608.397 499.213,610.599 499.213,612.928C499.213,615.215 498.808,617.396 497.997,619.471C497.186,621.547 496.034,623.378 494.541,624.966C493.048,626.554 491.266,627.804 489.197,628.714C487.128,629.625 484.834,630.08 482.317,630.08ZM471.245,612.991C471.245,615.271 471.746,617.341 472.749,619.199C473.752,621.057 475.085,622.525 476.749,623.601C478.413,624.678 480.269,625.216 482.317,625.216C484.365,625.216 486.232,624.667 487.917,623.569C489.602,622.471 490.946,620.983 491.949,619.104C492.952,617.225 493.453,615.145 493.453,612.864C493.453,610.584 492.952,608.515 491.949,606.657C490.946,604.799 489.602,603.321 487.917,602.223C486.232,601.125 484.365,600.576 482.317,600.576C480.269,600.576 478.413,601.136 476.749,602.255C475.085,603.374 473.752,604.862 472.749,606.72C471.746,608.578 471.245,610.669 471.245,612.991Z" style="fill:rgb(38,50,56);fill-rule:nonzero;"/>
                <path d="M523.725,600.96C520.909,601.003 518.424,601.718 516.269,603.104C514.114,604.491 512.589,606.4 511.693,608.832L511.693,629.44L506.061,629.44L506.061,596.224L511.309,596.224L511.309,603.776C512.461,601.472 513.986,599.606 515.885,598.176C517.784,596.747 519.778,595.947 521.869,595.776L522.957,595.776C523.256,595.776 523.512,595.798 523.725,595.84L523.725,600.96Z" style="fill:rgb(38,50,56);fill-rule:nonzero;"/>
                <path d="M543.309,630.08C540.792,630.08 538.498,629.625 536.429,628.714C534.36,627.804 532.568,626.554 531.053,624.966C529.538,623.378 528.365,621.547 527.533,619.471C526.701,617.396 526.285,615.194 526.285,612.864C526.285,609.73 527.01,606.872 528.461,604.288C529.912,601.705 531.928,599.63 534.509,598.063C537.09,596.496 540.045,595.712 543.373,595.712C546.744,595.712 549.677,596.507 552.173,598.096C554.669,599.686 556.61,601.762 557.997,604.326C559.384,606.89 560.077,609.656 560.077,612.623C560.077,613.047 560.066,613.46 560.045,613.862C560.024,614.265 559.992,614.572 559.949,614.784L532.237,614.784C532.408,616.936 533.016,618.844 534.061,620.51C535.106,622.176 536.461,623.484 538.125,624.433C539.789,625.382 541.581,625.856 543.501,625.856C545.549,625.856 547.48,625.344 549.293,624.32C551.106,623.296 552.354,621.952 553.037,620.288L557.901,621.632C557.176,623.254 556.098,624.704 554.669,625.984C553.24,627.264 551.554,628.267 549.613,628.992C547.672,629.718 545.57,630.08 543.309,630.08ZM532.045,610.88L554.829,610.88C554.658,608.73 554.04,606.832 552.973,605.187C551.906,603.542 550.541,602.256 548.877,601.328C547.213,600.4 545.378,599.936 543.373,599.936C541.41,599.936 539.597,600.4 537.933,601.328C536.269,602.256 534.914,603.542 533.869,605.187C532.824,606.832 532.216,608.73 532.045,610.88Z" style="fill:rgb(38,50,56);fill-rule:nonzero;"/>
            </g>
        </g>
        <g transform="matrix(1,0,0,1,-5.68434e-13,-26.1565)">
            <g transform="matrix(0.0336985,0,0,0.0336347,-552.366,-297.194)">
                <path d="M136,20344L6201,13336L24232,13336L18168,20344L136,20344Z" style="fill:white;fill-opacity:0.51;stroke:rgb(61,75,95);stroke-width:133.13px;"/>
            </g>
            <g transform="matrix(1,0,0,1,-617.188,-344.023)">
                <path d="M343.885,584L350.669,584L368.333,629.44L360.781,629.44L356.341,617.088L338.17,617.088L333.709,629.44L326.093,629.44L343.885,584ZM354.432,611.776L347.277,591.872L340.089,611.776L354.432,611.776Z" style="fill:rgb(38,50,56);fill-rule:nonzero;"/>
                <path d="M387.213,630.08C384.61,630.08 382.253,629.626 380.141,628.717C378.029,627.808 376.205,626.55 374.669,624.944C373.133,623.338 371.949,621.499 371.117,619.427C370.285,617.356 369.869,615.158 369.869,612.833C369.869,609.705 370.584,606.851 372.013,604.272C373.442,601.694 375.448,599.622 378.029,598.058C380.61,596.494 383.672,595.712 387.213,595.712C390.626,595.712 393.602,596.47 396.141,597.984C398.68,599.499 400.546,601.515 401.741,604.032L394.893,606.208C394.125,604.8 393.048,603.702 391.661,602.912C390.274,602.123 388.749,601.728 387.085,601.728C385.208,601.728 383.512,602.202 381.997,603.148C380.482,604.094 379.288,605.398 378.413,607.06C377.538,608.722 377.101,610.646 377.101,612.833C377.101,614.937 377.549,616.84 378.445,618.543C379.341,620.247 380.546,621.593 382.061,622.581C383.576,623.57 385.272,624.064 387.149,624.064C388.301,624.064 389.421,623.862 390.509,623.456C391.597,623.051 392.546,622.496 393.357,621.792C394.168,621.088 394.744,620.31 395.085,619.456L401.997,621.504C401.272,623.168 400.194,624.64 398.765,625.92C397.336,627.2 395.65,628.214 393.709,628.96C391.768,629.707 389.602,630.08 387.213,630.08Z" style="fill:rgb(38,50,56);fill-rule:nonzero;"/>
                <path d="M426.445,627.84C425.848,628.139 425.101,628.459 424.205,628.8C423.309,629.142 422.296,629.44 421.165,629.696C420.034,629.952 418.872,630.08 417.677,630.08C416.226,630.08 414.882,629.826 413.645,629.316C412.408,628.806 411.416,627.989 410.669,626.863C409.922,625.737 409.549,624.282 409.549,622.498L409.549,601.664L405.133,601.664L405.133,596.224L409.549,596.224L409.549,585.216L416.589,585.216L416.589,596.224L423.885,596.224L423.885,601.664L416.589,601.664L416.589,620.244C416.674,621.39 417.048,622.238 417.709,622.789C418.37,623.341 419.192,623.616 420.173,623.616C421.154,623.616 422.093,623.446 422.989,623.104C423.885,622.763 424.546,622.486 424.973,622.272L426.445,627.84Z" style="fill:rgb(38,50,56);fill-rule:nonzero;"/>
                <path d="M448.013,629.44L448.013,584L467.085,584C469.133,584 471.01,584.427 472.717,585.28C474.424,586.134 475.917,587.264 477.197,588.672C478.477,590.08 479.458,591.659 480.141,593.408C480.824,595.158 481.165,596.95 481.165,598.784C481.165,601.302 480.6,603.702 479.469,605.984C478.338,608.267 476.738,610.112 474.669,611.52C472.6,612.928 470.2,613.632 467.469,613.632L455.181,613.632L455.181,629.44L448.013,629.44ZM455.181,607.296L467.021,607.296C468.386,607.296 469.581,606.923 470.605,606.176C471.629,605.43 472.429,604.416 473.005,603.136C473.581,601.856 473.869,600.406 473.869,598.784C473.869,597.12 473.528,595.648 472.845,594.368C472.162,593.088 471.277,592.096 470.189,591.392C469.101,590.688 467.917,590.336 466.637,590.336L455.181,590.336L455.181,607.296Z" style="fill:rgb(38,50,56);fill-rule:nonzero;"/>
                <path d="M487.053,582.72L494.093,582.72L494.093,619.892C494.093,621.604 494.349,622.696 494.861,623.166C495.373,623.637 496.013,623.872 496.781,623.872C497.634,623.872 498.434,623.787 499.181,623.616C499.928,623.446 500.578,623.232 501.133,622.976L502.157,628.544C501.133,628.971 499.917,629.334 498.509,629.632C497.101,629.931 495.842,630.08 494.733,630.08C492.344,630.08 490.466,629.407 489.101,628.059C487.736,626.711 487.053,624.839 487.053,622.443L487.053,582.72Z" style="fill:rgb(38,50,56);fill-rule:nonzero;"/>
                <path d="M503.821,619.743C503.821,617.629 504.429,615.78 505.645,614.194C506.861,612.609 508.536,611.383 510.669,610.516C512.802,609.65 515.277,609.216 518.093,609.216C519.586,609.216 521.112,609.323 522.669,609.536C524.226,609.75 525.602,610.091 526.797,610.56L526.797,608.46C526.797,606.15 526.093,604.343 524.685,603.041C523.277,601.739 521.25,601.088 518.605,601.088C516.728,601.088 514.957,601.419 513.293,602.08C511.629,602.742 509.858,603.67 507.981,604.864L505.613,600.128C507.832,598.635 510.061,597.526 512.301,596.8C514.541,596.075 516.898,595.712 519.373,595.712C523.853,595.712 527.384,596.883 529.965,599.224C532.546,601.566 533.837,604.888 533.837,609.19L533.837,621.53C533.837,622.332 533.976,622.901 534.253,623.239C534.53,623.577 535.01,623.766 535.693,623.808L535.693,629.44C535.053,629.568 534.477,629.654 533.965,629.696C533.453,629.739 533.026,629.76 532.685,629.76C531.192,629.76 530.061,629.398 529.293,628.672C528.525,627.947 528.077,627.094 527.949,626.112L527.757,624.192C526.306,626.07 524.45,627.52 522.189,628.544C519.928,629.568 517.645,630.08 515.341,630.08C513.122,630.08 511.138,629.626 509.389,628.717C507.64,627.808 506.274,626.571 505.293,625.007C504.312,623.443 503.821,621.688 503.821,619.743ZM525.133,621.749C525.645,621.204 526.05,620.659 526.349,620.113C526.648,619.567 526.797,619.085 526.797,618.665L526.797,614.889C525.602,614.427 524.344,614.081 523.021,613.85C521.698,613.62 520.397,613.504 519.117,613.504C516.557,613.504 514.477,614.008 512.877,615.015C511.277,616.022 510.477,617.407 510.477,619.169C510.477,620.134 510.744,621.057 511.277,621.938C511.81,622.82 512.578,623.533 513.581,624.078C514.584,624.624 515.832,624.896 517.325,624.896C518.861,624.896 520.333,624.603 521.741,624.015C523.149,623.428 524.28,622.673 525.133,621.749Z" style="fill:rgb(38,50,56);fill-rule:nonzero;"/>
                <path d="M542.285,637.312C542.925,637.398 543.554,637.494 544.173,637.6C544.792,637.707 545.293,637.76 545.677,637.76C546.402,637.76 547.032,637.538 547.565,637.093C548.098,636.648 548.642,635.834 549.197,634.65C549.752,633.467 550.434,631.756 551.245,629.516L537.485,596.224L544.845,596.224L555.085,622.386L564.173,596.224L570.957,596.224L555.789,637.218C555.32,638.449 554.637,639.584 553.741,640.624C552.845,641.664 551.736,642.481 550.413,643.076C549.09,643.671 547.533,643.968 545.741,643.968C545.229,643.968 544.696,643.926 544.141,643.84C543.586,643.755 542.968,643.627 542.285,643.456L542.285,637.312Z" style="fill:rgb(38,50,56);fill-rule:nonzero;"/>
                <path d="M590.157,630.08C587.554,630.08 585.197,629.625 583.085,628.714C580.973,627.804 579.149,626.554 577.613,624.966C576.077,623.378 574.893,621.557 574.061,619.503C573.229,617.449 572.813,615.258 572.813,612.928C572.813,609.806 573.538,606.947 574.989,604.352C576.44,601.757 578.466,599.668 581.069,598.086C583.672,596.504 586.722,595.712 590.221,595.712C593.72,595.712 596.738,596.505 599.277,598.089C601.816,599.673 603.789,601.754 605.197,604.331C606.605,606.909 607.309,609.676 607.309,612.633C607.309,613.141 607.288,613.616 607.245,614.059C607.202,614.503 607.16,614.872 607.117,615.168L580.301,615.168C580.429,617.106 580.973,618.801 581.933,620.253C582.893,621.706 584.12,622.843 585.613,623.664C587.106,624.486 588.706,624.896 590.413,624.896C592.29,624.896 594.072,624.427 595.757,623.488C597.442,622.55 598.584,621.312 599.181,619.776L605.197,621.504C604.472,623.126 603.373,624.587 601.901,625.888C600.429,627.19 598.69,628.214 596.685,628.96C594.68,629.707 592.504,630.08 590.157,630.08ZM580.109,610.496L600.333,610.496C600.205,608.614 599.661,606.951 598.701,605.508C597.741,604.065 596.525,602.936 595.053,602.12C593.581,601.304 591.949,600.896 590.157,600.896C588.408,600.896 586.797,601.304 585.325,602.12C583.853,602.936 582.648,604.065 581.709,605.508C580.77,606.951 580.237,608.614 580.109,610.496Z" style="fill:rgb(38,50,56);fill-rule:nonzero;"/>
                <path d="M631.885,602.048C629.154,602.091 626.733,602.71 624.621,603.904C622.509,605.099 621.005,606.784 620.109,608.96L620.109,629.44L613.069,629.44L613.069,596.224L619.597,596.224L619.597,603.456C620.749,601.152 622.264,599.307 624.141,597.92C626.018,596.534 628.002,595.776 630.093,595.648L631.149,595.648C631.426,595.648 631.672,595.67 631.885,595.712L631.885,602.048Z" style="fill:rgb(38,50,56);fill-rule:nonzero;"/>
            </g>
        </g>
        <g transform="matrix(1,0,0,1,-5.68434e-13,-14.3282)">
            <g transform="matrix(0.0336985,0,0,0.0336347,-552.366,-275.963)">
                <path d="M136,13704L6201,6696L24232,6696L18168,13704L136,13704Z" style="fill:white;fill-opacity:0.51;stroke:rgb(61,75,95);stroke-width:133.13px;"/>
            </g>
            <g transform="matrix(1,0,0,1,-531.684,-539.609)">
                <path d="M357.453,595.904C357.154,595.606 356.61,595.2 355.821,594.688C355.032,594.176 354.072,593.686 352.941,593.216C351.81,592.747 350.584,592.331 349.261,591.968C347.938,591.606 346.594,591.424 345.229,591.424C342.84,591.424 341.037,591.87 339.821,592.762C338.605,593.654 337.997,594.906 337.997,596.518C337.997,597.75 338.381,598.726 339.149,599.448C339.917,600.17 341.069,600.785 342.605,601.295C344.141,601.805 346.061,602.356 348.365,602.95C351.352,603.672 353.944,604.553 356.141,605.593C358.338,606.633 360.024,607.992 361.197,609.669C362.37,611.346 362.957,613.564 362.957,616.323C362.957,618.743 362.509,620.813 361.613,622.532C360.717,624.252 359.48,625.642 357.901,626.703C356.322,627.765 354.53,628.54 352.525,629.028C350.52,629.516 348.386,629.76 346.125,629.76C343.864,629.76 341.602,629.526 339.341,629.056C337.08,628.587 334.904,627.915 332.813,627.04C330.722,626.166 328.802,625.11 327.053,623.872L330.957,616.256C331.341,616.64 332.024,617.142 333.005,617.76C333.986,618.379 335.181,618.998 336.589,619.616C337.997,620.235 339.533,620.758 341.197,621.184C342.861,621.611 344.546,621.824 346.253,621.824C348.642,621.824 350.456,621.424 351.693,620.622C352.93,619.82 353.549,618.681 353.549,617.204C353.549,615.845 353.058,614.783 352.077,614.018C351.096,613.253 349.73,612.584 347.981,612.01C346.232,611.436 344.162,610.81 341.773,610.13C338.914,609.323 336.525,608.42 334.605,607.421C332.685,606.423 331.256,605.159 330.317,603.629C329.378,602.1 328.909,600.188 328.909,597.893C328.909,594.791 329.645,592.189 331.117,590.086C332.589,587.983 334.584,586.39 337.101,585.306C339.618,584.222 342.413,583.68 345.485,583.68C347.618,583.68 349.634,583.915 351.533,584.384C353.432,584.854 355.213,585.472 356.877,586.24C358.541,587.008 360.034,587.84 361.357,588.736L357.453,595.904Z" style="fill:rgb(38,50,56);fill-rule:nonzero;"/>
                <path d="M369.613,629.44L369.613,584L386.125,584C391.074,584 395.213,585.014 398.541,587.04C401.869,589.067 404.365,591.798 406.029,595.232C407.693,598.667 408.525,602.475 408.525,606.656C408.525,611.264 407.608,615.275 405.773,618.688C403.938,622.102 401.346,624.747 397.997,626.624C394.648,628.502 390.69,629.44 386.125,629.44L369.613,629.44ZM399.629,606.656C399.629,603.712 399.096,601.12 398.029,598.88C396.962,596.64 395.426,594.891 393.421,593.632C391.416,592.374 388.984,591.744 386.125,591.744L378.445,591.744L378.445,621.696L386.125,621.696C389.026,621.696 391.48,621.046 393.485,619.744C395.49,618.443 397.016,616.651 398.061,614.368C399.106,612.086 399.629,609.515 399.629,606.656Z" style="fill:rgb(38,50,56);fill-rule:nonzero;"/>
                <path d="M415.437,629.44L415.437,584L424.269,584L424.269,605.598L443.341,583.936L453.069,583.936L435.661,604.124L454.157,629.44L444.173,629.44L430.029,609.828L424.269,615.853L424.269,629.44L415.437,629.44Z" style="fill:rgb(38,50,56);fill-rule:nonzero;"/>
            </g>
        </g>
        <g transform="matrix(1,0,0,1,-5.68434e-13,-2.5)">
            <g transform="matrix(0.0336985,0,0,0.0336347,-552.366,-254.194)">
                <path d="M136,7048L6187,56L24232,56L18182,7048L136,7048Z" style="fill:white;fill-opacity:0.51;stroke:rgb(61,75,95);stroke-width:133.13px;"/>
            </g>
            <g transform="matrix(1,0,0,1,-546.564,-741.124)">
                <path d="M357.261,597.376C357.133,597.163 356.685,596.832 355.917,596.384C355.149,595.936 354.189,595.456 353.037,594.944C351.885,594.432 350.626,593.984 349.261,593.6C347.896,593.216 346.53,593.024 345.165,593.024C343.373,593.024 341.986,593.332 341.005,593.946C340.024,594.56 339.533,595.503 339.533,596.774C339.533,597.791 339.906,598.596 340.653,599.189C341.4,599.783 342.477,600.302 343.885,600.747C345.293,601.192 347.021,601.711 349.069,602.303C351.97,603.066 354.488,603.988 356.621,605.068C358.754,606.149 360.386,607.537 361.517,609.231C362.648,610.926 363.213,613.172 363.213,615.968C363.213,618.511 362.744,620.662 361.805,622.42C360.866,624.178 359.597,625.598 357.997,626.678C356.397,627.758 354.573,628.542 352.525,629.029C350.477,629.517 348.365,629.76 346.189,629.76C343.97,629.76 341.698,629.536 339.373,629.088C337.048,628.64 334.818,628 332.685,627.168C330.552,626.336 328.589,625.323 326.797,624.128L331.405,614.976C331.576,615.19 332.13,615.584 333.069,616.16C334.008,616.736 335.17,617.334 336.557,617.952C337.944,618.571 339.49,619.115 341.197,619.584C342.904,620.054 344.632,620.288 346.381,620.288C348.258,620.288 349.656,619.996 350.573,619.411C351.49,618.827 351.949,618.012 351.949,616.967C351.949,615.822 351.469,614.931 350.509,614.294C349.549,613.658 348.248,613.085 346.605,612.576C344.962,612.067 343.074,611.494 340.941,610.857C338.168,610.009 335.874,609.054 334.061,607.993C332.248,606.933 330.904,605.639 330.029,604.111C329.154,602.583 328.717,600.674 328.717,598.382C328.717,595.2 329.474,592.517 330.989,590.331C332.504,588.146 334.541,586.491 337.101,585.367C339.661,584.243 342.456,583.68 345.485,583.68C347.618,583.68 349.677,583.936 351.661,584.448C353.645,584.96 355.501,585.6 357.229,586.368C358.957,587.136 360.504,587.904 361.869,588.672L357.261,597.376Z" style="fill:rgb(38,50,56);fill-rule:nonzero;"/>
                <path d="M400.653,629.44L390.413,629.44L390.413,610.943C390.413,608.812 389.976,607.245 389.101,606.241C388.226,605.238 387.064,604.736 385.613,604.736C384.845,604.736 383.981,604.973 383.021,605.445C382.061,605.917 381.176,606.584 380.365,607.446C379.554,608.308 378.936,609.314 378.509,610.464L378.509,629.44L368.269,629.44L368.269,582.72L378.509,582.72L378.509,601.89C379.746,599.915 381.378,598.392 383.405,597.32C385.432,596.248 387.661,595.712 390.093,595.712C392.397,595.712 394.242,596.091 395.629,596.847C397.016,597.604 398.072,598.602 398.797,599.842C399.522,601.082 400.013,602.437 400.269,603.908C400.525,605.379 400.653,606.829 400.653,608.258L400.653,629.44Z" style="fill:rgb(38,50,56);fill-rule:nonzero;"/>
                <path d="M423.501,630.08C420.642,630.08 418.104,629.627 415.885,628.72C413.666,627.813 411.778,626.579 410.221,625.018C408.664,623.457 407.48,621.653 406.669,619.607C405.858,617.561 405.453,615.42 405.453,613.184C405.453,610 406.168,607.098 407.597,604.479C409.026,601.861 411.085,599.745 413.773,598.132C416.461,596.519 419.704,595.712 423.501,595.712C427.298,595.712 430.53,596.51 433.197,598.106C435.864,599.702 437.901,601.792 439.309,604.375C440.717,606.959 441.421,609.763 441.421,612.787C441.421,613.375 441.389,613.953 441.325,614.52C441.261,615.087 441.208,615.58 441.165,616L416.333,616C416.461,617.452 416.877,618.676 417.581,619.671C418.285,620.667 419.192,621.424 420.301,621.942C421.41,622.461 422.584,622.72 423.821,622.72C425.357,622.72 426.797,622.358 428.141,621.632C429.485,620.907 430.413,619.926 430.925,618.688L439.629,621.12C438.776,622.87 437.57,624.416 436.013,625.76C434.456,627.104 432.621,628.16 430.509,628.928C428.397,629.696 426.061,630.08 423.501,630.08ZM416.077,609.728L430.669,609.728C430.498,608.385 430.093,607.215 429.453,606.217C428.813,605.22 427.96,604.447 426.893,603.897C425.826,603.347 424.653,603.072 423.373,603.072C422.05,603.072 420.866,603.347 419.821,603.897C418.776,604.447 417.933,605.22 417.293,606.217C416.653,607.215 416.248,608.385 416.077,609.728Z" style="fill:rgb(38,50,56);fill-rule:nonzero;"/>
                <path d="M445.965,582.72L456.205,582.72L456.205,617.53C456.205,618.94 456.461,619.945 456.973,620.543C457.485,621.141 458.21,621.44 459.149,621.44C459.789,621.44 460.44,621.344 461.101,621.152C461.762,620.96 462.349,620.736 462.861,620.48L464.205,628.16C462.925,628.758 461.453,629.227 459.789,629.568C458.125,629.91 456.568,630.08 455.117,630.08C452.216,630.08 449.965,629.301 448.365,627.741C446.765,626.182 445.965,623.971 445.965,621.108L445.965,582.72Z" style="fill:rgb(38,50,56);fill-rule:nonzero;"/>
                <path d="M467.405,582.72L477.645,582.72L477.645,617.53C477.645,618.94 477.901,619.945 478.413,620.543C478.925,621.141 479.65,621.44 480.589,621.44C481.229,621.44 481.88,621.344 482.541,621.152C483.202,620.96 483.789,620.736 484.301,620.48L485.645,628.16C484.365,628.758 482.893,629.227 481.229,629.568C479.565,629.91 478.008,630.08 476.557,630.08C473.656,630.08 471.405,629.301 469.805,627.741C468.205,626.182 467.405,623.971 467.405,621.108L467.405,582.72Z" style="fill:rgb(38,50,56);fill-rule:nonzero;"/>
            </g>
        </g>
    </g>
</svg>
