<?xml version="1.0" encoding="UTF-8" standalone="no"?>
<!DOCTYPE svg PUBLIC "-//W3C//DTD SVG 1.1//EN" "http://www.w3.org/Graphics/SVG/1.1/DTD/svg11.dtd">
<svg width="100%" height="100%" viewBox="0 0 812 811" version="1.1" xmlns="http://www.w3.org/2000/svg" xmlns:xlink="http://www.w3.org/1999/xlink" xml:space="preserve" xmlns:serif="http://www.serif.com/" style="fill-rule:evenodd;clip-rule:evenodd;stroke-linejoin:round;stroke-miterlimit:2;">
    <g transform="matrix(1,0,0,1,-422,-594)">
        <g transform="matrix(0.146636,0,0,0.831459,425.133,608.394)">
            <path d="M509.99,91.339C509.99,89.811 502.968,88.573 494.305,88.573L2.5,88.573C-6.163,88.573 -13.185,89.811 -13.185,91.339L-13.185,209.5C-13.185,211.028 -6.163,212.266 2.5,212.266L494.305,212.266C502.968,212.266 509.99,211.028 509.99,209.5L509.99,91.339ZM478.62,94.105L478.62,206.734C478.62,206.734 18.185,206.734 18.185,206.734C18.185,206.734 18.185,94.105 18.185,94.105L478.62,94.105Z" style="fill:rgb(28,30,33);"/>
        </g>
        <g transform="matrix(0.612312,0,0,0.305173,548.093,804.042)">
            <path d="M498.061,91.339C498.061,87.177 496.38,83.802 494.305,83.802L2.5,83.802C0.425,83.802 -1.256,87.177 -1.256,91.339L-1.256,209.5C-1.256,213.662 0.425,217.037 2.5,217.037L494.305,217.037C496.38,217.037 498.061,213.662 498.061,209.5L498.061,91.339ZM490.549,98.876L490.549,201.963C490.549,201.963 6.256,201.963 6.256,201.963C6.256,201.963 6.256,98.876 6.256,98.876C51.516,98.876 490.549,98.876 490.549,98.876L490.549,98.876Z" style="fill:rgb(28,30,33);"/>
        </g>
        <g transform="matrix(0.612312,0,0,0.305173,722.348,866.796)">
            <path d="M498.061,91.339C498.061,87.177 496.38,83.802 494.305,83.802L2.5,83.802C0.425,83.802 -1.256,87.177 -1.256,91.339L-1.256,209.5C-1.256,213.662 0.425,217.037 2.5,217.037L494.305,217.037C496.38,217.037 498.061,213.662 498.061,209.5L498.061,91.339ZM490.549,98.876L490.549,201.963C490.549,201.963 6.256,201.963 6.256,201.963C6.256,201.963 6.256,98.876 6.256,98.876C49.245,98.876 447.559,98.876 490.549,98.876L490.549,98.876Z" style="fill:rgb(28,30,33);"/>
        </g>
        <g transform="matrix(0.612312,0,0,0.305173,651.483,1057.98)">
            <path d="M498.061,91.339C498.061,87.177 496.38,83.802 494.305,83.802L2.5,83.802C0.425,83.802 -1.256,87.177 -1.256,91.339L-1.256,209.5C-1.256,213.662 0.425,217.037 2.5,217.037L494.305,217.037C496.38,217.037 498.061,213.662 498.061,209.5L498.061,91.339ZM490.549,98.876L490.549,201.963C490.549,201.963 51.516,201.963 6.256,201.963C6.256,201.963 6.256,98.876 6.256,98.876C6.256,98.876 490.549,98.876 490.549,98.876L490.549,98.876Z" style="fill:rgb(28,30,33);"/>
        </g>
        <g transform="matrix(0.612312,0,0,0.305173,548.093,992.467)">
            <path d="M498.061,91.339C498.061,87.177 496.38,83.802 494.305,83.802L2.5,83.802C0.425,83.802 -1.256,87.177 -1.256,91.339L-1.256,209.5C-1.256,213.662 0.425,217.037 2.5,217.037L494.305,217.037C496.38,217.037 498.061,213.662 498.061,209.5L498.061,91.339ZM490.549,98.876L490.549,201.963C490.549,201.963 6.256,201.963 6.256,201.963C6.256,201.963 6.256,98.876 6.256,98.876C6.256,98.876 490.549,98.876 490.549,98.876L490.549,98.876Z" style="fill:rgb(28,30,33);"/>
        </g>
        <g transform="matrix(0.612312,0,0,0.305173,635.549,929.566)">
            <path d="M498.061,91.339C498.061,87.177 496.38,83.802 494.305,83.802L2.5,83.802C0.425,83.802 -1.256,87.177 -1.256,91.339L-1.256,209.5C-1.256,213.662 0.425,217.037 2.5,217.037L494.305,217.037C496.38,217.037 498.061,213.662 498.061,209.5L498.061,91.339ZM490.549,98.876L490.549,201.963C490.549,201.963 51.516,201.963 6.256,201.963C6.256,201.963 6.256,98.876 6.256,98.876C51.516,98.876 490.549,98.876 490.549,98.876L490.549,98.876Z" style="fill:rgb(28,30,33);"/>
        </g>
        <g transform="matrix(-0.123436,0,0,0.305173,1025.33,929.566)">
            <path d="M494.305,83.802C504.596,83.802 512.938,87.177 512.938,91.339L512.938,209.5C512.938,213.662 504.596,217.037 494.305,217.037L2.5,217.037C-7.791,217.037 -16.133,213.662 -16.133,209.5L-16.133,91.339C-16.133,87.177 -7.791,83.802 2.5,83.802L494.305,83.802ZM475.672,98.876L21.133,98.876C21.133,98.876 21.133,201.963 21.133,201.963C21.133,201.963 475.672,201.963 475.672,201.963L475.672,98.876Z" style="fill:rgb(28,30,33);"/>
        </g>
        <g transform="matrix(-0.238208,0,0,0.305173,995.259,992.467)">
            <path d="M494.305,83.802C499.638,83.802 503.96,87.177 503.96,91.339L503.96,209.5C503.96,213.662 499.638,217.037 494.305,217.037L2.5,217.037C-2.833,217.037 -7.155,213.662 -7.155,209.5L-7.155,91.339C-7.155,87.177 -2.833,83.802 2.5,83.802L494.305,83.802ZM484.65,98.876L12.155,98.876C12.155,98.876 12.155,201.963 12.155,201.963C12.155,201.963 484.65,201.963 484.65,201.963L484.65,98.876Z" style="fill:rgb(28,30,33);"/>
        </g>
        <g transform="matrix(0.96663,0,0,0.831459,547.207,607.631)">
            <path d="M496.684,91.339C496.684,89.811 495.619,88.573 494.305,88.573L2.5,88.573C1.186,88.573 0.121,89.811 0.121,91.339L0.121,209.5C0.121,211.028 1.186,212.266 2.5,212.266L494.305,212.266C495.619,212.266 496.684,211.028 496.684,209.5L496.684,91.339ZM491.926,94.105L491.926,206.734C491.926,206.734 4.879,206.734 4.879,206.734C4.879,206.734 4.879,94.105 4.879,94.105C41.637,94.105 491.926,94.105 491.926,94.105L491.926,94.105Z" style="fill:rgb(28,30,33);"/>
        </g>
        <g transform="matrix(0.320036,0,0,0.831459,1071.8,607.631)">
            <path d="M501.492,91.339C501.492,89.811 498.274,88.573 494.305,88.573L2.5,88.573C-1.469,88.573 -4.687,89.811 -4.687,91.339L-4.687,209.5C-4.687,211.028 -1.469,212.266 2.5,212.266L494.305,212.266C498.274,212.266 501.492,211.028 501.492,209.5L501.492,91.339ZM487.118,94.105L487.118,206.734C431.146,206.734 65.659,206.734 9.687,206.734C9.687,206.734 9.687,94.105 9.687,94.105L487.118,94.105Z" style="fill:rgb(28,30,33);"/>
        </g>
        <g transform="matrix(1,0,0,1,632.888,752.763)">
            <path d="M31.808,-33.536C31.509,-33.835 30.965,-34.24 30.176,-34.752C29.387,-35.264 28.427,-35.755 27.296,-36.224C26.165,-36.693 24.939,-37.109 23.616,-37.472C22.293,-37.835 20.949,-38.016 19.584,-38.016C17.195,-38.016 15.392,-37.57 14.176,-36.679C12.96,-35.787 12.352,-34.535 12.352,-32.922C12.352,-31.691 12.736,-30.714 13.504,-29.993C14.272,-29.271 15.424,-28.655 16.96,-28.145C18.496,-27.636 20.416,-27.084 22.72,-26.49C25.707,-25.768 28.299,-24.887 30.496,-23.847C32.693,-22.807 34.379,-21.449 35.552,-19.772C36.725,-18.095 37.312,-15.876 37.312,-13.117C37.312,-10.697 36.864,-8.627 35.968,-6.908C35.072,-5.189 33.835,-3.798 32.256,-2.737C30.677,-1.676 28.885,-0.901 26.88,-0.412C24.875,0.076 22.741,0.32 20.48,0.32C18.219,0.32 15.957,0.085 13.696,-0.384C11.435,-0.853 9.259,-1.525 7.168,-2.4C5.077,-3.275 3.157,-4.331 1.408,-5.568L5.312,-13.184C5.696,-12.8 6.379,-12.299 7.36,-11.68C8.341,-11.061 9.536,-10.443 10.944,-9.824C12.352,-9.205 13.888,-8.683 15.552,-8.256C17.216,-7.829 18.901,-7.616 20.608,-7.616C22.997,-7.616 24.811,-8.017 26.048,-8.819C27.285,-9.62 27.904,-10.759 27.904,-12.236C27.904,-13.595 27.413,-14.658 26.432,-15.423C25.451,-16.188 24.085,-16.857 22.336,-17.431C20.587,-18.004 18.517,-18.631 16.128,-19.31C13.269,-20.117 10.88,-21.02 8.96,-22.019C7.04,-23.018 5.611,-24.282 4.672,-25.811C3.733,-27.34 3.264,-29.252 3.264,-31.547C3.264,-34.649 4,-37.252 5.472,-39.355C6.944,-41.458 8.939,-43.051 11.456,-44.135C13.973,-45.218 16.768,-45.76 19.84,-45.76C21.973,-45.76 23.989,-45.525 25.888,-45.056C27.787,-44.587 29.568,-43.968 31.232,-43.2C32.896,-42.432 34.389,-41.6 35.712,-40.704L31.808,-33.536Z" style="fill:rgb(38,50,56);fill-rule:nonzero;"/>
            <path d="M58.688,0.64C56,0.64 53.568,0.186 51.392,-0.721C49.216,-1.628 47.36,-2.872 45.824,-4.455C44.288,-6.037 43.104,-7.851 42.272,-9.898C41.44,-11.944 41.024,-14.106 41.024,-16.384C41.024,-19.549 41.739,-22.439 43.168,-25.056C44.597,-27.673 46.645,-29.772 49.312,-31.355C51.979,-32.937 55.125,-33.728 58.752,-33.728C62.421,-33.728 65.557,-32.936 68.16,-31.351C70.763,-29.766 72.757,-27.674 74.144,-25.076C75.531,-22.477 76.224,-19.677 76.224,-16.676C76.224,-16.169 76.203,-15.652 76.16,-15.124C76.117,-14.595 76.075,-14.162 76.032,-13.824L50.112,-13.824C50.283,-12.157 50.784,-10.698 51.616,-9.447C52.448,-8.196 53.515,-7.248 54.816,-6.602C56.117,-5.955 57.515,-5.632 59.008,-5.632C60.715,-5.632 62.325,-6.048 63.84,-6.88C65.355,-7.712 66.389,-8.811 66.944,-10.176L74.304,-8.128C73.493,-6.421 72.331,-4.907 70.816,-3.584C69.301,-2.261 67.52,-1.227 65.472,-0.48C63.424,0.267 61.163,0.64 58.688,0.64ZM49.92,-19.264L67.456,-19.264C67.285,-20.932 66.805,-22.381 66.016,-23.611C65.227,-24.841 64.192,-25.8 62.912,-26.488C61.632,-27.176 60.203,-27.52 58.624,-27.52C57.088,-27.52 55.691,-27.176 54.432,-26.488C53.173,-25.8 52.149,-24.841 51.36,-23.611C50.571,-22.381 50.091,-20.932 49.92,-19.264Z" style="fill:rgb(38,50,56);fill-rule:nonzero;"/>
            <path d="M94.144,0.64C92.011,0.64 90.048,0.186 88.256,-0.721C86.464,-1.628 84.907,-2.862 83.584,-4.424C82.261,-5.985 81.248,-7.82 80.544,-9.93C79.84,-12.04 79.488,-14.276 79.488,-16.639C79.488,-19.044 79.883,-21.281 80.672,-23.348C81.461,-25.415 82.56,-27.23 83.968,-28.791C85.376,-30.352 87.04,-31.566 88.96,-32.431C90.88,-33.295 92.949,-33.728 95.168,-33.728C97.728,-33.728 99.989,-33.148 101.952,-31.988C103.915,-30.827 105.515,-29.298 106.752,-27.399L106.752,-33.216L114.24,-33.216L114.24,13.632L105.664,13.632L105.664,-5.816C103.104,-1.512 99.264,0.64 94.144,0.64ZM97.344,-6.656C98.581,-6.656 99.701,-6.885 100.704,-7.342C101.707,-7.799 102.624,-8.433 103.456,-9.244C104.288,-10.055 105.024,-10.98 105.664,-12.019L105.664,-19.867C105.451,-20.784 105.056,-21.639 104.48,-22.43C103.904,-23.222 103.221,-23.92 102.432,-24.525C101.643,-25.13 100.8,-25.599 99.904,-25.932C99.008,-26.265 98.112,-26.432 97.216,-26.432C95.893,-26.432 94.688,-26.16 93.6,-25.616C92.512,-25.072 91.563,-24.329 90.752,-23.388C89.941,-22.446 89.323,-21.379 88.896,-20.186C88.469,-18.993 88.256,-17.726 88.256,-16.387C88.256,-14.587 88.64,-12.955 89.408,-11.49C90.176,-10.025 91.243,-8.854 92.608,-7.975C93.973,-7.096 95.552,-6.656 97.344,-6.656Z" style="fill:rgb(38,50,56);fill-rule:nonzero;"/>
            <path d="M121.728,-12.421L121.728,-33.216L130.304,-33.216L130.304,-14.308C130.304,-11.779 130.773,-9.871 131.712,-8.585C132.651,-7.299 134.037,-6.656 135.872,-6.656C136.981,-6.656 138.08,-6.875 139.168,-7.314C140.256,-7.753 141.259,-8.411 142.176,-9.289C143.093,-10.166 143.872,-11.274 144.512,-12.611L144.512,-33.216L153.088,-33.216L153.088,-9.568C153.088,-8.683 153.248,-8.051 153.568,-7.672C153.888,-7.292 154.411,-7.06 155.136,-6.976L155.136,0C154.283,0.128 153.568,0.224 152.992,0.288C152.416,0.352 151.893,0.384 151.424,0.384C149.888,0.384 148.64,0.035 147.68,-0.663C146.72,-1.361 146.155,-2.322 145.984,-3.547L145.792,-6.207C144.299,-3.967 142.379,-2.266 140.032,-1.104C137.685,0.059 135.104,0.64 132.288,0.64C128.832,0.64 126.208,-0.469 124.416,-2.689C122.624,-4.908 121.728,-8.152 121.728,-12.421Z" style="fill:rgb(38,50,56);fill-rule:nonzero;"/>
            <path d="M177.152,0.64C174.464,0.64 172.032,0.186 169.856,-0.721C167.68,-1.628 165.824,-2.872 164.288,-4.455C162.752,-6.037 161.568,-7.851 160.736,-9.898C159.904,-11.944 159.488,-14.106 159.488,-16.384C159.488,-19.549 160.203,-22.439 161.632,-25.056C163.061,-27.673 165.109,-29.772 167.776,-31.355C170.443,-32.937 173.589,-33.728 177.216,-33.728C180.885,-33.728 184.021,-32.936 186.624,-31.351C189.227,-29.766 191.221,-27.674 192.608,-25.076C193.995,-22.477 194.688,-19.677 194.688,-16.676C194.688,-16.169 194.667,-15.652 194.624,-15.124C194.581,-14.595 194.539,-14.162 194.496,-13.824L168.576,-13.824C168.747,-12.157 169.248,-10.698 170.08,-9.447C170.912,-8.196 171.979,-7.248 173.28,-6.602C174.581,-5.955 175.979,-5.632 177.472,-5.632C179.179,-5.632 180.789,-6.048 182.304,-6.88C183.819,-7.712 184.853,-8.811 185.408,-10.176L192.768,-8.128C191.957,-6.421 190.795,-4.907 189.28,-3.584C187.765,-2.261 185.984,-1.227 183.936,-0.48C181.888,0.267 179.627,0.64 177.152,0.64ZM168.384,-19.264L185.92,-19.264C185.749,-20.932 185.269,-22.381 184.48,-23.611C183.691,-24.841 182.656,-25.8 181.376,-26.488C180.096,-27.176 178.667,-27.52 177.088,-27.52C175.552,-27.52 174.155,-27.176 172.896,-26.488C171.637,-25.8 170.613,-24.841 169.824,-23.611C169.035,-22.381 168.555,-20.932 168.384,-19.264Z" style="fill:rgb(38,50,56);fill-rule:nonzero;"/>
            <path d="M231.104,0L222.528,0L222.528,-18.544C222.528,-21.193 222.059,-23.128 221.12,-24.347C220.181,-25.566 218.88,-26.176 217.216,-26.176C216.064,-26.176 214.901,-25.884 213.728,-25.301C212.555,-24.718 211.499,-23.916 210.56,-22.895C209.621,-21.874 208.939,-20.697 208.512,-19.364L208.512,0L199.936,0L199.936,-33.216L207.68,-33.216L207.68,-27.02C208.533,-28.455 209.621,-29.668 210.944,-30.659C212.267,-31.65 213.792,-32.41 215.52,-32.937C217.248,-33.464 219.072,-33.728 220.992,-33.728C223.083,-33.728 224.8,-33.359 226.144,-32.621C227.488,-31.882 228.512,-30.891 229.216,-29.647C229.92,-28.402 230.411,-27 230.688,-25.439C230.965,-23.878 231.104,-22.295 231.104,-20.692L231.104,0Z" style="fill:rgb(38,50,56);fill-rule:nonzero;"/>
            <path d="M254.208,0.64C251.477,0.64 249.024,0.186 246.848,-0.721C244.672,-1.628 242.816,-2.894 241.28,-4.519C239.744,-6.143 238.56,-7.989 237.728,-10.057C236.896,-12.124 236.48,-14.297 236.48,-16.576C236.48,-19.698 237.195,-22.557 238.624,-25.151C240.053,-27.747 242.091,-29.825 244.736,-31.386C247.381,-32.947 250.517,-33.728 254.144,-33.728C257.771,-33.728 260.885,-32.939 263.488,-31.36C266.091,-29.781 268.032,-27.712 269.312,-25.152L260.928,-22.592C260.203,-23.829 259.243,-24.779 258.048,-25.44C256.853,-26.101 255.531,-26.432 254.08,-26.432C252.459,-26.432 250.976,-26.024 249.632,-25.208C248.288,-24.392 247.232,-23.241 246.464,-21.755C245.696,-20.269 245.312,-18.542 245.312,-16.575C245.312,-14.65 245.707,-12.944 246.496,-11.459C247.285,-9.973 248.341,-8.801 249.664,-7.943C250.987,-7.085 252.459,-6.656 254.08,-6.656C255.104,-6.656 256.075,-6.827 256.992,-7.168C257.909,-7.509 258.731,-7.979 259.456,-8.576C260.181,-9.173 260.715,-9.856 261.056,-10.624L269.44,-8.064C268.672,-6.4 267.552,-4.907 266.08,-3.584C264.608,-2.261 262.88,-1.227 260.896,-0.48C258.912,0.267 256.683,0.64 254.208,0.64Z" style="fill:rgb(38,50,56);fill-rule:nonzero;"/>
            <path d="M289.92,0.64C287.232,0.64 284.8,0.186 282.624,-0.721C280.448,-1.628 278.592,-2.872 277.056,-4.455C275.52,-6.037 274.336,-7.851 273.504,-9.898C272.672,-11.944 272.256,-14.106 272.256,-16.384C272.256,-19.549 272.971,-22.439 274.4,-25.056C275.829,-27.673 277.877,-29.772 280.544,-31.355C283.211,-32.937 286.357,-33.728 289.984,-33.728C293.653,-33.728 296.789,-32.936 299.392,-31.351C301.995,-29.766 303.989,-27.674 305.376,-25.076C306.763,-22.477 307.456,-19.677 307.456,-16.676C307.456,-16.169 307.435,-15.652 307.392,-15.124C307.349,-14.595 307.307,-14.162 307.264,-13.824L281.344,-13.824C281.515,-12.157 282.016,-10.698 282.848,-9.447C283.68,-8.196 284.747,-7.248 286.048,-6.602C287.349,-5.955 288.747,-5.632 290.24,-5.632C291.947,-5.632 293.557,-6.048 295.072,-6.88C296.587,-7.712 297.621,-8.811 298.176,-10.176L305.536,-8.128C304.725,-6.421 303.563,-4.907 302.048,-3.584C300.533,-2.261 298.752,-1.227 296.704,-0.48C294.656,0.267 292.395,0.64 289.92,0.64ZM281.152,-19.264L298.688,-19.264C298.517,-20.932 298.037,-22.381 297.248,-23.611C296.459,-24.841 295.424,-25.8 294.144,-26.488C292.864,-27.176 291.435,-27.52 289.856,-27.52C288.32,-27.52 286.923,-27.176 285.664,-26.488C284.405,-25.8 283.381,-24.841 282.592,-23.611C281.803,-22.381 281.323,-20.932 281.152,-19.264Z" style="fill:rgb(38,50,56);fill-rule:nonzero;"/>
        </g>
        <g transform="matrix(1,0,0,1,421,594)">
            <path d="M100.011,745.642L100.011,754.056C100.011,755.326 101.041,756.356 102.311,756.356C103.58,756.356 104.611,755.326 104.611,754.056L104.611,745.642C104.611,744.373 103.58,743.342 102.311,743.342C101.041,743.342 100.011,744.373 100.011,745.642ZM100.011,722.642L100.011,731.842C100.011,733.112 101.041,734.142 102.311,734.142C103.58,734.142 104.611,733.112 104.611,731.842L104.611,722.642C104.611,721.373 103.58,720.342 102.311,720.342C101.041,720.342 100.011,721.373 100.011,722.642ZM104.611,708.842L104.611,699.642C104.611,698.373 103.58,697.342 102.311,697.342C101.041,697.342 100.011,698.373 100.011,699.642L100.011,708.842C100.011,710.112 101.041,711.142 102.311,711.142C103.58,711.142 104.611,710.112 104.611,708.842ZM104.611,685.842L104.611,676.642C104.611,675.373 103.58,674.342 102.311,674.342C101.041,674.342 100.011,675.373 100.011,676.642L100.011,685.842C100.011,687.112 101.041,688.142 102.311,688.142C103.58,688.142 104.611,687.112 104.611,685.842ZM100.011,653.642L100.011,662.842C100.011,664.112 101.041,665.142 102.311,665.142C103.58,665.142 104.611,664.112 104.611,662.842L104.611,653.642C104.611,652.373 103.58,651.342 102.311,651.342C101.041,651.342 100.011,652.373 100.011,653.642ZM100.011,630.642L100.011,639.843C100.011,641.112 101.041,642.143 102.311,642.143C103.58,642.143 104.611,641.112 104.611,639.843L104.611,630.642C104.611,629.373 103.58,628.342 102.311,628.342C101.041,628.342 100.011,629.373 100.011,630.642ZM104.611,616.842L104.611,607.642C104.611,606.373 103.58,605.342 102.311,605.342C101.041,605.342 100.011,606.373 100.011,607.642L100.011,616.842C100.011,618.112 101.041,619.142 102.311,619.142C103.58,619.142 104.611,618.112 104.611,616.842ZM104.611,593.842L104.611,584.642C104.611,583.373 103.58,582.342 102.311,582.342C101.041,582.342 100.011,583.373 100.011,584.642L100.011,593.842C100.011,595.112 101.041,596.142 102.311,596.142C103.58,596.142 104.611,595.112 104.611,593.842ZM104.611,570.842L104.611,561.642C104.611,560.373 103.58,559.342 102.311,559.342C101.041,559.342 100.011,560.373 100.011,561.642L100.011,570.842C100.011,572.112 101.041,573.142 102.311,573.142C103.58,573.142 104.611,572.112 104.611,570.842ZM104.611,547.843L104.611,538.643C104.611,537.373 103.58,536.343 102.311,536.343C101.041,536.343 100.011,537.373 100.011,538.643L100.011,547.843C100.011,549.112 101.041,550.143 102.311,550.143C103.58,550.143 104.611,549.112 104.611,547.843ZM104.611,524.843L104.611,515.642C104.611,514.373 103.58,513.342 102.311,513.342C101.041,513.342 100.011,514.373 100.011,515.642L100.011,524.843C100.011,526.112 101.041,527.143 102.311,527.143C103.58,527.143 104.611,526.112 104.611,524.843ZM100.011,492.642L100.011,501.842C100.011,503.112 101.041,504.142 102.311,504.142C103.58,504.142 104.611,503.112 104.611,501.842L104.611,492.642C104.611,491.373 103.58,490.342 102.311,490.342C101.041,490.342 100.011,491.373 100.011,492.642ZM100.011,469.643L100.011,478.843C100.011,480.112 101.041,481.143 102.311,481.143C103.58,481.143 104.611,480.112 104.611,478.843L104.611,469.643C104.611,468.374 103.58,467.343 102.311,467.343C101.041,467.343 100.011,468.374 100.011,469.643ZM104.611,455.843L104.611,446.643C104.611,445.374 103.58,444.343 102.311,444.343C101.041,444.343 100.011,445.374 100.011,446.643L100.011,455.843C100.011,457.112 101.041,458.143 102.311,458.143C103.58,458.143 104.611,457.112 104.611,455.843ZM104.611,432.843L104.611,423.643C104.611,422.373 103.58,421.343 102.311,421.343C101.041,421.343 100.011,422.373 100.011,423.643L100.011,432.843C100.011,434.112 101.041,435.143 102.311,435.143C103.58,435.143 104.611,434.112 104.611,432.843ZM104.611,409.842L104.611,400.643C104.611,399.374 103.58,398.343 102.311,398.343C101.041,398.343 100.011,399.374 100.011,400.643L100.011,409.842C100.011,411.112 101.041,412.142 102.311,412.142C103.58,412.142 104.611,411.112 104.611,409.842ZM104.611,386.843L104.611,377.643C104.611,376.373 103.58,375.343 102.311,375.343C101.041,375.343 100.011,376.373 100.011,377.643L100.011,386.843C100.011,388.112 101.041,389.143 102.311,389.143C103.58,389.143 104.611,388.112 104.611,386.843ZM100.011,354.642L100.011,363.843C100.011,365.112 101.041,366.143 102.311,366.143C103.58,366.143 104.611,365.112 104.611,363.843L104.611,354.642C104.611,353.373 103.58,352.342 102.311,352.342C101.041,352.342 100.011,353.373 100.011,354.642ZM100.011,331.642L100.011,340.842C100.011,342.111 101.041,343.142 102.311,343.142C103.58,343.142 104.611,342.111 104.611,340.842L104.611,331.642C104.611,330.373 103.58,329.342 102.311,329.342C101.041,329.342 100.011,330.373 100.011,331.642ZM100.011,308.641L100.011,317.842C100.011,319.111 101.041,320.142 102.311,320.142C103.58,320.142 104.611,319.111 104.611,317.842L104.611,308.641C104.611,307.372 103.58,306.341 102.311,306.341C101.041,306.341 100.011,307.372 100.011,308.641ZM104.611,294.841L104.611,285.641C104.611,284.372 103.58,283.341 102.311,283.341C101.041,283.341 100.011,284.372 100.011,285.641L100.011,294.841C100.011,296.111 101.041,297.141 102.311,297.141C103.58,297.141 104.611,296.111 104.611,294.841ZM104.611,271.842L104.611,262.643C104.611,261.373 103.58,260.343 102.311,260.343C101.041,260.343 100.011,261.373 100.011,262.643L100.011,271.842C100.011,273.111 101.041,274.142 102.311,274.142C103.58,274.142 104.611,273.111 104.611,271.842ZM104.611,248.843L104.611,239.644C104.611,238.375 103.58,237.344 102.311,237.344C101.041,237.344 100.011,238.375 100.011,239.644L100.011,248.843C100.011,250.112 101.041,251.143 102.311,251.143C103.58,251.143 104.611,250.112 104.611,248.843ZM104.611,225.845L104.611,216.645C104.611,215.376 103.58,214.345 102.311,214.345C101.041,214.345 100.011,215.376 100.011,216.645L100.011,225.845C100.011,227.114 101.041,228.145 102.311,228.145C103.58,228.145 104.611,227.114 104.611,225.845ZM104.611,202.846L104.611,193.646C104.611,192.377 103.58,191.346 102.311,191.346C101.041,191.346 100.011,192.377 100.011,193.646L100.011,202.846C100.011,204.115 101.041,205.146 102.311,205.146C103.58,205.146 104.611,204.115 104.611,202.846ZM100.011,170.646L100.011,179.846C100.011,181.115 101.041,182.146 102.311,182.146C103.58,182.146 104.611,181.115 104.611,179.846L104.611,170.646C104.611,169.376 103.58,168.346 102.311,168.346C101.041,168.346 100.011,169.376 100.011,170.646ZM104.611,156.846L104.611,147.646C104.611,146.376 103.58,145.346 102.311,145.346C101.041,145.346 100.011,146.376 100.011,147.646L100.011,156.846C100.011,158.115 101.041,159.146 102.311,159.146C103.58,159.146 104.611,158.115 104.611,156.846ZM100.011,124.645L100.011,133.845C100.011,135.115 101.041,136.145 102.311,136.145C103.58,136.145 104.611,135.115 104.611,133.845L104.611,124.645C104.611,123.376 103.58,122.345 102.311,122.345C101.041,122.345 100.011,123.376 100.011,124.645ZM104.611,110.845L104.611,101.645C104.611,100.376 103.58,99.345 102.311,99.345C101.041,99.345 100.011,100.376 100.011,101.645L100.011,110.845C100.011,112.115 101.041,113.145 102.311,113.145C103.58,113.145 104.611,112.115 104.611,110.845ZM104.611,87.845L104.611,78.646C104.611,77.377 103.58,76.346 102.311,76.346C101.041,76.346 100.011,77.377 100.011,78.646L100.011,87.845C100.011,89.115 101.041,90.145 102.311,90.145C103.58,90.145 104.611,89.115 104.611,87.845ZM104.611,64.846L104.611,55.646C104.611,54.377 103.58,53.346 102.311,53.346C101.041,53.346 100.011,54.377 100.011,55.646L100.011,64.846C100.011,66.115 101.041,67.146 102.311,67.146C103.58,67.146 104.611,66.115 104.611,64.846ZM100.011,37.246L100.011,41.846C100.011,43.115 101.041,44.146 102.311,44.146C103.58,44.146 104.611,43.115 104.611,41.846L104.611,37.246C104.611,35.977 103.58,34.946 102.311,34.946C101.041,34.946 100.011,35.977 100.011,37.246Z" style="fill:rgb(28,30,33);"/>
        </g>
        <g transform="matrix(1,0,0,1,948.607,594)">
            <path d="M104.611,754.056L104.611,745.642C104.611,744.373 103.58,743.342 102.311,743.342C101.041,743.342 100.011,744.373 100.011,745.642L100.011,754.056C100.011,755.326 101.041,756.356 102.311,756.356C103.58,756.356 104.611,755.326 104.611,754.056ZM104.611,731.842L104.611,722.642C104.611,721.373 103.58,720.342 102.311,720.342C101.041,720.342 100.011,721.373 100.011,722.642L100.011,731.842C100.011,733.112 101.041,734.142 102.311,734.142C103.58,734.142 104.611,733.112 104.611,731.842ZM104.611,708.842L104.611,699.642C104.611,698.373 103.58,697.342 102.311,697.342C101.041,697.342 100.011,698.373 100.011,699.642L100.011,708.842C100.011,710.112 101.041,711.142 102.311,711.142C103.58,711.142 104.611,710.112 104.611,708.842ZM104.611,685.842L104.611,676.642C104.611,675.373 103.58,674.342 102.311,674.342C101.041,674.342 100.011,675.373 100.011,676.642L100.011,685.842C100.011,687.112 101.041,688.142 102.311,688.142C103.58,688.142 104.611,687.112 104.611,685.842ZM104.611,662.842L104.611,653.642C104.611,652.373 103.58,651.342 102.311,651.342C101.041,651.342 100.011,652.373 100.011,653.642L100.011,662.842C100.011,664.112 101.041,665.142 102.311,665.142C103.58,665.142 104.611,664.112 104.611,662.842ZM104.611,639.843L104.611,630.642C104.611,629.373 103.58,628.342 102.311,628.342C101.041,628.342 100.011,629.373 100.011,630.642L100.011,639.843C100.011,641.112 101.041,642.143 102.311,642.143C103.58,642.143 104.611,641.112 104.611,639.843ZM104.611,616.842L104.611,607.642C104.611,606.373 103.58,605.342 102.311,605.342C101.041,605.342 100.011,606.373 100.011,607.642L100.011,616.842C100.011,618.112 101.041,619.142 102.311,619.142C103.58,619.142 104.611,618.112 104.611,616.842ZM104.611,593.842L104.611,584.642C104.611,583.373 103.58,582.342 102.311,582.342C101.041,582.342 100.011,583.373 100.011,584.642L100.011,593.842C100.011,595.112 101.041,596.142 102.311,596.142C103.58,596.142 104.611,595.112 104.611,593.842ZM104.611,570.842L104.611,561.642C104.611,560.373 103.58,559.342 102.311,559.342C101.041,559.342 100.011,560.373 100.011,561.642L100.011,570.842C100.011,572.112 101.041,573.142 102.311,573.142C103.58,573.142 104.611,572.112 104.611,570.842ZM104.611,547.843L104.611,538.643C104.611,537.373 103.58,536.343 102.311,536.343C101.041,536.343 100.011,537.373 100.011,538.643L100.011,547.843C100.011,549.112 101.041,550.143 102.311,550.143C103.58,550.143 104.611,549.112 104.611,547.843ZM104.611,524.843L104.611,515.642C104.611,514.373 103.58,513.342 102.311,513.342C101.041,513.342 100.011,514.373 100.011,515.642L100.011,524.843C100.011,526.112 101.041,527.143 102.311,527.143C103.58,527.143 104.611,526.112 104.611,524.843ZM104.611,501.842L104.611,492.642C104.611,491.373 103.58,490.342 102.311,490.342C101.041,490.342 100.011,491.373 100.011,492.642L100.011,501.842C100.011,503.112 101.041,504.142 102.311,504.142C103.58,504.142 104.611,503.112 104.611,501.842ZM104.611,478.843L104.611,469.643C104.611,468.374 103.58,467.343 102.311,467.343C101.041,467.343 100.011,468.374 100.011,469.643L100.011,478.843C100.011,480.112 101.041,481.143 102.311,481.143C103.58,481.143 104.611,480.112 104.611,478.843ZM104.611,455.843L104.611,446.643C104.611,445.374 103.58,444.343 102.311,444.343C101.041,444.343 100.011,445.374 100.011,446.643L100.011,455.843C100.011,457.112 101.041,458.143 102.311,458.143C103.58,458.143 104.611,457.112 104.611,455.843ZM104.611,432.843L104.611,423.643C104.611,422.373 103.58,421.343 102.311,421.343C101.041,421.343 100.011,422.373 100.011,423.643L100.011,432.843C100.011,434.112 101.041,435.143 102.311,435.143C103.58,435.143 104.611,434.112 104.611,432.843ZM104.611,409.842L104.611,400.643C104.611,399.374 103.58,398.343 102.311,398.343C101.041,398.343 100.011,399.374 100.011,400.643L100.011,409.842C100.011,411.112 101.041,412.142 102.311,412.142C103.58,412.142 104.611,411.112 104.611,409.842ZM104.611,386.843L104.611,377.643C104.611,376.373 103.58,375.343 102.311,375.343C101.041,375.343 100.011,376.373 100.011,377.643L100.011,386.843C100.011,388.112 101.041,389.143 102.311,389.143C103.58,389.143 104.611,388.112 104.611,386.843ZM104.611,363.843L104.611,354.642C104.611,353.373 103.58,352.342 102.311,352.342C101.041,352.342 100.011,353.373 100.011,354.642L100.011,363.843C100.011,365.112 101.041,366.143 102.311,366.143C103.58,366.143 104.611,365.112 104.611,363.843ZM104.611,340.842L104.611,331.642C104.611,330.373 103.58,329.342 102.311,329.342C101.041,329.342 100.011,330.373 100.011,331.642L100.011,340.842C100.011,342.111 101.041,343.142 102.311,343.142C103.58,343.142 104.611,342.111 104.611,340.842ZM100.011,308.641L100.011,317.842C100.011,319.111 101.041,320.142 102.311,320.142C103.58,320.142 104.611,319.111 104.611,317.842L104.611,308.641C104.611,307.372 103.58,306.341 102.311,306.341C101.041,306.341 100.011,307.372 100.011,308.641ZM104.611,294.841L104.611,285.641C104.611,284.372 103.58,283.341 102.311,283.341C101.041,283.341 100.011,284.372 100.011,285.641L100.011,294.841C100.011,296.111 101.041,297.141 102.311,297.141C103.58,297.141 104.611,296.111 104.611,294.841ZM104.611,271.842L104.611,262.643C104.611,261.373 103.58,260.343 102.311,260.343C101.041,260.343 100.011,261.373 100.011,262.643L100.011,271.842C100.011,273.111 101.041,274.142 102.311,274.142C103.58,274.142 104.611,273.111 104.611,271.842ZM104.611,248.843L104.611,239.644C104.611,238.375 103.58,237.344 102.311,237.344C101.041,237.344 100.011,238.375 100.011,239.644L100.011,248.843C100.011,250.112 101.041,251.143 102.311,251.143C103.58,251.143 104.611,250.112 104.611,248.843ZM104.611,225.845L104.611,216.645C104.611,215.376 103.58,214.345 102.311,214.345C101.041,214.345 100.011,215.376 100.011,216.645L100.011,225.845C100.011,227.114 101.041,228.145 102.311,228.145C103.58,228.145 104.611,227.114 104.611,225.845ZM104.611,202.846L104.611,193.646C104.611,192.377 103.58,191.346 102.311,191.346C101.041,191.346 100.011,192.377 100.011,193.646L100.011,202.846C100.011,204.115 101.041,205.146 102.311,205.146C103.58,205.146 104.611,204.115 104.611,202.846ZM100.011,170.646L100.011,179.846C100.011,181.115 101.041,182.146 102.311,182.146C103.58,182.146 104.611,181.115 104.611,179.846L104.611,170.646C104.611,169.376 103.58,168.346 102.311,168.346C101.041,168.346 100.011,169.376 100.011,170.646ZM104.611,156.846L104.611,147.646C104.611,146.376 103.58,145.346 102.311,145.346C101.041,145.346 100.011,146.376 100.011,147.646L100.011,156.846C100.011,158.115 101.041,159.146 102.311,159.146C103.58,159.146 104.611,158.115 104.611,156.846ZM104.611,133.845L104.611,124.645C104.611,123.376 103.58,122.345 102.311,122.345C101.041,122.345 100.011,123.376 100.011,124.645L100.011,133.845C100.011,135.115 101.041,136.145 102.311,136.145C103.58,136.145 104.611,135.115 104.611,133.845ZM104.611,110.845L104.611,101.645C104.611,100.376 103.58,99.345 102.311,99.345C101.041,99.345 100.011,100.376 100.011,101.645L100.011,110.845C100.011,112.115 101.041,113.145 102.311,113.145C103.58,113.145 104.611,112.115 104.611,110.845ZM104.611,87.845L104.611,78.646C104.611,77.377 103.58,76.346 102.311,76.346C101.041,76.346 100.011,77.377 100.011,78.646L100.011,87.845C100.011,89.115 101.041,90.145 102.311,90.145C103.58,90.145 104.611,89.115 104.611,87.845ZM104.611,64.846L104.611,55.646C104.611,54.377 103.58,53.346 102.311,53.346C101.041,53.346 100.011,54.377 100.011,55.646L100.011,64.846C100.011,66.115 101.041,67.146 102.311,67.146C103.58,67.146 104.611,66.115 104.611,64.846ZM100.011,37.246L100.011,41.846C100.011,43.115 101.041,44.146 102.311,44.146C103.58,44.146 104.611,43.115 104.611,41.846L104.611,37.246C104.611,35.977 103.58,34.946 102.311,34.946C101.041,34.946 100.011,35.977 100.011,37.246Z" style="fill:rgb(28,30,33);"/>
        </g>
        <g transform="matrix(1,0,0,1,240.116,610.388)">
            <path d="M357.645,594.688C357.218,594.219 356.6,593.718 355.789,593.184C354.978,592.651 354.018,592.15 352.909,591.68C351.8,591.211 350.605,590.827 349.325,590.528C348.045,590.23 346.722,590.08 345.357,590.08C342.37,590.08 340.152,590.633 338.701,591.739C337.25,592.845 336.525,594.376 336.525,596.332C336.525,597.778 336.93,598.916 337.741,599.745C338.552,600.575 339.789,601.266 341.453,601.818C343.117,602.371 345.208,602.966 347.725,603.604C350.797,604.328 353.464,605.189 355.725,606.188C357.986,607.188 359.714,608.517 360.909,610.175C362.104,611.834 362.701,614.024 362.701,616.746C362.701,619.043 362.274,621.021 361.421,622.679C360.568,624.338 359.373,625.688 357.837,626.73C356.301,627.772 354.53,628.538 352.525,629.027C350.52,629.516 348.365,629.76 346.061,629.76C343.8,629.76 341.549,629.526 339.309,629.056C337.069,628.587 334.936,627.894 332.909,626.976C330.882,626.059 329.016,624.939 327.309,623.616L330.573,617.472C331.128,618.027 331.928,618.635 332.973,619.296C334.018,619.958 335.234,620.587 336.621,621.184C338.008,621.782 339.522,622.283 341.165,622.688C342.808,623.094 344.482,623.296 346.189,623.296C349.048,623.296 351.234,622.798 352.749,621.801C354.264,620.805 355.021,619.373 355.021,617.506C355.021,615.974 354.53,614.751 353.549,613.836C352.568,612.922 351.138,612.145 349.261,611.507C347.384,610.869 345.144,610.23 342.541,609.592C339.554,608.784 337.058,607.902 335.053,606.944C333.048,605.987 331.544,604.753 330.541,603.242C329.538,601.732 329.037,599.806 329.037,597.466C329.037,594.488 329.762,591.967 331.213,589.903C332.664,587.839 334.637,586.286 337.133,585.244C339.629,584.202 342.434,583.68 345.549,583.68C347.597,583.68 349.538,583.904 351.373,584.352C353.208,584.8 354.925,585.408 356.525,586.176C358.125,586.944 359.586,587.819 360.909,588.8L357.645,594.688Z" style="fill:rgb(38,50,56);fill-rule:nonzero;"/>
            <path d="M368.589,616.55L368.589,596.224L375.629,596.224L375.629,615.122C375.629,618.082 376.173,620.312 377.261,621.813C378.349,623.314 379.938,624.064 382.029,624.064C383.352,624.064 384.642,623.791 385.901,623.244C387.16,622.697 388.312,621.887 389.357,620.813C390.402,619.74 391.245,618.446 391.885,616.931L391.885,596.224L398.925,596.224L398.925,621.525C398.925,622.329 399.074,622.9 399.373,623.238C399.672,623.576 400.162,623.766 400.845,623.808L400.845,629.44C400.12,629.568 399.522,629.654 399.053,629.696C398.584,629.739 398.136,629.76 397.709,629.76C396.429,629.76 395.362,629.411 394.509,628.712C393.656,628.013 393.165,627.113 393.037,626.013L392.909,622.712C391.416,625.126 389.474,626.957 387.085,628.206C384.696,629.456 382.072,630.08 379.213,630.08C375.714,630.08 373.069,628.937 371.277,626.65C369.485,624.364 368.589,620.997 368.589,616.55Z" style="fill:rgb(38,50,56);fill-rule:nonzero;"/>
            <path d="M425.933,630.08C423.373,630.08 421.058,629.472 418.989,628.256C416.92,627.04 415.288,625.408 414.093,623.36L414.093,629.44L407.885,629.44L407.885,582.72L414.925,582.72L414.925,602.624C416.248,600.491 417.901,598.806 419.885,597.568C421.869,596.331 424.205,595.712 426.893,595.712C429.112,595.712 431.138,596.177 432.973,597.107C434.808,598.037 436.376,599.306 437.677,600.912C438.978,602.518 439.981,604.357 440.685,606.428C441.389,608.5 441.741,610.698 441.741,613.023C441.741,615.348 441.346,617.546 440.557,619.617C439.768,621.689 438.648,623.507 437.197,625.071C435.746,626.635 434.072,627.861 432.173,628.749C430.274,629.637 428.194,630.08 425.933,630.08ZM424.077,624.064C425.613,624.064 427.021,623.759 428.301,623.149C429.581,622.539 430.69,621.73 431.629,620.72C432.568,619.711 433.282,618.533 433.773,617.187C434.264,615.841 434.509,614.452 434.509,613.022C434.509,611.046 434.093,609.195 433.261,607.47C432.429,605.746 431.266,604.358 429.773,603.306C428.28,602.254 426.552,601.728 424.589,601.728C423.181,601.728 421.858,602.054 420.621,602.706C419.384,603.358 418.285,604.221 417.325,605.293C416.365,606.366 415.565,607.554 414.925,608.858L414.925,617.565C415.181,618.533 415.629,619.406 416.269,620.184C416.909,620.962 417.656,621.635 418.509,622.203C419.362,622.771 420.28,623.223 421.261,623.559C422.242,623.896 423.181,624.064 424.077,624.064Z" style="fill:rgb(38,50,56);fill-rule:nonzero;"/>
            <rect x="447.757" y="608.768" width="19.136" height="6.336" style="fill:rgb(38,50,56);fill-rule:nonzero;"/>
            <path d="M486.925,630.08C484.109,630.08 481.442,629.622 478.925,628.704C476.408,627.787 474.253,626.411 472.461,624.576L475.085,619.84C477.005,621.547 478.936,622.784 480.877,623.552C482.818,624.32 484.749,624.704 486.669,624.704C488.632,624.704 490.232,624.339 491.469,623.607C492.706,622.876 493.325,621.8 493.325,620.378C493.325,619.322 493.005,618.54 492.365,618.032C491.725,617.525 490.797,617.081 489.581,616.701C488.365,616.321 486.904,615.898 485.197,615.432C482.808,614.714 480.802,613.963 479.181,613.181C477.56,612.399 476.344,611.438 475.533,610.296C474.722,609.155 474.317,607.697 474.317,605.921C474.317,603.765 474.872,601.927 475.981,600.405C477.09,598.883 478.637,597.721 480.621,596.917C482.605,596.114 484.898,595.712 487.501,595.712C489.933,595.712 492.184,596.086 494.253,596.832C496.322,597.579 498.146,598.742 499.725,600.32L496.717,604.992C495.224,603.627 493.698,602.624 492.141,601.984C490.584,601.344 488.909,601.024 487.117,601.024C486.093,601.024 485.112,601.14 484.173,601.372C483.234,601.604 482.456,602.026 481.837,602.638C481.218,603.25 480.909,604.105 480.909,605.202C480.909,606.088 481.165,606.806 481.677,607.354C482.189,607.903 482.957,608.367 483.981,608.747C485.005,609.127 486.264,609.549 487.757,610.013C490.36,610.773 492.578,611.522 494.413,612.26C496.248,612.999 497.666,613.949 498.669,615.109C499.672,616.27 500.173,617.863 500.173,619.888C500.173,623.096 498.968,625.596 496.557,627.39C494.146,629.184 490.936,630.08 486.925,630.08Z" style="fill:rgb(38,50,56);fill-rule:nonzero;"/>
            <path d="M521.613,630.08C519.01,630.08 516.653,629.625 514.541,628.714C512.429,627.804 510.605,626.554 509.069,624.966C507.533,623.378 506.349,621.557 505.517,619.503C504.685,617.449 504.269,615.258 504.269,612.928C504.269,609.806 504.994,606.947 506.445,604.352C507.896,601.757 509.922,599.668 512.525,598.086C515.128,596.504 518.178,595.712 521.677,595.712C525.176,595.712 528.194,596.505 530.733,598.089C533.272,599.673 535.245,601.754 536.653,604.331C538.061,606.909 538.765,609.676 538.765,612.633C538.765,613.141 538.744,613.616 538.701,614.059C538.658,614.503 538.616,614.872 538.573,615.168L511.757,615.168C511.885,617.106 512.429,618.801 513.389,620.253C514.349,621.706 515.576,622.843 517.069,623.664C518.562,624.486 520.162,624.896 521.869,624.896C523.746,624.896 525.528,624.427 527.213,623.488C528.898,622.55 530.04,621.312 530.637,619.776L536.653,621.504C535.928,623.126 534.829,624.587 533.357,625.888C531.885,627.19 530.146,628.214 528.141,628.96C526.136,629.707 523.96,630.08 521.613,630.08ZM511.565,610.496L531.789,610.496C531.661,608.614 531.117,606.951 530.157,605.508C529.197,604.065 527.981,602.936 526.509,602.12C525.037,601.304 523.405,600.896 521.613,600.896C519.864,600.896 518.253,601.304 516.781,602.12C515.309,602.936 514.104,604.065 513.165,605.508C512.226,606.951 511.693,608.614 511.565,610.496Z" style="fill:rgb(38,50,56);fill-rule:nonzero;"/>
            <path d="M557.261,630.08C555.085,630.08 553.09,629.626 551.277,628.717C549.464,627.808 547.896,626.561 546.573,624.976C545.25,623.391 544.237,621.552 543.533,619.459C542.829,617.367 542.477,615.158 542.477,612.833C542.477,610.466 542.872,608.247 543.661,606.175C544.45,604.104 545.56,602.286 546.989,600.722C548.418,599.158 550.093,597.932 552.013,597.044C553.933,596.156 556.002,595.712 558.221,595.712C560.781,595.712 563.096,596.325 565.165,597.551C567.234,598.777 568.866,600.363 570.061,602.307L570.061,596.224L576.269,596.224L576.269,643.072L569.229,643.072L569.229,623.232C566.413,627.798 562.424,630.08 557.261,630.08ZM559.821,624.064C561.229,624.064 562.52,623.792 563.693,623.247C564.866,622.703 565.912,621.959 566.829,621.016C567.746,620.074 568.546,618.995 569.229,617.779L569.229,609.028C569.016,608.022 568.6,607.088 567.981,606.228C567.362,605.368 566.605,604.591 565.709,603.899C564.813,603.207 563.853,602.673 562.829,602.295C561.805,601.917 560.802,601.728 559.821,601.728C558.328,601.728 556.962,602.044 555.725,602.675C554.488,603.306 553.41,604.158 552.493,605.23C551.576,606.303 550.872,607.512 550.381,608.858C549.89,610.204 549.645,611.592 549.645,613.022C549.645,615.042 550.082,616.882 550.957,618.543C551.832,620.205 553.026,621.54 554.541,622.55C556.056,623.56 557.816,624.064 559.821,624.064Z" style="fill:rgb(38,50,56);fill-rule:nonzero;"/>
            <path d="M584.397,616.55L584.397,596.224L591.437,596.224L591.437,615.122C591.437,618.082 591.981,620.312 593.069,621.813C594.157,623.314 595.746,624.064 597.837,624.064C599.16,624.064 600.45,623.791 601.709,623.244C602.968,622.697 604.12,621.887 605.165,620.813C606.21,619.74 607.053,618.446 607.693,616.931L607.693,596.224L614.733,596.224L614.733,621.525C614.733,622.329 614.882,622.9 615.181,623.238C615.48,623.576 615.97,623.766 616.653,623.808L616.653,629.44C615.928,629.568 615.33,629.654 614.861,629.696C614.392,629.739 613.944,629.76 613.517,629.76C612.237,629.76 611.17,629.411 610.317,628.712C609.464,628.013 608.973,627.113 608.845,626.013L608.717,622.712C607.224,625.126 605.282,626.957 602.893,628.206C600.504,629.456 597.88,630.08 595.021,630.08C591.522,630.08 588.877,628.937 587.085,626.65C585.293,624.364 584.397,620.997 584.397,616.55Z" style="fill:rgb(38,50,56);fill-rule:nonzero;"/>
            <path d="M638.861,630.08C636.258,630.08 633.901,629.625 631.789,628.714C629.677,627.804 627.853,626.554 626.317,624.966C624.781,623.378 623.597,621.557 622.765,619.503C621.933,617.449 621.517,615.258 621.517,612.928C621.517,609.806 622.242,606.947 623.693,604.352C625.144,601.757 627.17,599.668 629.773,598.086C632.376,596.504 635.426,595.712 638.925,595.712C642.424,595.712 645.442,596.505 647.981,598.089C650.52,599.673 652.493,601.754 653.901,604.331C655.309,606.909 656.013,609.676 656.013,612.633C656.013,613.141 655.992,613.616 655.949,614.059C655.906,614.503 655.864,614.872 655.821,615.168L629.005,615.168C629.133,617.106 629.677,618.801 630.637,620.253C631.597,621.706 632.824,622.843 634.317,623.664C635.81,624.486 637.41,624.896 639.117,624.896C640.994,624.896 642.776,624.427 644.461,623.488C646.146,622.55 647.288,621.312 647.885,619.776L653.901,621.504C653.176,623.126 652.077,624.587 650.605,625.888C649.133,627.19 647.394,628.214 645.389,628.96C643.384,629.707 641.208,630.08 638.861,630.08ZM628.813,610.496L649.037,610.496C648.909,608.614 648.365,606.951 647.405,605.508C646.445,604.065 645.229,602.936 643.757,602.12C642.285,601.304 640.653,600.896 638.861,600.896C637.112,600.896 635.501,601.304 634.029,602.12C632.557,602.936 631.352,604.065 630.413,605.508C629.474,606.951 628.941,608.614 628.813,610.496Z" style="fill:rgb(38,50,56);fill-rule:nonzero;"/>
            <path d="M691.789,629.44L684.749,629.44L684.749,610.904C684.749,607.826 684.248,605.569 683.245,604.135C682.242,602.701 680.76,601.984 678.797,601.984C677.432,601.984 676.077,602.32 674.733,602.991C673.389,603.662 672.184,604.574 671.117,605.728C670.05,606.882 669.282,608.213 668.813,609.723L668.813,629.44L661.773,629.44L661.773,596.224L668.173,596.224L668.173,602.939C669.026,601.46 670.146,600.182 671.533,599.104C672.92,598.026 674.488,597.192 676.237,596.6C677.986,596.008 679.842,595.712 681.805,595.712C683.81,595.712 685.464,596.072 686.765,596.79C688.066,597.509 689.09,598.492 689.837,599.738C690.584,600.985 691.096,602.422 691.373,604.049C691.65,605.677 691.789,607.399 691.789,609.216L691.789,629.44Z" style="fill:rgb(38,50,56);fill-rule:nonzero;"/>
            <path d="M715.149,630.08C712.546,630.08 710.189,629.626 708.077,628.717C705.965,627.808 704.141,626.55 702.605,624.944C701.069,623.338 699.885,621.499 699.053,619.427C698.221,617.356 697.805,615.158 697.805,612.833C697.805,609.705 698.52,606.851 699.949,604.272C701.378,601.694 703.384,599.622 705.965,598.058C708.546,596.494 711.608,595.712 715.149,595.712C718.562,595.712 721.538,596.47 724.077,597.984C726.616,599.499 728.482,601.515 729.677,604.032L722.829,606.208C722.061,604.8 720.984,603.702 719.597,602.912C718.21,602.123 716.685,601.728 715.021,601.728C713.144,601.728 711.448,602.202 709.933,603.148C708.418,604.094 707.224,605.398 706.349,607.06C705.474,608.722 705.037,610.646 705.037,612.833C705.037,614.937 705.485,616.84 706.381,618.543C707.277,620.247 708.482,621.593 709.997,622.581C711.512,623.57 713.208,624.064 715.085,624.064C716.237,624.064 717.357,623.862 718.445,623.456C719.533,623.051 720.482,622.496 721.293,621.792C722.104,621.088 722.68,620.31 723.021,619.456L729.933,621.504C729.208,623.168 728.13,624.64 726.701,625.92C725.272,627.2 723.586,628.214 721.645,628.96C719.704,629.707 717.538,630.08 715.149,630.08Z" style="fill:rgb(38,50,56);fill-rule:nonzero;"/>
            <path d="M750.605,630.08C748.002,630.08 745.645,629.625 743.533,628.714C741.421,627.804 739.597,626.554 738.061,624.966C736.525,623.378 735.341,621.557 734.509,619.503C733.677,617.449 733.261,615.258 733.261,612.928C733.261,609.806 733.986,606.947 735.437,604.352C736.888,601.757 738.914,599.668 741.517,598.086C744.12,596.504 747.17,595.712 750.669,595.712C754.168,595.712 757.186,596.505 759.725,598.089C762.264,599.673 764.237,601.754 765.645,604.331C767.053,606.909 767.757,609.676 767.757,612.633C767.757,613.141 767.736,613.616 767.693,614.059C767.65,614.503 767.608,614.872 767.565,615.168L740.749,615.168C740.877,617.106 741.421,618.801 742.381,620.253C743.341,621.706 744.568,622.843 746.061,623.664C747.554,624.486 749.154,624.896 750.861,624.896C752.738,624.896 754.52,624.427 756.205,623.488C757.89,622.55 759.032,621.312 759.629,619.776L765.645,621.504C764.92,623.126 763.821,624.587 762.349,625.888C760.877,627.19 759.138,628.214 757.133,628.96C755.128,629.707 752.952,630.08 750.605,630.08ZM740.557,610.496L760.781,610.496C760.653,608.614 760.109,606.951 759.149,605.508C758.189,604.065 756.973,602.936 755.501,602.12C754.029,601.304 752.397,600.896 750.605,600.896C748.856,600.896 747.245,601.304 745.773,602.12C744.301,602.936 743.096,604.065 742.157,605.508C741.218,606.951 740.685,608.614 740.557,610.496Z" style="fill:rgb(38,50,56);fill-rule:nonzero;"/>
        </g>
    </g>
</svg>
